<svg width="80" height="80" viewBox="0 0 80 80" fill="none" xmlns="http://www.w3.org/2000/svg">
<path d="M41.4309 70.7093C59.4182 70.7093 73.9999 56.1799 73.9999 38.257C73.9999 20.3341 59.4182 5.80469 41.4309 5.80469C23.4435 5.80469 8.86182 20.3341 8.86182 38.257C8.86182 56.1799 23.4435 70.7093 41.4309 70.7093Z" fill="url(#paint0_linear)"/>
<path d="M33.8122 39.2925C38.6842 39.2925 42.6337 35.3347 42.6337 30.4524C42.6337 25.5702 38.6842 21.6123 33.8122 21.6123C28.9402 21.6123 24.9907 25.5702 24.9907 30.4524C24.9907 35.3347 28.9402 39.2925 33.8122 39.2925Z" fill="white"/>
<path d="M42.3634 13.0035C46.4179 10.1217 48.6732 25.0144 39.3772 25.5911C30.0812 26.1677 29.6823 30.8764 29.5146 34.7537C29.4464 36.3162 26.992 39.9304 23.6513 36.1201C20.7497 32.8099 18.7678 23.9541 25.9135 18.5205C33.0592 13.0869 34.5618 18.5499 42.3634 13.0035Z" fill="#1C0F7D"/>
<path d="M16.3354 71.1907H52.6701C49.298 54.9364 45.8809 48.6672 40.8842 45.9582C37.8694 44.3233 31.3448 43.9605 27.8316 46.9072C24.2147 49.9428 20.3511 52.7241 16.3354 71.1907Z" fill="url(#paint1_linear)"/>
<defs>
<linearGradient id="paint0_linear" x1="50.1704" y1="-28.1088" x2="-17.6915" y2="30.7314" gradientUnits="userSpaceOnUse">
<stop stop-color="#5AFFF7" stop-opacity="0.01"/>
<stop offset="1" stop-color="#5AFFF7"/>
</linearGradient>
<linearGradient id="paint1_linear" x1="33.452" y1="40.5026" x2="10.9806" y2="71.1975" gradientUnits="userSpaceOnUse">
<stop stop-color="#6B5AED"/>
<stop offset="1" stop-color="#4939C4"/>
</linearGradient>
</defs>
</svg>
