<svg width="80" height="80" viewBox="0 0 80 80" fill="none" xmlns="http://www.w3.org/2000/svg">
<path d="M75 39.2599V74H6V39.2599C6 20.3387 21.4463 5 40.5 5C59.5537 5 75 20.3387 75 39.2599Z" fill="url(#paint0_linear)"/>
<path d="M65.7864 45.1473V74.0003H42.6563V45.1473C42.6562 44.6581 42.8508 44.1891 43.1971 43.8436C43.5434 43.4981 44.0129 43.3046 44.502 43.3057H63.9441C64.4327 43.3055 64.9013 43.4994 65.2468 43.8448C65.5923 44.1902 65.7864 44.6587 65.7864 45.1473Z" fill="#F5F6FA"/>
<path d="M65.7864 57.0259V61.0003H53.2754C52.8562 61.0003 52.5164 60.6605 52.5164 60.2413V57.7849C52.5164 57.3657 52.8562 57.0259 53.2754 57.0259H65.7864Z" fill="url(#paint1_linear)"/>
<path d="M65.7864 48.7637V52.7381H53.2754C52.8562 52.7381 52.5164 52.3983 52.5164 51.9791V49.5241C52.5164 49.1049 52.8562 48.7651 53.2754 48.7651L65.7864 48.7637Z" fill="url(#paint2_linear)"/>
<path d="M65.7864 65.2842V69.2586H53.2754C52.8562 69.2586 52.5164 68.9188 52.5164 68.4996V66.0439C52.5164 65.6247 52.8562 65.2849 53.2754 65.2849L65.7864 65.2842Z" fill="url(#paint3_linear)"/>
<path d="M46.1583 19.5696C46.1583 23.5523 46.1583 33.1371 46.1583 43.3056C46.1583 49.5688 46.1583 56.0534 46.1583 61.5858V74.0003H15.2139V19.5696C15.2142 18.5349 16.0532 17.6963 17.0879 17.6963H44.2849C45.3194 17.6967 46.1579 18.5352 46.1583 19.5696Z" fill="white"/>
<path d="M46.1579 24.9753V31.9008H21.598C20.8666 31.9008 20.2736 31.3081 20.2732 30.5767V26.2987C20.2736 25.5673 20.8666 24.9746 21.598 24.9746L46.1579 24.9753Z" fill="url(#paint4_linear)"/>
<path d="M46.1579 39.8164V46.7447H21.598C20.8663 46.7447 20.2732 46.1516 20.2732 45.4199V41.1419C20.2732 40.4102 20.8663 39.8171 21.598 39.8171L46.1579 39.8164Z" fill="url(#paint5_linear)"/>
<path d="M46.1579 61.5851H21.598C21.2466 61.5851 20.9097 61.4455 20.6612 61.1971C20.4128 60.9486 20.2732 60.6117 20.2732 60.2603V55.9823C20.2736 55.2509 20.8666 54.6582 21.598 54.6582H46.1579V61.5851Z" fill="url(#paint6_linear)"/>
<defs>
<linearGradient id="paint0_linear" x1="40.5" y1="4.59497" x2="40.5" y2="71.0578" gradientUnits="userSpaceOnUse">
<stop stop-color="#5AFFF7" stop-opacity="0"/>
<stop offset="1" stop-color="#5AFFF7"/>
</linearGradient>
<linearGradient id="paint1_linear" x1="67.5107" y1="57.9884" x2="60.2095" y2="68.1884" gradientUnits="userSpaceOnUse">
<stop stop-color="#6B5AED" stop-opacity="0"/>
<stop offset="1" stop-color="#6B5AED"/>
</linearGradient>
<linearGradient id="paint2_linear" x1="63.6012" y1="50.2163" x2="56.3002" y2="60.4163" gradientUnits="userSpaceOnUse">
<stop stop-color="#6B5AED" stop-opacity="0"/>
<stop offset="1" stop-color="#6B5AED"/>
</linearGradient>
<linearGradient id="paint3_linear" x1="71.4203" y1="65.7568" x2="64.1193" y2="75.9569" gradientUnits="userSpaceOnUse">
<stop stop-color="#6B5AED" stop-opacity="0"/>
<stop offset="1" stop-color="#6B5AED"/>
</linearGradient>
<linearGradient id="paint4_linear" x1="42.781" y1="27.4602" x2="28.9417" y2="47.8752" gradientUnits="userSpaceOnUse">
<stop stop-color="#6B5AED"/>
<stop offset="1" stop-color="#6B5AED" stop-opacity="0"/>
</linearGradient>
<linearGradient id="paint5_linear" x1="49.6741" y1="41.5739" x2="35.8344" y2="61.9901" gradientUnits="userSpaceOnUse">
<stop stop-color="#6B5AED"/>
<stop offset="1" stop-color="#6B5AED" stop-opacity="0"/>
</linearGradient>
<linearGradient id="paint6_linear" x1="56.5679" y1="55.6875" x2="42.7282" y2="76.1031" gradientUnits="userSpaceOnUse">
<stop stop-color="#6B5AED"/>
<stop offset="1" stop-color="#6B5AED" stop-opacity="0"/>
</linearGradient>
</defs>
</svg>
