<svg width="80" height="80" viewBox="0 0 80 80" fill="none" xmlns="http://www.w3.org/2000/svg">
<path d="M58.5502 14.4512C69.319 14.4512 78.0488 23.181 78.0488 33.9498V40.1295C78.0488 50.8983 69.319 59.6281 58.5502 59.6281L19.4986 59.6281C8.72985 59.6281 4.57764e-05 50.8983 4.57764e-05 40.1295V33.9498C4.57764e-05 23.181 8.72987 14.4512 19.4986 14.4512L58.5502 14.4512Z" fill="url(#paint0_linear)"/>
<path d="M26.385 37.9048C30.831 37.9048 34.4352 34.2077 34.4352 29.647C34.4352 25.0864 30.831 21.3893 26.385 21.3893C21.939 21.3893 18.3348 25.0864 18.3348 29.647C18.3348 34.2077 21.939 37.9048 26.385 37.9048Z" fill="white"/>
<path d="M18.5832 13.3454C14.8837 10.6531 12.8254 24.5655 21.3089 25.1038C29.7925 25.6421 30.1545 30.0409 30.3091 33.6627C30.37 35.1221 32.6134 38.4984 35.661 34.9406C38.3095 31.8472 40.1209 23.575 33.5983 18.4983C27.0756 13.4217 25.7012 18.5266 18.5832 13.3454Z" fill="#1C0F7D"/>
<path d="M42.3335 67.7001H9.17535C12.2535 52.5167 15.3717 46.6608 19.9312 44.1301C22.6815 42.6051 28.637 42.2643 31.843 45.0168C35.1433 47.851 38.6689 50.4496 42.3335 67.7001Z" fill="url(#paint1_linear)"/>
<path d="M62.5239 23.094C62.5239 23.094 65.4638 38.1676 64.2336 47.5844C64.2336 47.5844 52.0364 47.0094 49.8733 50.9202C49.8733 50.9202 41.4679 35.8108 45.513 24.5633L62.5239 23.094Z" fill="#1C0F7D"/>
<path d="M52.4251 38.964C57.0309 38.5668 60.4379 34.2647 60.0349 29.355C59.6318 24.4454 55.5713 20.7874 50.9655 21.1846C46.3597 21.5819 42.9527 25.884 43.3557 30.7936C43.7588 35.7033 47.8193 39.3613 52.4251 38.964Z" fill="white"/>
<path d="M61.9314 48.4761C59.4443 42.7246 52.8867 41.802 49.4733 41.8638C38.9353 42.0551 34.7756 74.8665 34.7756 74.8665H69.4769C66.0918 60.1604 65.5194 56.7757 61.9314 48.4761Z" fill="#6B5AED"/>
<path d="M63.1032 25.2382C63.1032 25.2382 58.557 28.9088 49.157 26.5085C42.3444 25.261 51.2108 47.637 52.991 51.4167C52.991 51.4167 44.1068 53.65 41.1187 47.6141C38.1305 41.5783 39.0991 16.8355 50.7893 16.8127C62.4795 16.7898 63.1032 25.2382 63.1032 25.2382Z" fill="#302396"/>
<defs>
<linearGradient id="paint0_linear" x1="126.479" y1="43.9317" x2="91.2963" y2="-28.7537" gradientUnits="userSpaceOnUse">
<stop stop-color="#5AFFF7" stop-opacity="0.01"/>
<stop offset="1" stop-color="#5AFFF7"/>
</linearGradient>
<linearGradient id="paint1_linear" x1="-2.67064" y1="61.0531" x2="18.4616" y2="89.2562" gradientUnits="userSpaceOnUse">
<stop stop-color="#6B5AED"/>
<stop offset="1" stop-color="#4939C4"/>
</linearGradient>
</defs>
</svg>
