<svg width="80" height="80" viewBox="0 0 80 80" fill="none" xmlns="http://www.w3.org/2000/svg">
<rect x="21.9045" y="18.5269" width="46.476" height="58.6776" rx="2.2914" fill="url(#paint0_linear)"/>
<rect x="12" y="10.5654" width="46.476" height="58.6776" rx="2.2914" fill="#6B5AED"/>
<path d="M52.637 15.1396H17.839C17.2829 15.1396 16.7497 15.3579 16.3566 15.7463C15.9635 16.1347 15.7427 16.6615 15.7429 17.2108V62.5926C15.7427 63.1418 15.9635 63.6686 16.3566 64.057C16.7497 64.4454 17.2829 64.6637 17.839 64.6637H52.637C53.7951 64.6637 54.7338 63.7364 54.7338 62.5926V17.2108C54.7338 16.0669 53.7951 15.1396 52.637 15.1396Z" fill="white"/>
<path fill-rule="evenodd" clip-rule="evenodd" d="M35.2358 2C37.7138 2 39.738 3.95531 39.7937 6.40269C39.7975 6.43607 39.7975 6.46944 39.7975 6.50357V8.28982H30.6779V6.50357V6.40269C30.7336 3.95531 32.7578 2 35.2358 2ZM34.4465 4.24437C33.9578 4.52789 33.6628 5.05051 33.6753 5.61025V6.22311H36.8009V5.61025C36.8135 5.05051 36.5184 4.52789 36.0297 4.24437C35.541 3.96086 34.9352 3.96086 34.4465 4.24437Z" fill="#302396"/>
<path d="M25.1101 7.50705C25.1101 7.09568 25.4436 6.76221 25.8549 6.76221H44.6216C45.033 6.76221 45.3664 7.09568 45.3664 7.50705V12.039C45.3664 12.4504 45.033 12.7839 44.6216 12.7839H25.8549C25.4436 12.7839 25.1101 12.4504 25.1101 12.039V7.50705Z" fill="#302396"/>
<path d="M44.4873 11.7079H25.9892C25.5036 11.7075 25.1101 11.3185 25.1101 10.8387V11.9173C25.1101 12.397 25.5036 12.7861 25.9892 12.7865H44.4873C44.973 12.7861 45.3664 12.397 45.3664 11.9173V10.8364C45.367 11.0672 45.2747 11.2888 45.1098 11.4523C44.9449 11.6158 44.7209 11.7077 44.4873 11.7079Z" fill="#302396"/>
<path d="M35.2382 48.0555C39.7966 48.0555 43.4919 44.4055 43.4919 39.903C43.4919 35.4005 39.7966 31.7505 35.2382 31.7505C30.6799 31.7505 26.9846 35.4005 26.9846 39.903C26.9846 44.4055 30.6799 48.0555 35.2382 48.0555Z" fill="#63EBE4"/>
<path d="M34.2211 43.2633C33.9089 43.2637 33.6094 43.1412 33.3889 42.9228L30.9727 40.535C30.513 40.0809 30.513 39.3447 30.9727 38.8906C31.4323 38.4365 32.1776 38.4365 32.6372 38.8906L34.2211 40.4561L37.8397 36.8836C38.3021 36.4461 39.0337 36.4539 39.4864 36.9013C39.939 37.3487 39.9466 38.0715 39.5035 38.5281L35.0503 42.9235C34.8303 43.1407 34.5322 43.2629 34.2211 43.2633Z" fill="white"/>
<defs>
<linearGradient id="paint0_linear" x1="75.5328" y1="80.1011" x2="75.5328" y2="3.36445" gradientUnits="userSpaceOnUse">
<stop stop-color="#5AFFF7" stop-opacity="0.01"/>
<stop offset="1" stop-color="#5AFFF7"/>
</linearGradient>
</defs>
</svg>
