<svg width="48" height="48" viewBox="0 0 48 48" fill="none" xmlns="http://www.w3.org/2000/svg">
<path fill-rule="evenodd" clip-rule="evenodd" d="M13.6557 0.64999C20.5179 -0.216663 27.462 -0.216663 34.3243 0.64999C41.1194 1.50877 46.4706 6.85768 47.3297 13.65C47.768 17.0827 47.9919 20.5394 48 24C47.9977 27.4535 47.7805 30.9035 47.3497 34.33C46.4906 41.1223 41.1394 46.4712 34.3443 47.33C30.9101 47.7681 27.452 47.9919 23.99 48C20.5351 47.9977 17.0836 47.7806 13.6557 47.35C6.86054 46.4912 1.5094 41.1423 0.650261 34.35C-0.216754 27.4906 -0.216754 20.5494 0.650261 13.69C1.49248 6.88211 6.84759 1.51277 13.6557 0.64999Z" fill="#FF8787"/>
<path fill-rule="evenodd" clip-rule="evenodd" d="M29.0119 16C29.0119 13.2386 26.7724 11 24.0099 11C21.2473 11 19.0078 13.2386 19.0078 16H16.6702C15.218 16 14.059 17.211 14.1226 18.6618L14.7325 32.5618C14.7924 33.9253 15.9152 35 17.2801 35H30.7399C32.1048 35 33.2276 33.9253 33.2875 32.5618L33.8974 18.6618C33.961 17.211 32.802 16 31.3498 16H29.0119ZM24.0093 12.25C26.0813 12.25 27.7609 13.9289 27.7609 16H20.2578C20.2578 13.9289 21.9374 12.25 24.0093 12.25ZM27.0113 23C27.0113 24.2573 26.2376 25.3339 25.1401 25.7801L26.0105 31H22.0088L22.8792 25.7797C21.7821 25.3334 21.0088 24.257 21.0088 23C21.0088 21.3431 22.3525 20 24.01 20C25.6676 20 27.0113 21.3431 27.0113 23Z" fill="url(#paint0_linear)"/>
<defs>
<linearGradient id="paint0_linear" x1="14.9846" y1="15.29" x2="14.9846" y2="37.1921" gradientUnits="userSpaceOnUse">
<stop stop-color="white"/>
<stop offset="1" stop-color="white" stop-opacity="0.01"/>
</linearGradient>
</defs>
</svg>
