<svg width="165" height="61" fill="none" xmlns="http://www.w3.org/2000/svg">
  <defs>
    <style type="text/css">
     @import url('https://fonts.googleapis.com/css2?family=Inter:wght@100;200;300;400;500;600;700;800;900');
    </style>
  </defs>
  <svg x="0" y="0" width="160">
      <svg width="21" height="21" class="rating-star" x="25" viewBox="0 0 21 21" fill="none" xmlns="http://www.w3.org/2000/svg">
  <path fill-rule="evenodd" clip-rule="evenodd" d="M11.1744 3.62005C10.8538 2.72199 9.57775 2.73944 9.28191 3.64594L8.11755 7.21369C7.98329 7.62508 7.59965 7.90344 7.1669 7.90344H3.19885C2.27097 7.90344 1.8434 9.0574 2.54726 9.662L6.05289 12.6733C6.35516 12.9329 6.47443 13.3473 6.35648 13.7279L5.12932 17.6878C4.84561 18.6033 5.8878 19.3549 6.66691 18.7967L9.81334 16.5424C10.1737 16.2842 10.661 16.2941 11.0106 16.5667L14.0593 18.9435C14.8266 19.5417 15.9097 18.8031 15.6328 17.8703L14.3927 13.6919C14.278 13.3057 14.4063 12.8884 14.7181 12.6333L18.3315 9.67744C19.0589 9.08237 18.6381 7.90344 17.6983 7.90344H13.408C12.9853 7.90344 12.6083 7.63767 12.4662 7.23958L11.1744 3.62005Z" fill="#FFE380"/>
  <mask id="mask0" mask-type="alpha" maskUnits="userSpaceOnUse" x="2" y="2" width="17" height="18">
    <path fill-rule="evenodd" clip-rule="evenodd" d="M11.1744 3.62005C10.8538 2.72199 9.57775 2.73944 9.28191 3.64594L8.11755 7.21369C7.98329 7.62508 7.59965 7.90344 7.1669 7.90344H3.19885C2.27097 7.90344 1.8434 9.0574 2.54725 9.662L6.05289 12.6733C6.35516 12.9329 6.47443 13.3473 6.35648 13.7279L5.12932 17.6878C4.84561 18.6033 5.8878 19.3549 6.66691 18.7967L9.81334 16.5424C10.1737 16.2842 10.661 16.2941 11.0106 16.5667L14.0593 18.9435C14.8266 19.5417 15.9097 18.8031 15.6328 17.8703L14.3927 13.6919C14.278 13.3057 14.4063 12.8884 14.7181 12.6333L18.3315 9.67744C19.0589 9.08236 18.6381 7.90344 17.6983 7.90344H13.408C12.9853 7.90344 12.6083 7.63767 12.4662 7.23958L11.1744 3.62005Z" fill="white"/>
  </mask>
  <g mask="url(#mask0)">
    <rect x="21" y="1.86279" width="21" height="21" rx="1" fill="#D5D8E3"/>
  </g>
</svg>

      <svg width="21" height="21" class="rating-star" x="46" viewBox="0 0 21 21" fill="none" xmlns="http://www.w3.org/2000/svg">
  <path fill-rule="evenodd" clip-rule="evenodd" d="M11.1744 3.62005C10.8538 2.72199 9.57775 2.73944 9.28191 3.64594L8.11755 7.21369C7.98329 7.62508 7.59965 7.90344 7.1669 7.90344H3.19885C2.27097 7.90344 1.8434 9.0574 2.54726 9.662L6.05289 12.6733C6.35516 12.9329 6.47443 13.3473 6.35648 13.7279L5.12932 17.6878C4.84561 18.6033 5.8878 19.3549 6.66691 18.7967L9.81334 16.5424C10.1737 16.2842 10.661 16.2941 11.0106 16.5667L14.0593 18.9435C14.8266 19.5417 15.9097 18.8031 15.6328 17.8703L14.3927 13.6919C14.278 13.3057 14.4063 12.8884 14.7181 12.6333L18.3315 9.67744C19.0589 9.08237 18.6381 7.90344 17.6983 7.90344H13.408C12.9853 7.90344 12.6083 7.63767 12.4662 7.23958L11.1744 3.62005Z" fill="#FFE380"/>
  <mask id="mask0" mask-type="alpha" maskUnits="userSpaceOnUse" x="2" y="2" width="17" height="18">
    <path fill-rule="evenodd" clip-rule="evenodd" d="M11.1744 3.62005C10.8538 2.72199 9.57775 2.73944 9.28191 3.64594L8.11755 7.21369C7.98329 7.62508 7.59965 7.90344 7.1669 7.90344H3.19885C2.27097 7.90344 1.8434 9.0574 2.54725 9.662L6.05289 12.6733C6.35516 12.9329 6.47443 13.3473 6.35648 13.7279L5.12932 17.6878C4.84561 18.6033 5.8878 19.3549 6.66691 18.7967L9.81334 16.5424C10.1737 16.2842 10.661 16.2941 11.0106 16.5667L14.0593 18.9435C14.8266 19.5417 15.9097 18.8031 15.6328 17.8703L14.3927 13.6919C14.278 13.3057 14.4063 12.8884 14.7181 12.6333L18.3315 9.67744C19.0589 9.08236 18.6381 7.90344 17.6983 7.90344H13.408C12.9853 7.90344 12.6083 7.63767 12.4662 7.23958L11.1744 3.62005Z" fill="white"/>
  </mask>
  <g mask="url(#mask0)">
    <rect x="21" y="1.86279" width="21" height="21" rx="1" fill="#D5D8E3"/>
  </g>
</svg>

      <svg width="21" height="21" class="rating-star" x="67" viewBox="0 0 21 21" fill="none" xmlns="http://www.w3.org/2000/svg">
  <path fill-rule="evenodd" clip-rule="evenodd" d="M11.1744 3.62005C10.8538 2.72199 9.57775 2.73944 9.28191 3.64594L8.11755 7.21369C7.98329 7.62508 7.59965 7.90344 7.1669 7.90344H3.19885C2.27097 7.90344 1.8434 9.0574 2.54726 9.662L6.05289 12.6733C6.35516 12.9329 6.47443 13.3473 6.35648 13.7279L5.12932 17.6878C4.84561 18.6033 5.8878 19.3549 6.66691 18.7967L9.81334 16.5424C10.1737 16.2842 10.661 16.2941 11.0106 16.5667L14.0593 18.9435C14.8266 19.5417 15.9097 18.8031 15.6328 17.8703L14.3927 13.6919C14.278 13.3057 14.4063 12.8884 14.7181 12.6333L18.3315 9.67744C19.0589 9.08237 18.6381 7.90344 17.6983 7.90344H13.408C12.9853 7.90344 12.6083 7.63767 12.4662 7.23958L11.1744 3.62005Z" fill="#FFE380"/>
  <mask id="mask0" mask-type="alpha" maskUnits="userSpaceOnUse" x="2" y="2" width="17" height="18">
    <path fill-rule="evenodd" clip-rule="evenodd" d="M11.1744 3.62005C10.8538 2.72199 9.57775 2.73944 9.28191 3.64594L8.11755 7.21369C7.98329 7.62508 7.59965 7.90344 7.1669 7.90344H3.19885C2.27097 7.90344 1.8434 9.0574 2.54725 9.662L6.05289 12.6733C6.35516 12.9329 6.47443 13.3473 6.35648 13.7279L5.12932 17.6878C4.84561 18.6033 5.8878 19.3549 6.66691 18.7967L9.81334 16.5424C10.1737 16.2842 10.661 16.2941 11.0106 16.5667L14.0593 18.9435C14.8266 19.5417 15.9097 18.8031 15.6328 17.8703L14.3927 13.6919C14.278 13.3057 14.4063 12.8884 14.7181 12.6333L18.3315 9.67744C19.0589 9.08236 18.6381 7.90344 17.6983 7.90344H13.408C12.9853 7.90344 12.6083 7.63767 12.4662 7.23958L11.1744 3.62005Z" fill="white"/>
  </mask>
  <g mask="url(#mask0)">
    <rect x="21" y="1.86279" width="21" height="21" rx="1" fill="#D5D8E3"/>
  </g>
</svg>

      <svg width="21" height="21" class="rating-star" x="88" viewBox="0 0 21 21" fill="none" xmlns="http://www.w3.org/2000/svg">
  <path fill-rule="evenodd" clip-rule="evenodd" d="M11.1744 3.62005C10.8538 2.72199 9.57775 2.73944 9.28191 3.64594L8.11755 7.21369C7.98329 7.62508 7.59965 7.90344 7.1669 7.90344H3.19885C2.27097 7.90344 1.8434 9.0574 2.54726 9.662L6.05289 12.6733C6.35516 12.9329 6.47443 13.3473 6.35648 13.7279L5.12932 17.6878C4.84561 18.6033 5.8878 19.3549 6.66691 18.7967L9.81334 16.5424C10.1737 16.2842 10.661 16.2941 11.0106 16.5667L14.0593 18.9435C14.8266 19.5417 15.9097 18.8031 15.6328 17.8703L14.3927 13.6919C14.278 13.3057 14.4063 12.8884 14.7181 12.6333L18.3315 9.67744C19.0589 9.08237 18.6381 7.90344 17.6983 7.90344H13.408C12.9853 7.90344 12.6083 7.63767 12.4662 7.23958L11.1744 3.62005Z" fill="#FFE380"/>
  <mask id="mask0" mask-type="alpha" maskUnits="userSpaceOnUse" x="2" y="2" width="17" height="18">
    <path fill-rule="evenodd" clip-rule="evenodd" d="M11.1744 3.62005C10.8538 2.72199 9.57775 2.73944 9.28191 3.64594L8.11755 7.21369C7.98329 7.62508 7.59965 7.90344 7.1669 7.90344H3.19885C2.27097 7.90344 1.8434 9.0574 2.54725 9.662L6.05289 12.6733C6.35516 12.9329 6.47443 13.3473 6.35648 13.7279L5.12932 17.6878C4.84561 18.6033 5.8878 19.3549 6.66691 18.7967L9.81334 16.5424C10.1737 16.2842 10.661 16.2941 11.0106 16.5667L14.0593 18.9435C14.8266 19.5417 15.9097 18.8031 15.6328 17.8703L14.3927 13.6919C14.278 13.3057 14.4063 12.8884 14.7181 12.6333L18.3315 9.67744C19.0589 9.08236 18.6381 7.90344 17.6983 7.90344H13.408C12.9853 7.90344 12.6083 7.63767 12.4662 7.23958L11.1744 3.62005Z" fill="white"/>
  </mask>
  <g mask="url(#mask0)">
    <rect x="21" y="1.86279" width="21" height="21" rx="1" fill="#D5D8E3"/>
  </g>
</svg>

      <svg width="21" height="21" class="rating-star" x="109" viewBox="0 0 21 21" fill="none" xmlns="http://www.w3.org/2000/svg">
  <path fill-rule="evenodd" clip-rule="evenodd" d="M11.1744 3.62005C10.8538 2.72199 9.57775 2.73944 9.28191 3.64594L8.11755 7.21369C7.98329 7.62508 7.59965 7.90344 7.1669 7.90344H3.19885C2.27097 7.90344 1.8434 9.0574 2.54726 9.662L6.05289 12.6733C6.35516 12.9329 6.47443 13.3473 6.35648 13.7279L5.12932 17.6878C4.84561 18.6033 5.8878 19.3549 6.66691 18.7967L9.81334 16.5424C10.1737 16.2842 10.661 16.2941 11.0106 16.5667L14.0593 18.9435C14.8266 19.5417 15.9097 18.8031 15.6328 17.8703L14.3927 13.6919C14.278 13.3057 14.4063 12.8884 14.7181 12.6333L18.3315 9.67744C19.0589 9.08237 18.6381 7.90344 17.6983 7.90344H13.408C12.9853 7.90344 12.6083 7.63767 12.4662 7.23958L11.1744 3.62005Z" fill="#FFE380"/>
  <mask id="mask0" mask-type="alpha" maskUnits="userSpaceOnUse" x="2" y="2" width="17" height="18">
    <path fill-rule="evenodd" clip-rule="evenodd" d="M11.1744 3.62005C10.8538 2.72199 9.57775 2.73944 9.28191 3.64594L8.11755 7.21369C7.98329 7.62508 7.59965 7.90344 7.1669 7.90344H3.19885C2.27097 7.90344 1.8434 9.0574 2.54725 9.662L6.05289 12.6733C6.35516 12.9329 6.47443 13.3473 6.35648 13.7279L5.12932 17.6878C4.84561 18.6033 5.8878 19.3549 6.66691 18.7967L9.81334 16.5424C10.1737 16.2842 10.661 16.2941 11.0106 16.5667L14.0593 18.9435C14.8266 19.5417 15.9097 18.8031 15.6328 17.8703L14.3927 13.6919C14.278 13.3057 14.4063 12.8884 14.7181 12.6333L18.3315 9.67744C19.0589 9.08236 18.6381 7.90344 17.6983 7.90344H13.408C12.9853 7.90344 12.6083 7.63767 12.4662 7.23958L11.1744 3.62005Z" fill="white"/>
  </mask>
  <g mask="url(#mask0)">
    <rect x="14.700000000000003" y="1.86279" width="21" height="21" rx="1" fill="#D5D8E3"/>
  </g>
</svg>


    <svg class="rating-android-icon" width="15" height="17" y="26" viewBox="0 0 15 17" fill="none" xmlns="http://www.w3.org/2000/svg">
  <path d="M0.782016 1.11329C0.584093 1.35695 0.484003 1.6688 0.502084 1.98546V15.7417C0.485026 16.0583 0.584996 16.3697 0.782016 16.6139L0.827823 16.6609L8.33509 8.95238V8.76959L0.827823 1.06628L0.782016 1.11329Z" fill="url(#android_rating_0_linear)"/>
  <path d="M10.8392 11.5218L8.33513 8.95228V8.76949L10.8392 6.2052L10.8952 6.23654L13.8625 7.96521C14.7125 8.45613 14.7125 9.26563 13.8625 9.76178L10.8952 11.4905L10.8392 11.5218Z" fill="url(#android_rating_1_linear)"/>
  <path d="M10.8945 11.4906L8.3497 8.87927L0.781357 16.6139C0.955807 16.7611 1.173 16.8445 1.39875 16.8512C1.62449 16.8578 1.84597 16.7872 2.02833 16.6505L10.8793 11.4906" fill="url(#android_rating_2_linear)"/>
  <path d="M10.8945 6.23668L2.02833 1.07154C1.84793 0.929224 1.62498 0.855588 1.39755 0.863208C1.17012 0.870828 0.952322 0.959232 0.781357 1.11332L8.33444 8.86364L10.8945 6.23668Z" fill="url(#android_rating_3_linear)"/>
  <path opacity="0.1" d="M10.8386 11.433L2.02835 16.5616C1.85261 16.6959 1.6393 16.7685 1.42014 16.7685C1.20097 16.7685 0.987661 16.6959 0.81192 16.5616L0.766113 16.6086L0.81192 16.6556C0.987661 16.7899 1.20097 16.8625 1.42014 16.8625C1.6393 16.8625 1.85261 16.7899 2.02835 16.6556L10.8793 11.4957L10.8386 11.433Z" fill="black"/>
  <path opacity="0.07" d="M0.781409 16.5302C0.584528 16.2842 0.484836 15.971 0.502141 15.6528V15.7416C0.485124 16.0581 0.584857 16.3696 0.781409 16.6138L0.827107 16.5668L0.781409 16.5302Z" fill="black"/>
  <path opacity="0.07" d="M13.8626 9.66782L10.8393 11.4331L10.8953 11.4905L13.8626 9.74094C14.0366 9.6624 14.1872 9.53786 14.299 9.38004C14.4108 9.22221 14.4797 9.03677 14.4988 8.84265C14.464 9.02209 14.3883 9.19048 14.2776 9.33395C14.167 9.47742 14.0248 9.59186 13.8626 9.66782Z" fill="black"/>
  <path opacity="0.3" d="M2.02992 1.16602L13.8634 8.0546C14.024 8.12869 14.1653 8.24061 14.2759 8.38126C14.3864 8.52192 14.4631 8.68734 14.4996 8.8641C14.4816 8.66966 14.4131 8.48374 14.3012 8.32574C14.1893 8.16774 14.0381 8.04344 13.8634 7.96582L2.02992 1.07201C1.19522 0.581088 0.503021 0.988449 0.503021 1.98596V2.07475C0.503021 1.08246 1.19522 0.669872 2.02992 1.16602Z" fill="white"/>
  <defs>
    <linearGradient id="android_rating_0_linear" x1="7.67343" y1="1.83923" x2="-2.76304" y2="12.0101" gradientUnits="userSpaceOnUse">
      <stop stop-color="#008EFF"/>
      <stop offset="0.01" stop-color="#008FFF"/>
      <stop offset="0.26" stop-color="#00ACFF"/>
      <stop offset="0.51" stop-color="#00C0FF"/>
      <stop offset="0.76" stop-color="#00CDFF"/>
      <stop offset="1" stop-color="#00D1FF"/>
    </linearGradient>
    <linearGradient id="android_rating_1_linear" x1="13.9643" y1="8.86349" x2="-0.704113" y2="8.86349" gradientUnits="userSpaceOnUse">
      <stop stop-color="#FFD800"/>
      <stop offset="1" stop-color="#FF8A00"/>
    </linearGradient>
    <linearGradient id="android_rating_2_linear" x1="9.50506" y1="10.2894" x2="-4.64343" y2="24.0778" gradientUnits="userSpaceOnUse">
      <stop stop-color="#FF3A44"/>
      <stop offset="1" stop-color="#B11162"/>
    </linearGradient>
    <linearGradient id="android_rating_3_linear" x1="-1.12218" y1="-3.46689" x2="5.20013" y2="2.68944" gradientUnits="userSpaceOnUse">
      <stop stop-color="#328E71"/>
      <stop offset="0.07" stop-color="#2D9571"/>
      <stop offset="0.48" stop-color="#15BD74"/>
      <stop offset="0.8" stop-color="#06D575"/>
      <stop offset="1" stop-color="#00DE76"/>
    </linearGradient>
  </defs>
</svg>


<text x="82" y="40" text-anchor="middle" font-family="Inter" font-size="14" font-weight="300" fill="black">
  4.7 on Play Store
</text>

  </svg>
</svg>
