<?xml version="1.0" encoding="utf-8"?>
<!-- Generator: Adobe Illustrator 23.0.2, SVG Export Plug-In . SVG Version: 6.00 Build 0)  -->
<svg version="1.1" id="Capa_1" xmlns="http://www.w3.org/2000/svg" xmlns:xlink="http://www.w3.org/1999/xlink" x="0px" y="0px"
	 viewBox="0 0 260 140" style="enable-background:new 0 0 260 140;" xml:space="preserve">
<g>
	<path d="M1448.5,60.4h5.1l2.4,15h0.9l2.9-14.6h5.4l3,14.6h0.9l2.4-15h5.1l-3.7,19.4h-8.2l-2.2-11.9l-2.2,11.9h-8.2L1448.5,60.4z"/>
	<path d="M1481.1,78c-1.3-1.5-2-4-2-7.4c0-3.6,0.7-6.2,2.1-8c1.4-1.8,3.6-2.6,6.6-2.6c2.7,0,4.8,0.7,6.2,2.2
		c1.4,1.5,2.1,3.7,2.1,6.6l-0.4,3.6h-11.4c0.1,0.9,0.2,1.6,0.5,2.1c0.3,0.5,0.7,0.8,1.3,1c0.6,0.2,1.5,0.3,2.5,0.3
		c0.9,0,1.9,0,3.1-0.1c1.2-0.1,2.1-0.1,2.6-0.2l1.1-0.1l0.1,3.8c-2.9,0.7-5.6,1.1-7.9,1.1C1484.6,80.3,1482.4,79.6,1481.1,78z
		 M1491,68.4c0-1.6-0.2-2.6-0.7-3.2c-0.5-0.6-1.3-0.9-2.6-0.9c-1.2,0-2.1,0.3-2.6,0.9s-0.8,1.7-0.8,3.2L1491,68.4L1491,68.4z"/>
	<path d="M1499.8,60.4h5.2v1.1c1-0.6,1.9-1,2.6-1.2c0.8-0.2,1.6-0.3,2.5-0.3c2.4,0,4.1,0.8,5.1,2.3c1,1.5,1.5,3.9,1.5,7.1v10.5h-5.2
		V69.5c0-1.8-0.2-3.1-0.6-3.8c-0.4-0.7-1.2-1.1-2.4-1.1c-0.9,0-1.8,0.2-2.9,0.6l-0.5,0.2v14.5h-5.2V60.4z"/>
	<path d="M1520.1,74c0-2,0.5-3.5,1.6-4.4c1.1-0.9,2.8-1.4,5.2-1.6l4.2-0.3v-1.2c0-0.8-0.2-1.3-0.5-1.6c-0.3-0.3-0.9-0.5-1.8-0.5
		c-0.9,0-2,0-3.5,0.1s-2.8,0.1-3.8,0.2l-0.2-3.6c2.8-0.8,5.4-1.1,7.9-1.1c2.5,0,4.3,0.5,5.4,1.6c1.1,1,1.7,2.7,1.7,5v8.1
		c0.1,0.6,0.2,1.1,0.3,1.3c0.2,0.2,0.5,0.4,0.9,0.5l-0.2,3.9c-1.3,0-2.4-0.1-3.2-0.3c-0.8-0.2-1.6-0.5-2.3-1.1
		c-1.9,0.9-3.8,1.4-5.7,1.4C1522.1,80.3,1520.1,78.2,1520.1,74z M1530.5,75.6l0.6-0.2v-4.2l-3.5,0.3c-1.4,0.1-2.2,0.9-2.2,2.3
		c0,1.4,0.6,2.1,1.9,2.1C1528.2,76.1,1529.3,75.9,1530.5,75.6z"/>
	<path d="M1541.2,60.4h5.2v1.1c1-0.6,1.9-1,2.6-1.2s1.6-0.3,2.5-0.3c2.4,0,4.1,0.8,5.1,2.3c1,1.5,1.5,3.9,1.5,7.1v10.5h-5.2V69.5
		c0-1.8-0.2-3.1-0.6-3.8c-0.4-0.7-1.2-1.1-2.4-1.1c-0.8,0-1.8,0.2-2.9,0.6l-0.5,0.2v14.5h-5.2V60.4z"/>
	<path d="M1563.7,77.9c-1.3-1.6-1.9-4.2-1.9-7.8c0-3.6,0.7-6.2,1.9-7.8c1.3-1.6,3.4-2.4,6.3-2.4c0.8,0,1.6,0.1,2.5,0.2
		s2.1,0.3,3.7,0.7l-0.2,4.1c-2.2-0.2-3.7-0.3-4.6-0.3c-1.2,0-2.1,0.2-2.7,0.5c-0.6,0.3-1.1,0.9-1.3,1.7s-0.4,1.9-0.4,3.3
		c0,1.5,0.1,2.6,0.4,3.4c0.2,0.8,0.7,1.3,1.3,1.7c0.6,0.3,1.6,0.5,2.8,0.5l4.5-0.3l0.2,4.2c-2.8,0.5-4.9,0.8-6.5,0.8
		C1567,80.3,1564.9,79.5,1563.7,77.9z"/>
	<path d="M1581,78c-1.3-1.5-2-4-2-7.4c0-3.6,0.7-6.2,2.1-8c1.4-1.8,3.6-2.6,6.6-2.6c2.8,0,4.8,0.7,6.2,2.2s2.1,3.7,2.1,6.6l-0.4,3.6
		h-11.4c0.1,0.9,0.2,1.6,0.5,2.1c0.3,0.5,0.7,0.8,1.3,1c0.6,0.2,1.5,0.3,2.6,0.3c0.9,0,1.9,0,3.1-0.1s2.1-0.1,2.6-0.2l1.1-0.1
		l0.1,3.8c-2.9,0.7-5.6,1.1-7.8,1.1C1584.5,80.3,1582.3,79.6,1581,78z M1590.9,68.4c0-1.6-0.2-2.6-0.7-3.2s-1.3-0.9-2.5-0.9
		c-1.2,0-2.1,0.3-2.6,0.9c-0.5,0.6-0.8,1.7-0.8,3.2L1590.9,68.4L1590.9,68.4z"/>
</g>
<path id="logo-a1" d="M50.8,66.8c0.6-3,3.3-5.1,7-5.1c4.3,0,7.7,1.9,7.7,7.7v10.8h-3.7l-0.5-2.3c-1.3,1.6-3,2.7-5.6,2.7
	c-3.1,0-5.6-2-5.6-5.6s3.3-5.9,7.8-5.9h3v-0.8c0-2.1-1.5-2.7-3.3-2.7c-1.3,0-2.6,0.5-3.1,2.1L50.8,66.8z M56.7,76.7
	c2.1,0,4.2-1.4,4.2-3.7v-0.3H58c-2-0.1-3.1,0.7-3.1,2.3C54.9,75.8,55.6,76.7,56.7,76.7z"/>
<path id="logo-a2" d="M138.5,66.8c0.6-3,3.3-5.1,7-5.1c4.3,0,7.7,1.9,7.7,7.7v10.8h-3.7l-0.5-2.3c-1.3,1.6-3,2.7-5.6,2.7
	c-3.1,0-5.6-2-5.6-5.6s3.3-5.9,7.8-5.9h3v-0.8c0-2.1-1.5-2.7-3.3-2.7c-1.3,0-2.6,0.5-3.1,2.1L138.5,66.8z M144.4,76.7
	c2.1,0,4.2-1.4,4.2-3.7v-0.3h-3c-2,0-3.1,0.7-3.1,2.3C142.6,75.8,143.3,76.7,144.4,76.7z"/>
<path id="logo-r" d="M157.2,80.3V62h4.5v3c1.3-2.2,3.4-3.3,5.4-3.3c0.8,0,1.5,0.1,2.2,0.3l-0.8,4.2c-0.6-0.3-1.2-0.6-1.9-0.6
	c-2.7,0-4.9,2.2-4.9,8v6.5L157.2,80.3L157.2,80.3z"/>
<path id="logo-d" d="M179,61.7c1.9,0,3.6,0.9,4.4,2v-9.1h4.5v25.7h-4.5v-1.9c-0.6,0.9-2.2,2.2-4.4,2.2c-5.5,0-8.3-3.8-8.3-9.4
	S173.5,61.7,179,61.7z M179.7,76.7c2.3,0,4.2-2,4.2-5.6c0-3.6-1.9-5.6-4.2-5.6c-2.3,0-4.2,2-4.2,5.6
	C175.5,74.8,177.3,76.7,179.7,76.7z"/>
<path id="logo-s" d="M204.2,64.6l-2.7,2.4c-0.8-1.2-2.1-1.6-3-1.6c-0.9,0-1.7,0.6-1.7,1.5c0,0.8,0.7,1.4,1.7,1.7
	c2.6,0.9,6.6,1.7,6.6,5.6c0,3.4-2.6,6-6.5,6c-3.8,0-6.4-2.7-7.2-4.9l3.6-2c0.7,1.7,1.9,3,3.7,3c1.4,0,2.3-0.7,2.3-2
	c0-1.5-2.3-1.9-4.5-2.8c-2-0.8-3.7-2.1-3.7-4.9s2.3-5.4,5.8-5.4C200.9,61.6,203.2,62.9,204.2,64.6z"/>
<polygon id="logo-w2" points="110.5,62 107.2,74.6 104.1,62 99.9,62 96.9,74.6 94.3,67.3 93.9,68.1 92.6,72.9 94.9,80.3 98.8,80.3 
	102,68.5 105.1,80.3 109.2,80.3 115,62 "/>
<polygon id="logo-w3" points="132.2,62 129,74.6 125.8,62 121.6,62 118.6,74.6 116,67.3 115.7,68.1 114.2,72.9 116.6,80.3 
	120.6,80.3 123.7,68.5 126.9,80.3 130.8,80.3 136.7,62 "/>
<path id="logo-w1" d="M93.2,62l-5.8,18.3h-4l-3.1-11.7l-3.1,11.9h-4l-5.8-18.3H72l3.3,12.6l3.1-12.6h4.2l3.1,12.6l3.3-12.6L93.2,62
	L93.2,62z"/>
<path id="logo-p" d="M211.1,74.4c1.7,0,3,1.3,3,3s-1.3,3-3,3c-1.7,0-3-1.3-3-3S209.3,74.4,211.1,74.4z"/>
</svg>
