<svg width="48" height="48" viewBox="0 0 48 48" fill="none" xmlns="http://www.w3.org/2000/svg">
<path fill-rule="evenodd" clip-rule="evenodd" d="M13.6557 0.64999C20.5179 -0.216663 27.462 -0.216663 34.3243 0.64999C41.1194 1.50877 46.4706 6.85768 47.3297 13.65C47.768 17.0827 47.9919 20.5394 48 24C47.9977 27.4535 47.7805 30.9035 47.3497 34.33C46.4906 41.1223 41.1395 46.4712 34.3443 47.33C30.9101 47.7681 27.452 47.9919 23.99 48C20.5351 47.9977 17.0836 47.7806 13.6557 47.35C6.86054 46.4912 1.5094 41.1423 0.650261 34.35C-0.216754 27.4906 -0.216754 20.5494 0.650261 13.69C1.49248 6.88211 6.84759 1.51277 13.6557 0.64999Z" fill="#6B5AED"/>
<path d="M29.87 15H14.63C13.7282 15.0055 13 15.7381 13 16.64V23.84C13 24.7419 13.7282 25.4745 14.63 25.48H16.22V27.97L19.8 25.48H29.87C30.7735 25.4745 31.5045 24.7435 31.51 23.84V16.64C31.5045 15.7365 30.7735 15.0055 29.87 15Z" fill="url(#paint0_linear)"/>
<path d="M23.47 21.18H33.81C34.2441 21.18 34.6602 21.3531 34.9662 21.6609C35.2721 21.9688 35.4427 22.386 35.44 22.82V29.08C35.4427 29.514 35.2721 29.9312 34.9662 30.239C34.6602 30.5469 34.2441 30.72 33.81 30.72H32.22V33.21L28.64 30.72H23.47C23.0342 30.7227 22.6155 30.5507 22.3074 30.2426C21.9993 29.9345 21.8273 29.5158 21.83 29.08V22.82C21.8273 22.3842 21.9993 21.9655 22.3074 21.6574C22.6155 21.3492 23.0342 21.1773 23.47 21.18Z" fill="white"/>
<defs>
<linearGradient id="paint0_linear" x1="11.9" y1="24.5807" x2="28.2913" y2="12.6267" gradientUnits="userSpaceOnUse">
<stop stop-color="white"/>
<stop offset="1" stop-color="white" stop-opacity="0"/>
</linearGradient>
</defs>
</svg>
