<?xml version="1.0" encoding="utf-8"?>
<!-- Generator: Adobe Illustrator 23.0.2, SVG Export Plug-In . SVG Version: 6.00 Build 0)  -->
<svg version="1.1" id="Capa_1" xmlns="http://www.w3.org/2000/svg" xmlns:xlink="http://www.w3.org/1999/xlink" x="0px" y="0px"
	 viewBox="0 0 260 140" style="enable-background:new 0 0 260 140;" xml:space="preserve">
<g>
	<path d="M1448.5,60.4h5.1l2.4,15h0.9l2.9-14.6h5.4l3,14.6h0.9l2.4-15h5.1l-3.7,19.4h-8.2l-2.2-11.9l-2.2,11.9h-8.2L1448.5,60.4z"/>
	<path d="M1481.1,78c-1.3-1.5-2-4-2-7.4c0-3.6,0.7-6.2,2.1-8c1.4-1.8,3.6-2.6,6.6-2.6c2.7,0,4.8,0.7,6.2,2.2
		c1.4,1.5,2.1,3.7,2.1,6.6l-0.4,3.6h-11.4c0.1,0.9,0.2,1.6,0.5,2.1c0.3,0.5,0.7,0.8,1.3,1c0.6,0.2,1.5,0.3,2.5,0.3
		c0.9,0,1.9,0,3.1-0.1c1.2-0.1,2.1-0.1,2.6-0.2l1.1-0.1l0.1,3.8c-2.9,0.7-5.6,1.1-7.9,1.1C1484.6,80.3,1482.4,79.6,1481.1,78z
		 M1491,68.4c0-1.6-0.2-2.6-0.7-3.2c-0.5-0.6-1.3-0.9-2.6-0.9c-1.2,0-2.1,0.3-2.6,0.9s-0.8,1.7-0.8,3.2L1491,68.4L1491,68.4z"/>
	<path d="M1499.8,60.4h5.2v1.1c1-0.6,1.9-1,2.6-1.2c0.8-0.2,1.6-0.3,2.5-0.3c2.4,0,4.1,0.8,5.1,2.3c1,1.5,1.5,3.9,1.5,7.1v10.5h-5.2
		V69.5c0-1.8-0.2-3.1-0.6-3.8c-0.4-0.7-1.2-1.1-2.4-1.1c-0.9,0-1.8,0.2-2.9,0.6l-0.5,0.2v14.5h-5.2V60.4z"/>
	<path d="M1520.1,74c0-2,0.5-3.5,1.6-4.4c1.1-0.9,2.8-1.4,5.2-1.6l4.2-0.3v-1.2c0-0.8-0.2-1.3-0.5-1.6c-0.3-0.3-0.9-0.5-1.8-0.5
		c-0.9,0-2,0-3.5,0.1s-2.8,0.1-3.8,0.2l-0.2-3.6c2.8-0.8,5.4-1.1,7.9-1.1c2.5,0,4.3,0.5,5.4,1.6c1.1,1,1.7,2.7,1.7,5v8.1
		c0.1,0.6,0.2,1.1,0.3,1.3c0.2,0.2,0.5,0.4,0.9,0.5l-0.2,3.9c-1.3,0-2.4-0.1-3.2-0.3c-0.8-0.2-1.6-0.5-2.3-1.1
		c-1.9,0.9-3.8,1.4-5.7,1.4C1522.1,80.3,1520.1,78.2,1520.1,74z M1530.5,75.6l0.6-0.2v-4.2l-3.5,0.3c-1.4,0.1-2.2,0.9-2.2,2.3
		c0,1.4,0.6,2.1,1.9,2.1C1528.2,76.1,1529.3,75.9,1530.5,75.6z"/>
	<path d="M1541.2,60.4h5.2v1.1c1-0.6,1.9-1,2.6-1.2s1.6-0.3,2.5-0.3c2.4,0,4.1,0.8,5.1,2.3c1,1.5,1.5,3.9,1.5,7.1v10.5h-5.2V69.5
		c0-1.8-0.2-3.1-0.6-3.8c-0.4-0.7-1.2-1.1-2.4-1.1c-0.8,0-1.8,0.2-2.9,0.6l-0.5,0.2v14.5h-5.2V60.4z"/>
	<path d="M1563.7,77.9c-1.3-1.6-1.9-4.2-1.9-7.8c0-3.6,0.7-6.2,1.9-7.8c1.3-1.6,3.4-2.4,6.3-2.4c0.8,0,1.6,0.1,2.5,0.2
		s2.1,0.3,3.7,0.7l-0.2,4.1c-2.2-0.2-3.7-0.3-4.6-0.3c-1.2,0-2.1,0.2-2.7,0.5c-0.6,0.3-1.1,0.9-1.3,1.7s-0.4,1.9-0.4,3.3
		c0,1.5,0.1,2.6,0.4,3.4c0.2,0.8,0.7,1.3,1.3,1.7c0.6,0.3,1.6,0.5,2.8,0.5l4.5-0.3l0.2,4.2c-2.8,0.5-4.9,0.8-6.5,0.8
		C1567,80.3,1564.9,79.5,1563.7,77.9z"/>
	<path d="M1581,78c-1.3-1.5-2-4-2-7.4c0-3.6,0.7-6.2,2.1-8c1.4-1.8,3.6-2.6,6.6-2.6c2.8,0,4.8,0.7,6.2,2.2s2.1,3.7,2.1,6.6l-0.4,3.6
		h-11.4c0.1,0.9,0.2,1.6,0.5,2.1c0.3,0.5,0.7,0.8,1.3,1c0.6,0.2,1.5,0.3,2.6,0.3c0.9,0,1.9,0,3.1-0.1s2.1-0.1,2.6-0.2l1.1-0.1
		l0.1,3.8c-2.9,0.7-5.6,1.1-7.8,1.1C1584.5,80.3,1582.3,79.6,1581,78z M1590.9,68.4c0-1.6-0.2-2.6-0.7-3.2s-1.3-0.9-2.5-0.9
		c-1.2,0-2.1,0.3-2.6,0.9c-0.5,0.6-0.8,1.7-0.8,3.2L1590.9,68.4L1590.9,68.4z"/>
</g>
<g>
	<path d="M176.2,75.6c0,0-0.1,0-0.1,0c-2.1,0-3.9-1.7-3.9-3.9c0-2.1,1.7-3.9,3.9-3.9c0.6,0,1.2,0.1,1.7,0.4l0.2,0.1l-0.2,0.3
		l-0.2-0.1c-0.5-0.2-1-0.4-1.6-0.4c-1.9,0-3.5,1.6-3.5,3.5c0,1.9,1.6,3.5,3.5,3.5c0.2,0,0.5,0,0.7-0.1L176.2,75.6z"/>
	<path d="M85.5,75.6c-2.1,0-3.9-1.7-3.9-3.9c0-2.1,1.7-3.9,3.9-3.9c2.1,0,3.9,1.7,3.9,3.9C89.3,73.9,87.6,75.6,85.5,75.6 M85.5,68.3
		c-1.9,0-3.5,1.6-3.5,3.5c0,1.9,1.6,3.5,3.5,3.5c1.9,0,3.5-1.6,3.5-3.5C88.9,69.9,87.4,68.3,85.5,68.3"/>
	<polyline points="88.9,62.1 89.3,62.1 89.3,81.5 88.9,81.5 88.9,62.1 	"/>
	<rect x="90.4" y="62.1" width="0.4" height="19.4"/>
	<rect x="91.9" y="62.1" width="0.4" height="19.4"/>
	<rect x="93.3" y="62.1" width="0.4" height="19.4"/>
	<rect x="94.8" y="62.1" width="0.4" height="19.4"/>
	<path d="M176,77.1c-2.9,0-5.3-2.4-5.3-5.3c0-2.9,2.4-5.3,5.3-5.3c1.1,0,2.1,0.3,3,0.9l0.2,0.1l-0.2,0.3l-0.2-0.1
		c-0.8-0.6-1.8-0.9-2.8-0.9c-2.7,0-5,2.2-5,5c0,2.7,2.2,5,5,5c1.5,0,3-0.7,3.9-1.9l0.1-0.1l0.3,0.2l-0.1,0.1
		C179.2,76.4,177.7,77.1,176,77.1"/>
	<path d="M176,78.6c-3.7,0-6.8-3-6.8-6.8c0-3.7,3-6.8,6.8-6.8c1.5,0,3,0.5,4.2,1.5l0.1,0.1l-0.2,0.3l-0.1-0.1
		c-1.1-0.9-2.5-1.4-4-1.4c-3.5,0-6.4,2.9-6.4,6.4c0,3.5,2.9,6.4,6.4,6.4c2,0,3.8-0.9,5.1-2.5l0.1-0.1l0.3,0.2l-0.1,0.1
		C180.1,77.6,178.1,78.6,176,78.6"/>
	<path d="M176,80c-4.5,0-8.3-3.7-8.3-8.3c0-4.5,3.7-8.3,8.3-8.3c2,0,3.9,0.7,5.4,2l0.1,0.1l-0.2,0.3l-0.1-0.1
		c-1.4-1.2-3.3-1.9-5.2-1.9c-4.3,0-7.9,3.5-7.9,7.9c0,4.3,3.5,7.9,7.9,7.9c2.4,0,4.7-1.1,6.2-3l0.1-0.1l0.3,0.2l-0.1,0.1
		C181,78.9,178.6,80,176,80"/>
	<path d="M182.3,64.8c-1.7-1.5-3.9-2.4-6.2-2.4c-5.2,0-9.4,4.2-9.4,9.4c0,5.2,4.2,9.4,9.4,9.4c2.9,0,5.6-1.3,7.4-3.6l0.1-0.1
		l0.3,0.2l-0.1,0.1c-1.9,2.4-4.6,3.7-7.7,3.7c-5.4,0-9.7-4.4-9.7-9.7c0-5.4,4.4-9.7,9.7-9.7c2.5,0,4.8,0.9,6.6,2.6l0.1,0.1
		l-10.3,8.1l-0.2-0.3L182.3,64.8"/>
	<rect x="42.7" y="54.7" width="0.4" height="26.8"/>
	<rect x="44.2" y="54.7" width="0.4" height="26.8"/>
	<rect x="45.7" y="54.7" width="0.4" height="26.8"/>
	<rect x="47.1" y="54.7" width="0.4" height="26.8"/>
	<rect x="48.6" y="54.7" width="0.4" height="26.8"/>
	<polyline points="68.4,62.1 68.8,62.1 68.8,81.5 68.4,81.5 68.4,62.1 	"/>
	<rect x="66.9" y="62.1" width="0.4" height="19.4"/>
	<rect x="65.5" y="62.1" width="0.4" height="19.4"/>
	<rect x="64" y="62.1" width="0.4" height="19.4"/>
	<rect x="62.5" y="62.1" width="0.4" height="19.4"/>
	<polyline points="183.6,65.7 183.8,66 173.2,74.3 173,74 183.6,65.7 	"/>
	<polyline points="184.4,66.9 184.6,67.2 174.3,75.2 174.1,74.9 184.4,66.9 	"/>
	<path d="M85.5,77.1c-2.9,0-5.3-2.4-5.3-5.3c0-2.9,2.4-5.3,5.3-5.3c1.4,0,2.8,0.6,3.8,1.6L89,68.3c-0.9-0.9-2.2-1.4-3.5-1.4
		c-2.7,0-5,2.2-5,5c0,2.7,2.2,5,5,5c1.3,0,2.6-0.5,3.5-1.5l0.3,0.3C88.2,76.5,86.9,77.1,85.5,77.1"/>
	<path d="M85.5,78.6c-3.7,0-6.8-3-6.8-6.8c0-3.7,3-6.8,6.8-6.8c1.3,0,2.7,0.4,3.8,1.1L89,66.4c-1.1-0.7-2.3-1.1-3.6-1.1
		c-3.5,0-6.4,2.9-6.4,6.4c0,3.5,2.9,6.4,6.4,6.4c1.3,0,2.5-0.4,3.6-1.1l0.2,0.3C88.1,78.2,86.8,78.6,85.5,78.6"/>
	<path d="M85.5,80c-4.5,0-8.3-3.7-8.3-8.3c0-4.5,3.7-8.3,8.3-8.3c1.3,0,2.6,0.3,3.8,0.9L89,64.8c-1.1-0.6-2.3-0.9-3.6-0.9
		c-4.3,0-7.9,3.5-7.9,7.9c0,4.3,3.5,7.9,7.9,7.9c1.3,0,2.5-0.3,3.6-0.9l0.2,0.3C88,79.7,86.8,80,85.5,80"/>
	<path d="M85.5,81.5c-5.4,0-9.7-4.4-9.7-9.7c0-5.4,4.4-9.7,9.7-9.7c1.3,0,2.6,0.3,3.7,0.7l-0.1,0.3c-1.1-0.5-2.4-0.7-3.6-0.7
		c-5.2,0-9.3,4.2-9.3,9.4c0,5.2,4.2,9.4,9.4,9.4c1.3,0,2.5-0.2,3.6-0.7l0.1,0.3C88,81.2,86.8,81.5,85.5,81.5"/>
	<path d="M128.7,75.6c-2.1,0-3.9-1.7-3.9-3.9c0-2.1,1.7-3.9,3.9-3.9c2.1,0,3.9,1.7,3.9,3.9C132.6,73.9,130.9,75.6,128.7,75.6
		 M128.7,68.3c-1.9,0-3.5,1.6-3.5,3.5c0,1.9,1.6,3.5,3.5,3.5c1.9,0,3.5-1.6,3.5-3.5C132.2,69.9,130.6,68.3,128.7,68.3"/>
	<polyline points="132.2,54.7 132.6,54.7 132.6,81.5 132.2,81.5 132.2,54.7 	"/>
	<rect x="133.7" y="54.7" width="0.4" height="26.8"/>
	<rect x="135.1" y="54.7" width="0.4" height="26.8"/>
	<rect x="136.6" y="54.7" width="0.4" height="26.8"/>
	<rect x="138.1" y="54.7" width="0.4" height="26.8"/>
	<path d="M128.7,77.1c-2.9,0-5.3-2.4-5.3-5.3c0-2.9,2.4-5.3,5.3-5.3c1.4,0,2.8,0.6,3.8,1.6l-0.3,0.3c-0.9-0.9-2.2-1.4-3.5-1.4
		c-2.7,0-5,2.2-5,5c0,2.7,2.2,5,5,5c1.3,0,2.6-0.5,3.5-1.5l0.3,0.3C131.5,76.5,130.2,77.1,128.7,77.1"/>
	<path d="M128.7,78.6c-3.7,0-6.8-3-6.8-6.8c0-3.7,3-6.8,6.8-6.8c1.3,0,2.7,0.4,3.8,1.1l-0.2,0.3c-1.1-0.7-2.3-1.1-3.6-1.1
		c-3.5,0-6.4,2.9-6.4,6.4c0,3.5,2.9,6.4,6.4,6.4c1.3,0,2.5-0.4,3.6-1.1l0.2,0.3C131.4,78.2,130.1,78.6,128.7,78.6"/>
	<path d="M128.7,80c-4.5,0-8.3-3.7-8.3-8.3c0-4.5,3.7-8.3,8.3-8.3c1.3,0,2.6,0.3,3.8,0.9l-0.2,0.3c-1.1-0.6-2.3-0.9-3.6-0.9
		c-4.3,0-7.9,3.5-7.9,7.9c0,4.3,3.5,7.9,7.9,7.9c1.3,0,2.5-0.3,3.6-0.9l0.2,0.3C131.3,79.7,130,80,128.7,80"/>
	<path d="M128.7,81.5c-5.4,0-9.7-4.4-9.7-9.7c0-5.4,4.4-9.7,9.7-9.7c1.3,0,2.6,0.3,3.7,0.7l-0.1,0.3c-1.1-0.5-2.4-0.7-3.6-0.7
		c-5.2,0-9.3,4.2-9.3,9.4c0,5.2,4.2,9.4,9.4,9.4c1.3,0,2.5-0.2,3.6-0.7l0.1,0.3C131.3,81.2,130,81.5,128.7,81.5"/>
	<polyline points="103.6,62.1 104,62.1 104,81.5 103.6,81.5 103.6,62.1 	"/>
	<rect x="102.1" y="62.1" width="0.4" height="19.4"/>
	<rect x="100.7" y="62.1" width="0.4" height="19.4"/>
	<rect x="99.2" y="62.1" width="0.4" height="19.4"/>
	<rect x="97.7" y="62.1" width="0.4" height="19.4"/>
	<path d="M111.3,81.3h-0.4v-9.5c0-1.9-1.6-3.5-3.5-3.5s-3.5,1.6-3.5,3.5h-0.4c0-2.1,1.7-3.9,3.9-3.9c2.1,0,3.9,1.7,3.9,3.9V81.3"/>
	<path d="M112.8,81.3h-0.4v-9.5c0-2.7-2.2-5-5-5c-1.3,0-2.6,0.5-3.5,1.5l-0.3-0.3c1-1,2.4-1.6,3.8-1.6c2.9,0,5.3,2.4,5.3,5.3V81.3"
		/>
	<path d="M114.2,81.3h-0.4v-9.5c0-3.5-2.9-6.4-6.4-6.4c-1.3,0-2.5,0.4-3.6,1.1l-0.2-0.3c1.1-0.8,2.4-1.2,3.8-1.2
		c3.7,0,6.8,3,6.8,6.8V81.3"/>
	<path d="M115.7,81.3h-0.4v-9.5c0-4.3-3.5-7.9-7.9-7.9c-1.3,0-2.5,0.3-3.6,0.9l-0.2-0.3c1.2-0.6,2.4-0.9,3.8-0.9
		c4.5,0,8.3,3.7,8.3,8.3V81.3"/>
	<path d="M117.2,81.3h-0.4v-9.5c0-5.2-4.2-9.4-9.3-9.4c-1.3,0-2.5,0.2-3.6,0.7l-0.1-0.3c1.2-0.5,2.5-0.8,3.8-0.8
		c5.4,0,9.7,4.4,9.7,9.7V81.3"/>
	<polyline points="164.5,80.6 163.4,78.6 163.4,54.7 163,54.7 163,78 161.9,76 161.9,54.7 161.5,54.7 161.5,75.3 160.4,73.4 
		160.4,54.7 160.1,54.7 160.1,72.7 159,70.7 159,54.7 158.6,54.7 158.6,70.1 150.1,54.7 149.7,54.7 164.6,81.5 164.8,81.5 
		164.8,54.7 164.5,54.7 164.5,80.6 	"/>
	<polygon points="160.6,81.5 145.7,54.7 145.3,54.7 160.2,81.5 	"/>
	<polygon points="163.5,81.5 148.6,54.7 148.2,54.7 163.1,81.5 	"/>
	<polygon points="162,81.5 147.2,54.7 146.8,54.7 161.6,81.5 	"/>
	<path d="M72.3,68.3c1,0,1.8,0.4,2.5,1c0-0.1,0.1-0.3,0.1-0.4c-0.7-0.6-1.6-1-2.6-1c-2.1,0-3.9,1.7-3.9,3.9h0.4
		C68.8,69.9,70.3,68.3,72.3,68.3"/>
	<path d="M68.5,64.4l0.2,0.3c1.1-0.6,2.3-0.9,3.6-0.9c1.6,0,3.1,0.5,4.4,1.3c0.1-0.1,0.2-0.2,0.2-0.3c-1.3-0.9-2.9-1.4-4.6-1.4
		C70.9,63.5,69.7,63.8,68.5,64.4"/>
	<path d="M72.3,62.4c2,0,3.8,0.6,5.3,1.7c0.1-0.1,0.2-0.2,0.3-0.3c-1.6-1.1-3.5-1.8-5.6-1.8c-1.3,0-2.6,0.3-3.8,0.8l0.1,0.3
		C69.8,62.7,71,62.4,72.3,62.4"/>
	<path d="M72.3,66.8c1.1,0,2.1,0.4,2.9,1c0-0.1,0.1-0.2,0.1-0.4c-0.9-0.6-1.9-1-3.1-1c-1.4,0-2.8,0.6-3.8,1.6l0.3,0.3
		C69.7,67.4,70.9,66.8,72.3,66.8"/>
	<path d="M72.3,65.4c1.3,0,2.6,0.4,3.6,1.1c0.1-0.1,0.1-0.2,0.2-0.3c-1.1-0.7-2.4-1.1-3.8-1.1c-1.4,0-2.7,0.4-3.8,1.2l0.2,0.3
		C69.7,65.7,71,65.4,72.3,65.4"/>
	<path d="M56.3,73.3c0-2.1-1.7-3.9-3.9-3.9h-3.7v0.4h3.7c1.9,0,3.5,1.6,3.5,3.5c0,1.9-1.6,3.5-3.5,3.5h-3.7v0.4h3.7
		C54.6,77.1,56.3,75.4,56.3,73.3"/>
	<path d="M54.8,73.3c0-1.3-1.1-2.4-2.4-2.4h-3.7v0.4h3.7c1.1,0,2,0.9,2,2c0,1.1-0.9,2-2,2h-3.7v0.4h3.7
		C53.8,75.6,54.8,74.6,54.8,73.3"/>
	<path d="M57.8,73.3c0-2.9-2.4-5.3-5.3-5.3h-3.7v0.4h3.7c2.7,0,5,2.2,5,5c0,2.7-2.2,5-5,5h-3.7v0.4h3.7
		C55.4,78.6,57.8,76.2,57.8,73.3"/>
	<path d="M59.2,73.3c0-3.7-3-6.8-6.8-6.8h-3.7v0.4h3.7c3.5,0,6.4,2.9,6.4,6.4c0,3.5-2.9,6.4-6.4,6.4h-3.7V80h3.7
		C56.2,80,59.2,77,59.2,73.3"/>
	<path d="M60.7,63c0-4.5-3.7-8.3-8.3-8.3h-3.7v0.4h3.7c4.3,0,7.9,3.5,7.9,7.9c0,1.8-0.6,3.5-1.7,4.8c-0.2-0.3-0.5-0.5-0.8-0.8
		c0.9-1.2,1.4-2.6,1.4-4.1c0-3.7-3-6.8-6.8-6.8h-3.7v0.4h3.7c3.5,0,6.4,2.9,6.4,6.4c0,1.4-0.4,2.7-1.3,3.8c-0.3-0.2-0.6-0.4-0.9-0.6
		c0.7-0.9,1.1-2,1.1-3.2c0-2.9-2.4-5.3-5.3-5.3h-3.7V58h3.7c2.7,0,5,2.2,5,5c0,1.1-0.4,2.2-1,3c-0.3-0.2-0.7-0.3-1-0.5
		c0.6-0.7,1-1.6,1-2.5c0-2.1-1.7-3.9-3.9-3.9h-3.7v0.4h3.7c1.9,0,3.5,1.6,3.5,3.5c0,0.9-0.3,1.8-1,2.4c-0.4-0.1-0.9-0.2-1.4-0.3
		c0.7-0.4,1.3-1.2,1.3-2.1c0-1.3-1.1-2.4-2.4-2.4h-3.7V61h3.7c1.1,0,2,0.9,2,2c0,1.1-0.9,2-2,2h-3.7v0.4h3.7c4.3,0,7.9,3.5,7.9,7.9
		c0,4.3-3.5,7.9-7.9,7.9h-3.7v0.4h3.7c4.5,0,8.3-3.7,8.3-8.3c0-1.9-0.7-3.7-1.8-5.1C60.1,66.7,60.7,64.8,60.7,63"/>
	<polyline points="159.1,81.5 144.2,54.7 143.9,54.7 143.9,81.5 144.3,81.5 144.3,55.6 145.4,57.6 145.4,81.5 145.8,81.5 
		145.8,58.3 146.9,60.2 146.9,81.5 147.2,81.5 147.2,60.9 148.3,62.9 148.3,81.5 148.7,81.5 148.7,63.5 149.8,65.5 149.8,81.5 
		150.2,81.5 150.2,66.2 158.7,81.5 159.1,81.5 	"/>
	<polyline points="172.3,72.6 182.3,64.8 172.3,72.6 	"/>
	<polygon points="194.2,81.5 188.3,62.1 187.9,62.1 193.9,81.5 	"/>
	<polygon points="192.8,81.5 186.8,62.1 186.4,62.1 192.4,81.5 	"/>
	<polygon points="191.3,81.5 185.3,62.1 184.9,62.1 190.9,81.5 	"/>
	<polyline points="176.2,75.6 176,75.3 185,68.2 185.2,68.5 176.2,75.6 	"/>
	<polygon points="195.7,81.5 189.7,62.1 189.3,62.1 195.3,81.5 	"/>
	<polyline points="214.4,62.1 208.7,80.7 208.1,78.9 213.3,62.1 212.9,62.1 207.9,78.3 207.4,76.6 211.8,62.1 211.5,62.1 
		207.2,75.9 206.7,74.2 210.4,62.1 210,62.1 206.5,73.5 205.9,71.8 208.9,62.1 208.5,62.1 205.7,71.2 202.9,62.1 202.7,62.1 
		196.9,80.7 196.4,78.9 201.6,62.1 201.2,62.1 196.2,78.3 195.7,76.6 200.1,62.1 199.7,62.1 195.5,75.9 194.9,74.2 198.6,62.1 
		198.3,62.1 194.7,73.5 194.2,71.8 197.2,62.1 196.8,62.1 194,71.2 191.2,62.1 190.8,62.1 196.8,81.5 197.1,81.5 199.9,72.4 
		202.7,81.5 203,81.5 200.1,71.8 200.6,70 204.1,81.5 204.5,81.5 200.8,69.4 201.3,67.6 205.6,81.5 206,81.5 201.5,67 202.1,65.3 
		207.1,81.5 207.4,81.5 202.3,64.6 202.8,62.9 208.5,81.5 208.8,81.5 214.8,62.1 214.4,62.1 	"/>
	<path d="M177.4,68.2l-0.3,0.3c0.1,0,0.3,0.1,0.4,0.1l0.3-0.3C177.6,68.3,177.5,68.2,177.4,68.2"/>
	<path d="M178.7,67.2l-0.3,0.2c0.1,0.1,0.2,0.1,0.3,0.2l0.3-0.2C178.9,67.3,178.8,67.2,178.7,67.2"/>
	<path d="M179.9,66.2l-0.3,0.2c0.1,0.1,0.2,0.1,0.3,0.2l0.3-0.2C180.1,66.4,180,66.3,179.9,66.2"/>
	<path d="M181.1,65.3l-0.3,0.2c0.1,0.1,0.2,0.2,0.3,0.2l0.3-0.2C181.3,65.4,181.2,65.3,181.1,65.3"/>
	<path d="M182.3,64.3l-0.3,0.2c0.1,0.1,0.2,0.2,0.3,0.2l0,0l0,0l-4.8,3.8c0,0,0,0,0,0l5.1-4l0,0c0,0,0,0,0,0
		C182.4,64.5,182.4,64.4,182.3,64.3"/>
	<polyline points="182.3,64.8 182.3,64.8 181.4,65.5 181.1,65.7 180.2,66.4 179.9,66.7 179,67.4 178.7,67.6 177.8,68.3 177.4,68.6 
		177.4,68.6 177.4,68.6 182.3,64.8 	"/>
	<path d="M176.9,68l-0.4,0.3c0.2,0,0.3,0.1,0.5,0.1l0.3-0.3C177.2,68.1,177.1,68.1,176.9,68"/>
	<path d="M178.3,67l-0.3,0.3c0.1,0.1,0.2,0.1,0.4,0.2l0.3-0.2C178.5,67.1,178.4,67,178.3,67"/>
	<path d="M179.6,66l-0.3,0.2c0.1,0.1,0.2,0.1,0.3,0.2l0.3-0.2C179.8,66.1,179.7,66.1,179.6,66"/>
	<path d="M180.8,65l-0.3,0.2c0.1,0.1,0.2,0.1,0.3,0.2l0.3-0.2C181,65.2,180.9,65.1,180.8,65"/>
	<path d="M182,64.1l-0.3,0.2c0.1,0.1,0.2,0.2,0.3,0.2l0.3-0.2C182.2,64.3,182.1,64.2,182,64.1"/>
	<path d="M176.5,68l-0.4,0.3c0,0,0,0,0,0l0,0l0,0c0.2,0,0.4,0,0.5,0l0.4-0.3C176.8,68,176.6,68,176.5,68"/>
	<path d="M177.9,66.8l-0.3,0.3c0.1,0,0.3,0.1,0.4,0.2l0.3-0.3C178.2,66.9,178.1,66.9,177.9,66.8"/>
	<path d="M179.2,65.8l-0.3,0.2c0.1,0.1,0.2,0.1,0.4,0.2l0.3-0.2C179.5,65.9,179.3,65.9,179.2,65.8"/>
	<path d="M180.5,64.8l-0.3,0.2c0.1,0.1,0.2,0.1,0.3,0.2l0.3-0.2C180.7,65,180.6,64.9,180.5,64.8"/>
	<path d="M181.7,63.9l-0.3,0.2c0.1,0.1,0.2,0.1,0.3,0.2l0.3-0.2C181.9,64,181.8,64,181.7,63.9"/>
	<path d="M176,67.9c0,0-0.1,0-0.1,0l-0.6,0.4c0.2,0,0.5-0.1,0.7-0.1l0.4-0.3C176.3,67.9,176.2,67.9,176,67.9"/>
	<path d="M178.9,65.6l-0.3,0.3c0.1,0.1,0.3,0.1,0.4,0.2l0.3-0.2C179.1,65.7,179,65.7,178.9,65.6"/>
	<path d="M180.1,64.6l-0.3,0.2c0.1,0.1,0.2,0.1,0.3,0.2l0.3-0.2C180.4,64.8,180.2,64.7,180.1,64.6"/>
	<path d="M181.4,63.7l-0.3,0.2c0.1,0.1,0.2,0.1,0.3,0.2l0.3-0.2C181.6,63.8,181.5,63.7,181.4,63.7"/>
	<path d="M175.9,67.9c-0.2,0-0.5,0-0.7,0.1l-0.1,0.1l-0.1,0.3c0,0,0,0,0,0c0.1,0,0.2-0.1,0.3-0.1L175.9,67.9"/>
	<path d="M178.5,65.5l-0.3,0.3c0.1,0,0.3,0.1,0.4,0.2l0.3-0.3C178.7,65.6,178.6,65.5,178.5,65.5"/>
	<path d="M179.8,64.4l-0.3,0.3c0.1,0.1,0.2,0.1,0.4,0.2l0.3-0.2C180,64.6,179.9,64.5,179.8,64.4"/>
	<path d="M181,63.5l-0.3,0.2c0.1,0.1,0.2,0.1,0.3,0.2l0.3-0.2C181.2,63.6,181.1,63.5,181,63.5"/>
	<path d="M49.3,60.6H49V61h0.4V60.6 M49.3,59.1H49v0.4h0.4V59.1 M49.3,57.7H49V58h0.4V57.7 M49.3,56.2H49v0.4h0.4V56.2 M49.3,54.7
		H49v0.4h0.4V54.7"/>
	<path d="M50.1,60.6h-0.4V61h0.4V60.6 M50.1,59.1h-0.4v0.4h0.4V59.1 M50.1,57.7h-0.4V58h0.4V57.7 M50.1,56.2h-0.4v0.4h0.4V56.2
		 M50.1,54.7h-0.4v0.4h0.4V54.7"/>
	<path d="M50.4,60.6h-0.4V61h0.4V60.6 M50.4,59.1h-0.4v0.4h0.4V59.1 M50.4,57.7h-0.4V58h0.4V57.7 M50.4,56.2h-0.4v0.4h0.4V56.2
		 M50.4,54.7h-0.4v0.4h0.4V54.7"/>
	<path d="M50.8,60.6h-0.4V61h0.4V60.6 M50.8,59.1h-0.4v0.4h0.4V59.1 M50.8,57.7h-0.4V58h0.4V57.7 M50.8,56.2h-0.4v0.4h0.4V56.2
		 M50.8,54.7h-0.4v0.4h0.4V54.7"/>
	<polyline points="49.3,69.4 49,69.4 49,69.8 49.3,69.8 49.3,69.4 	"/>
	<polyline points="49.3,70.9 49,70.9 49,71.2 49.3,71.2 49.3,70.9 	"/>
	<polyline points="49.3,67.9 49,67.9 49,68.3 49.3,68.3 49.3,67.9 	"/>
	<polyline points="49.3,66.5 49,66.5 49,66.8 49.3,66.8 49.3,66.5 	"/>
	<polyline points="49.3,65 49,65 49,65.4 49.3,65.4 49.3,65 	"/>
	<polyline points="49.7,69.4 49.3,69.4 49.3,69.8 49.7,69.8 49.7,69.4 	"/>
	<polyline points="49.7,70.9 49.3,70.9 49.3,71.2 49.7,71.2 49.7,70.9 	"/>
	<polyline points="49.7,67.9 49.3,67.9 49.3,68.3 49.7,68.3 49.7,67.9 	"/>
	<polyline points="49.7,66.5 49.3,66.5 49.3,66.8 49.7,66.8 49.7,66.5 	"/>
	<polyline points="49.7,65 49.3,65 49.3,65.4 49.7,65.4 49.7,65 	"/>
	<polyline points="50.1,69.4 49.7,69.4 49.7,69.8 50.1,69.8 50.1,69.4 	"/>
	<polyline points="50.1,70.9 49.7,70.9 49.7,71.2 50.1,71.2 50.1,70.9 	"/>
	<polyline points="50.1,67.9 49.7,67.9 49.7,68.3 50.1,68.3 50.1,67.9 	"/>
	<polyline points="50.1,66.5 49.7,66.5 49.7,66.8 50.1,66.8 50.1,66.5 	"/>
	<polyline points="50.1,65 49.7,65 49.7,65.4 50.1,65.4 50.1,65 	"/>
	<polyline points="50.4,69.4 50.1,69.4 50.1,69.8 50.4,69.8 50.4,69.4 	"/>
	<polyline points="50.4,70.9 50.1,70.9 50.1,71.2 50.4,71.2 50.4,70.9 	"/>
	<polyline points="50.4,67.9 50.1,67.9 50.1,68.3 50.4,68.3 50.4,67.9 	"/>
	<polyline points="50.4,66.5 50.1,66.5 50.1,66.8 50.4,66.8 50.4,66.5 	"/>
	<polyline points="50.4,65 50.1,65 50.1,65.4 50.4,65.4 50.4,65 	"/>
	<polyline points="50.8,69.4 50.4,69.4 50.4,69.8 50.8,69.8 50.8,69.4 	"/>
	<polyline points="50.8,70.9 50.4,70.9 50.4,71.2 50.8,71.2 50.8,70.9 	"/>
	<polyline points="50.8,67.9 50.4,67.9 50.4,68.3 50.8,68.3 50.8,67.9 	"/>
	<polyline points="50.8,66.5 50.4,66.5 50.4,66.8 50.8,66.8 50.8,66.5 	"/>
	<polyline points="50.8,65 50.4,65 50.4,65.4 50.8,65.4 50.8,65 	"/>
	<polyline points="49.3,76.7 49,76.7 49,77.1 49.3,77.1 49.3,76.7 	"/>
	<polyline points="49.3,75.3 49,75.3 49,75.6 49.3,75.6 49.3,75.3 	"/>
	<polyline points="49.3,78.2 49,78.2 49,78.6 49.3,78.6 49.3,78.2 	"/>
	<polyline points="49.3,79.7 49,79.7 49,80 49.3,80 49.3,79.7 	"/>
	<polyline points="49.3,81.1 49,81.1 49,81.5 49.3,81.5 49.3,81.1 	"/>
	<polyline points="49.7,76.7 49.3,76.7 49.3,77.1 49.7,77.1 49.7,76.7 	"/>
	<polyline points="49.7,75.3 49.3,75.3 49.3,75.6 49.7,75.6 49.7,75.3 	"/>
	<polyline points="49.7,78.2 49.3,78.2 49.3,78.6 49.7,78.6 49.7,78.2 	"/>
	<polyline points="49.7,79.7 49.3,79.7 49.3,80 49.7,80 49.7,79.7 	"/>
	<polyline points="49.7,81.1 49.3,81.1 49.3,81.5 49.7,81.5 49.7,81.1 	"/>
	<polyline points="50.1,76.7 49.7,76.7 49.7,77.1 50.1,77.1 50.1,76.7 	"/>
	<polyline points="50.1,75.3 49.7,75.3 49.7,75.6 50.1,75.6 50.1,75.3 	"/>
	<polyline points="50.1,78.2 49.7,78.2 49.7,78.6 50.1,78.6 50.1,78.2 	"/>
	<polyline points="50.1,79.7 49.7,79.7 49.7,80 50.1,80 50.1,79.7 	"/>
	<polyline points="50.1,81.1 49.7,81.1 49.7,81.5 50.1,81.5 50.1,81.1 	"/>
	<polyline points="50.4,76.7 50.1,76.7 50.1,77.1 50.4,77.1 50.4,76.7 	"/>
	<polyline points="50.4,75.3 50.1,75.3 50.1,75.6 50.4,75.6 50.4,75.3 	"/>
	<polyline points="50.4,78.2 50.1,78.2 50.1,78.6 50.4,78.6 50.4,78.2 	"/>
	<polyline points="50.4,79.7 50.1,79.7 50.1,80 50.4,80 50.4,79.7 	"/>
	<polyline points="50.4,81.1 50.1,81.1 50.1,81.5 50.4,81.5 50.4,81.1 	"/>
	<polyline points="50.8,76.7 50.4,76.7 50.4,77.1 50.8,77.1 50.8,76.7 	"/>
	<polyline points="50.8,75.3 50.4,75.3 50.4,75.6 50.8,75.6 50.8,75.3 	"/>
	<polyline points="50.8,78.2 50.4,78.2 50.4,78.6 50.8,78.6 50.8,78.2 	"/>
	<polyline points="50.8,79.7 50.4,79.7 50.4,80 50.8,80 50.8,79.7 	"/>
	<polyline points="50.8,81.1 50.4,81.1 50.4,81.5 50.8,81.5 50.8,81.1 	"/>
	<path d="M58.9,67.5c-0.1,0.1-0.1,0.2-0.2,0.3c-0.1-0.1-0.1-0.1-0.2-0.2c0.1,0.2,0.3,0.3,0.4,0.5l0,0c0.1-0.1,0.1-0.2,0.2-0.3
		C59.1,67.7,59,67.6,58.9,67.5 M55.6,65.6c0.2,0.1,0.3,0.1,0.5,0.2l0,0c0.1,0.1,0.2,0.1,0.4,0.2l0.1,0c0.1,0.1,0.2,0.1,0.3,0.2
		l0.1,0c0.1,0.1,0.2,0.1,0.3,0.2l0,0c0.2,0.2,0.4,0.3,0.6,0.5c0.1-0.1,0.1-0.2,0.2-0.3c-0.1-0.1-0.2-0.2-0.3-0.2
		c-0.1,0.1-0.1,0.2-0.2,0.3c-0.3-0.2-0.6-0.4-0.9-0.6c0.1-0.1,0.1-0.2,0.2-0.3c-0.1-0.1-0.2-0.1-0.3-0.2c-0.1,0.1-0.1,0.2-0.2,0.3
		C56.1,65.9,55.9,65.7,55.6,65.6 M55.2,65.1c-0.1,0.1-0.2,0.2-0.3,0.3c-0.4-0.1-0.8-0.2-1.1-0.3c0.1,0,0.1,0,0.2,0
		c0.1,0,0.2,0,0.3,0.1c0.1,0,0.1,0,0.2,0c0.1,0,0.2,0.1,0.3,0.1c0,0,0.1,0,0.1,0c0.1,0,0.2,0.1,0.4,0.1l0.1,0c0,0,0.1,0,0.1,0
		c0.1-0.1,0.2-0.2,0.2-0.3C55.5,65.2,55.3,65.1,55.2,65.1 M53.5,64.7c-0.3,0.2-0.7,0.3-1,0.3l0,0c0,0,0,0,0,0c0,0,0,0,0,0
		c0,0,0,0,0,0c0.2,0,0.3,0,0.5,0c0,0,0.1,0,0.1,0c0.1,0,0.2,0,0.3,0c0.1,0,0.1,0,0.2,0c0.1,0,0.2,0,0.3,0c-0.1,0-0.1,0-0.2,0
		c0.2-0.1,0.3-0.2,0.4-0.3C53.9,64.8,53.7,64.7,53.5,64.7"/>
	<path d="M59.1,67.2c-0.1,0.1-0.1,0.2-0.2,0.3c0.1,0.1,0.2,0.2,0.2,0.3c0.1-0.1,0.1-0.2,0.2-0.3C59.3,67.4,59.2,67.3,59.1,67.2
		 M58,66.2c-0.1,0.1-0.1,0.2-0.2,0.3c0.1,0.1,0.2,0.2,0.3,0.2c0.1-0.1,0.1-0.2,0.2-0.3C58.2,66.4,58.1,66.3,58,66.2 M56.8,65.4
		c-0.1,0.1-0.1,0.2-0.2,0.3c0.1,0.1,0.2,0.1,0.3,0.2c0.1-0.1,0.1-0.2,0.2-0.3C57,65.5,56.9,65.4,56.8,65.4 M55.4,64.8
		c-0.1,0.1-0.1,0.2-0.2,0.3c0.1,0,0.2,0.1,0.4,0.1c0.1-0.1,0.1-0.2,0.2-0.3C55.7,64.9,55.6,64.8,55.4,64.8 M53.9,64.4
		c-0.1,0.1-0.2,0.2-0.4,0.3c0.2,0,0.3,0,0.5,0.1c0.1-0.1,0.2-0.2,0.3-0.3C54.2,64.4,54,64.4,53.9,64.4"/>
	<path d="M59.3,66.9c-0.1,0.1-0.1,0.2-0.2,0.3c0.1,0.1,0.2,0.2,0.3,0.3c0.1-0.1,0.1-0.2,0.2-0.3C59.5,67.1,59.4,67,59.3,66.9
		 M58.2,65.9c-0.1,0.1-0.1,0.2-0.2,0.3c0.1,0.1,0.2,0.2,0.3,0.2c0.1-0.1,0.1-0.2,0.2-0.3C58.4,66,58.3,65.9,58.2,65.9 M57,65.1
		c-0.1,0.1-0.1,0.2-0.2,0.3c0.1,0.1,0.2,0.1,0.3,0.2c0.1-0.1,0.1-0.2,0.2-0.3C57.2,65.2,57.1,65.1,57,65.1 M55.6,64.5
		c-0.1,0.1-0.1,0.2-0.2,0.3c0.1,0,0.2,0.1,0.3,0.1c0.1-0.1,0.1-0.2,0.2-0.3C55.8,64.5,55.7,64.5,55.6,64.5 M54.2,64.1
		c-0.1,0.1-0.2,0.2-0.3,0.3c0.1,0,0.3,0,0.4,0.1c0.1-0.1,0.2-0.2,0.2-0.3C54.4,64.1,54.3,64.1,54.2,64.1"/>
	<path d="M59.5,66.6c-0.1,0.1-0.1,0.2-0.2,0.3c0.1,0.1,0.2,0.2,0.3,0.3c0.1-0.1,0.1-0.2,0.2-0.3C59.7,66.7,59.6,66.6,59.5,66.6
		 M58.3,65.5c0,0.1-0.1,0.2-0.2,0.3c0.1,0.1,0.2,0.2,0.3,0.2c0.1-0.1,0.1-0.2,0.2-0.3C58.5,65.7,58.4,65.6,58.3,65.5 M57.1,64.7
		c0,0.1-0.1,0.2-0.1,0.3c0.1,0.1,0.2,0.1,0.3,0.2c0.1-0.1,0.1-0.2,0.1-0.3C57.3,64.8,57.2,64.8,57.1,64.7 M55.8,64.1
		c0,0.1-0.1,0.2-0.1,0.3c0.1,0,0.2,0.1,0.3,0.1c0.1-0.1,0.1-0.2,0.1-0.3C56,64.2,55.9,64.2,55.8,64.1 M54.3,63.7
		c0,0.1-0.1,0.2-0.2,0.3c0.1,0,0.3,0,0.4,0.1c0.1-0.1,0.1-0.2,0.2-0.3C54.6,63.8,54.5,63.7,54.3,63.7"/>
	<path d="M59.7,66.2c-0.1,0.1-0.1,0.2-0.2,0.4c0.1,0.1,0.2,0.2,0.3,0.3c0.1-0.1,0.1-0.2,0.2-0.4C59.8,66.4,59.7,66.3,59.7,66.2
		 M58.5,65.2c0,0.1-0.1,0.2-0.1,0.4c0.1,0.1,0.2,0.2,0.3,0.2c0.1-0.1,0.1-0.2,0.1-0.4C58.7,65.3,58.6,65.3,58.5,65.2 M57.2,64.4
		c0,0.1-0.1,0.2-0.1,0.4c0.1,0.1,0.2,0.1,0.3,0.2c0-0.1,0.1-0.2,0.1-0.4C57.4,64.5,57.3,64.4,57.2,64.4 M55.9,63.8
		c0,0.1-0.1,0.2-0.1,0.4c0.1,0,0.2,0.1,0.3,0.1c0-0.1,0.1-0.2,0.1-0.4C56.1,63.8,56,63.8,55.9,63.8 M54.4,63.4
		c0,0.1-0.1,0.2-0.1,0.4c0.1,0,0.2,0.1,0.4,0.1c0-0.1,0.1-0.2,0.1-0.4C54.7,63.4,54.6,63.4,54.4,63.4"/>
	<path d="M69.1,69.5c-0.1,0.2-0.3,0.4-0.4,0.6v1.6c0,0,0,0,0,0c0,0,0,0,0,0c0,0,0,0,0,0c0,0,0,0,0,0c0,0,0,0,0,0
		c0-0.5,0.1-1.1,0.4-1.5V69.5"/>
	<path d="M69.1,64.1c-0.1,0.1-0.2,0.1-0.4,0.2v0.4c0.1-0.1,0.2-0.1,0.4-0.2V64.1"/>
	<path d="M69.1,62.6c-0.1,0-0.2,0.1-0.3,0.1c0,0,0,0,0,0v0.4c0.1,0,0.2-0.1,0.4-0.1V62.6"/>
	<path d="M69.1,67.5c-0.1,0.1-0.2,0.2-0.4,0.3v0.5c0.1-0.1,0.2-0.2,0.4-0.3V67.5"/>
	<path d="M69.1,65.8c-0.1,0.1-0.2,0.1-0.4,0.2v0.4c0.1-0.1,0.2-0.2,0.4-0.2V65.8"/>
	<path d="M69.5,69.1c-0.1,0.1-0.3,0.3-0.4,0.4v0.7c0.1-0.2,0.2-0.4,0.4-0.6V69.1"/>
	<path d="M69.5,64c-0.1,0-0.2,0.1-0.4,0.1v0.4c0.1-0.1,0.2-0.1,0.4-0.1V64"/>
	<path d="M69.5,62.5c-0.1,0-0.2,0.1-0.4,0.1V63c0.1,0,0.2-0.1,0.4-0.1V62.5"/>
	<path d="M69.5,67.2c-0.1,0.1-0.2,0.2-0.4,0.2v0.5c0.1-0.1,0.2-0.2,0.4-0.3V67.2"/>
	<path d="M69.5,65.6c-0.1,0.1-0.2,0.1-0.4,0.2v0.4c0.1-0.1,0.2-0.1,0.4-0.2V65.6"/>
	<path d="M69.9,68.8c-0.1,0.1-0.3,0.2-0.4,0.3v0.6c0.1-0.1,0.2-0.3,0.4-0.4V68.8"/>
	<path d="M69.9,63.9c-0.1,0-0.2,0.1-0.4,0.1v0.4c0.1,0,0.2-0.1,0.4-0.1V63.9"/>
	<path d="M69.9,62.4c-0.1,0-0.2,0.1-0.4,0.1v0.4c0.1,0,0.2-0.1,0.4-0.1V62.4"/>
	<path d="M69.9,67c-0.1,0.1-0.2,0.1-0.4,0.2v0.4c0.1-0.1,0.2-0.2,0.4-0.2V67"/>
	<path d="M69.9,65.4c-0.1,0-0.2,0.1-0.4,0.1V66c0.1-0.1,0.2-0.1,0.4-0.2V65.4"/>
	<path d="M70.2,68.5c-0.1,0.1-0.2,0.2-0.4,0.3v0.5c0.1-0.1,0.2-0.2,0.4-0.3V68.5"/>
	<path d="M70.2,63.8c-0.1,0-0.2,0.1-0.4,0.1v0.4c0.1,0,0.2-0.1,0.4-0.1V63.8"/>
	<path d="M70.2,62.3c-0.1,0-0.2,0.1-0.4,0.1v0.4c0.1,0,0.2-0.1,0.4-0.1V62.3"/>
	<path d="M70.2,66.9C70.1,66.9,70,67,69.9,67v0.4c0.1-0.1,0.2-0.1,0.4-0.2V66.9"/>
	<path d="M70.2,65.3c-0.1,0-0.2,0.1-0.4,0.1v0.4c0.1,0,0.2-0.1,0.4-0.1V65.3"/>
	<path d="M70.6,68.3c-0.1,0.1-0.2,0.1-0.4,0.2v0.4c0.1-0.1,0.2-0.2,0.4-0.2V68.3"/>
	<path d="M70.6,63.7c-0.1,0-0.2,0.1-0.4,0.1v0.4c0.1,0,0.2-0.1,0.4-0.1V63.7"/>
	<path d="M70.6,62.2c-0.1,0-0.2,0-0.4,0.1v0.4c0.1,0,0.2-0.1,0.4-0.1V62.2"/>
	<path d="M70.6,66.7c-0.1,0-0.2,0.1-0.4,0.1v0.4c0.1-0.1,0.2-0.1,0.4-0.1V66.7"/>
	<path d="M70.6,65.2c-0.1,0-0.2,0.1-0.4,0.1v0.4c0.1,0,0.2-0.1,0.4-0.1V65.2"/>
	<path d="M88.6,69.5v0.7c0.2,0.5,0.4,1,0.4,1.5c0,0,0,0,0,0c0,0,0,0,0,0c0,0,0,0,0,0c0,0,0,0,0,0c0,0,0,0,0,0l0,0v-1.6
		C88.8,69.9,88.7,69.7,88.6,69.5"/>
	<path d="M88.6,67.5v0.5c0.1,0.1,0.2,0.2,0.4,0.3l0,0v-0.5l0,0C88.8,67.7,88.7,67.6,88.6,67.5"/>
	<path d="M88.6,65.8v0.4c0.1,0.1,0.2,0.1,0.4,0.2l0,0V66l0,0C88.8,65.9,88.7,65.8,88.6,65.8"/>
	<path d="M88.6,64.1v0.4c0.1,0.1,0.2,0.1,0.4,0.2l0,0v-0.4l0,0C88.8,64.2,88.7,64.2,88.6,64.1"/>
	<path d="M88.6,62.6V63c0.1,0,0.2,0.1,0.4,0.1l0,0v-0.4l0,0c0,0,0,0,0,0C88.8,62.7,88.7,62.6,88.6,62.6"/>
	<path d="M88.2,69.1v0.6c0.1,0.2,0.3,0.4,0.4,0.6v-0.7C88.5,69.4,88.3,69.2,88.2,69.1"/>
	<path d="M88.2,67.2v0.4c0.1,0.1,0.2,0.2,0.4,0.3v-0.5C88.5,67.4,88.3,67.3,88.2,67.2"/>
	<path d="M88.2,65.6V66c0.1,0.1,0.2,0.1,0.4,0.2v-0.4C88.5,65.7,88.3,65.6,88.2,65.6"/>
	<path d="M88.2,64v0.4c0.1,0,0.2,0.1,0.4,0.1v-0.4C88.5,64.1,88.3,64,88.2,64"/>
	<path d="M88.2,62.5v0.4c0.1,0,0.2,0.1,0.4,0.1v-0.4l0,0C88.5,62.5,88.3,62.5,88.2,62.5"/>
	<path d="M87.8,68.8v0.5c0.1,0.1,0.3,0.3,0.4,0.4v-0.6C88.1,69,88,68.9,87.8,68.8"/>
	<path d="M87.8,67v0.4c0.1,0.1,0.2,0.1,0.4,0.2v-0.4C88.1,67.2,88,67.1,87.8,67"/>
	<path d="M87.8,65.4v0.4c0.1,0,0.2,0.1,0.4,0.2v-0.4C88.1,65.5,88,65.5,87.8,65.4"/>
	<path d="M87.8,63.9v0.4c0.1,0,0.2,0.1,0.4,0.1V64C88.1,64,88,63.9,87.8,63.9"/>
	<path d="M87.8,62.4v0.4c0.1,0,0.2,0.1,0.4,0.1v-0.4l0,0C88.1,62.4,88,62.4,87.8,62.4"/>
	<path d="M87.5,68.5v0.4c0.1,0.1,0.3,0.2,0.4,0.3v-0.5C87.7,68.7,87.6,68.6,87.5,68.5"/>
	<path d="M87.5,66.9v0.4c0.1,0.1,0.2,0.1,0.4,0.2V67C87.7,67,87.6,66.9,87.5,66.9"/>
	<path d="M87.5,65.3v0.4c0.1,0,0.2,0.1,0.4,0.1v-0.4C87.7,65.4,87.6,65.3,87.5,65.3"/>
	<path d="M87.5,63.8v0.4c0.1,0,0.2,0.1,0.4,0.1v-0.4C87.7,63.8,87.6,63.8,87.5,63.8"/>
	<path d="M87.5,62.3v0.4c0.1,0,0.2,0.1,0.4,0.1v-0.4l0,0C87.7,62.3,87.6,62.3,87.5,62.3"/>
	<path d="M87.1,68.3v0.4c0.1,0.1,0.2,0.1,0.4,0.2v-0.4C87.4,68.4,87.2,68.4,87.1,68.3"/>
	<path d="M87.1,66.7v0.4c0.1,0,0.2,0.1,0.4,0.1v-0.4C87.4,66.8,87.2,66.8,87.1,66.7"/>
	<path d="M87.1,65.2v0.4c0.1,0,0.2,0.1,0.4,0.1v-0.4C87.4,65.3,87.2,65.2,87.1,65.2"/>
	<path d="M87.1,63.7v0.4c0.1,0,0.2,0.1,0.4,0.1v-0.4C87.4,63.8,87.2,63.7,87.1,63.7"/>
	<path d="M87.1,62.2v0.4c0.1,0,0.2,0,0.4,0.1v-0.4l0,0C87.4,62.3,87.2,62.2,87.1,62.2"/>
	<path d="M88.9,71.8L88.9,71.8L88.9,71.8L88.9,71.8C88.9,71.8,88.9,71.8,88.9,71.8C88.9,71.8,88.9,71.8,88.9,71.8
		C88.9,71.8,88.9,71.8,88.9,71.8C88.9,71.8,88.9,71.8,88.9,71.8C88.9,71.8,88.9,71.8,88.9,71.8c0,0.6-0.1,1.1-0.4,1.6V74
		c0.1-0.2,0.3-0.4,0.4-0.6V71.8L88.9,71.8"/>
	<path d="M88.9,75.3L88.9,75.3c-0.1,0.1-0.2,0.2-0.4,0.3v0.5c0.1-0.1,0.2-0.2,0.4-0.3l0,0V75.3"/>
	<path d="M88.9,77.2L88.9,77.2c-0.1,0.1-0.2,0.2-0.4,0.2v0.4c0.1-0.1,0.2-0.1,0.4-0.2l0,0V77.2"/>
	<path d="M88.9,78.9L88.9,78.9c-0.1,0.1-0.2,0.1-0.4,0.2v0.4c0.1-0.1,0.2-0.1,0.4-0.2l0,0V78.9"/>
	<path d="M88.9,80.5L88.9,80.5c-0.1,0-0.2,0.1-0.4,0.1V81l0,0c0.1,0,0.2-0.1,0.3-0.1c0,0,0,0,0,0l0,0V80.5"/>
	<path d="M88.6,73.3c-0.1,0.2-0.2,0.4-0.4,0.6v0.6c0.1-0.1,0.3-0.3,0.4-0.4V73.3"/>
	<path d="M88.6,75.6c-0.1,0.1-0.2,0.2-0.4,0.3v0.4c0.1-0.1,0.2-0.2,0.4-0.2V75.6"/>
	<path d="M88.6,77.4c-0.1,0.1-0.2,0.1-0.4,0.2V78c0.1-0.1,0.2-0.1,0.4-0.2V77.4"/>
	<path d="M88.6,79c-0.1,0.1-0.2,0.1-0.4,0.1v0.4c0.1,0,0.2-0.1,0.4-0.1V79"/>
	<path d="M88.6,80.6c-0.1,0-0.2,0.1-0.4,0.1v0.4l0,0c0.1,0,0.2-0.1,0.4-0.1V80.6"/>
	<path d="M88.2,73.9c-0.1,0.1-0.2,0.3-0.4,0.4v0.5c0.1-0.1,0.3-0.2,0.4-0.3V73.9"/>
	<path d="M88.2,75.9c-0.1,0.1-0.2,0.2-0.4,0.2v0.4c0.1-0.1,0.2-0.1,0.4-0.2V75.9"/>
	<path d="M88.2,77.6c-0.1,0.1-0.2,0.1-0.4,0.2v0.4c0.1,0,0.2-0.1,0.4-0.1V77.6"/>
	<path d="M88.2,79.2c-0.1,0-0.2,0.1-0.4,0.1v0.4c0.1,0,0.2-0.1,0.4-0.1V79.2"/>
	<path d="M88.2,80.7c-0.1,0-0.2,0.1-0.4,0.1v0.4l0,0c0.1,0,0.2-0.1,0.4-0.1V80.7"/>
	<path d="M87.8,74.3c-0.1,0.1-0.2,0.2-0.4,0.3v0.4c0.1-0.1,0.2-0.2,0.4-0.3V74.3"/>
	<path d="M87.8,76.1c-0.1,0.1-0.2,0.1-0.4,0.2v0.4c0.1-0.1,0.2-0.1,0.4-0.2V76.1"/>
	<path d="M87.8,77.7c-0.1,0-0.2,0.1-0.4,0.1v0.4c0.1,0,0.2-0.1,0.4-0.1V77.7"/>
	<path d="M87.8,79.3c-0.1,0-0.2,0.1-0.4,0.1v0.4c0.1,0,0.2-0.1,0.4-0.1V79.3"/>
	<path d="M87.8,80.8c-0.1,0-0.2,0.1-0.4,0.1v0.4l0,0c0.1,0,0.2-0.1,0.4-0.1V80.8"/>
	<path d="M87.5,74.6c-0.1,0.1-0.2,0.2-0.4,0.2v0.4c0.1-0.1,0.2-0.1,0.4-0.2V74.6"/>
	<path d="M87.5,76.3c-0.1,0.1-0.2,0.1-0.4,0.1v0.4c0.1,0,0.2-0.1,0.4-0.1V76.3"/>
	<path d="M87.5,77.9c-0.1,0-0.2,0.1-0.4,0.1v0.4c0.1,0,0.2-0.1,0.4-0.1V77.9"/>
	<path d="M87.5,79.4c-0.1,0-0.2,0.1-0.4,0.1v0.4c0.1,0,0.2-0.1,0.4-0.1V79.4"/>
	<path d="M87.5,80.9c-0.1,0-0.2,0.1-0.4,0.1v0.4c0.1,0,0.2,0,0.4-0.1V80.9"/>
	<path d="M104.3,69.5c-0.1,0.2-0.3,0.4-0.4,0.6v1.6c0,0,0,0,0,0c0,0,0,0,0,0c0,0,0,0,0,0c0,0,0,0,0,0c0,0,0,0,0,0
		c0-0.5,0.1-1.1,0.4-1.5V69.5"/>
	<path d="M104.3,67.5c-0.1,0.1-0.2,0.2-0.4,0.3v0.5c0.1-0.1,0.2-0.2,0.4-0.3V67.5"/>
	<path d="M104.3,65.8c-0.1,0.1-0.2,0.1-0.4,0.2v0.4c0.1-0.1,0.2-0.2,0.4-0.2V65.8"/>
	<path d="M104.3,64.1c-0.1,0.1-0.2,0.1-0.4,0.2v0.4c0.1-0.1,0.2-0.1,0.4-0.2V64.1"/>
	<path d="M104.3,62.6c-0.1,0-0.2,0.1-0.4,0.1v0.4c0.1,0,0.2-0.1,0.4-0.1V62.6"/>
	<path d="M104.7,69.1c-0.1,0.1-0.3,0.3-0.4,0.4v0.7c0.1-0.2,0.2-0.4,0.4-0.6V69.1"/>
	<path d="M104.7,67.2c-0.1,0.1-0.2,0.2-0.4,0.2v0.5c0.1-0.1,0.2-0.2,0.4-0.3V67.2"/>
	<path d="M104.7,65.6c-0.1,0.1-0.2,0.1-0.4,0.2v0.4c0.1-0.1,0.2-0.1,0.4-0.2V65.6"/>
	<path d="M104.7,64c-0.1,0-0.2,0.1-0.4,0.1v0.4c0.1-0.1,0.2-0.1,0.4-0.1V64"/>
	<path d="M104.7,62.5c-0.1,0-0.2,0.1-0.4,0.1V63c0.1,0,0.2-0.1,0.4-0.1V62.5"/>
	<path d="M105.1,68.8c-0.1,0.1-0.3,0.2-0.4,0.3v0.6c0.1-0.1,0.2-0.3,0.4-0.4V68.8"/>
	<path d="M105.1,67c-0.1,0.1-0.2,0.1-0.4,0.2v0.4c0.1-0.1,0.2-0.2,0.4-0.2V67"/>
	<path d="M105.1,65.4c-0.1,0-0.2,0.1-0.4,0.1V66c0.1-0.1,0.2-0.1,0.4-0.2V65.4"/>
	<path d="M105.1,63.9c-0.1,0-0.2,0.1-0.4,0.1v0.4c0.1,0,0.2-0.1,0.4-0.1V63.9"/>
	<path d="M105.1,62.4c-0.1,0-0.2,0.1-0.4,0.1v0.4c0.1,0,0.2-0.1,0.4-0.1V62.4"/>
	<path d="M105.4,68.5c-0.1,0.1-0.2,0.2-0.4,0.3v0.5c0.1-0.1,0.2-0.2,0.4-0.3V68.5"/>
	<path d="M105.4,66.9c-0.1,0.1-0.2,0.1-0.4,0.2v0.4c0.1-0.1,0.2-0.1,0.4-0.2V66.9"/>
	<path d="M105.4,65.3c-0.1,0-0.2,0.1-0.4,0.1v0.4c0.1,0,0.2-0.1,0.4-0.1V65.3"/>
	<path d="M105.4,63.8c-0.1,0-0.2,0.1-0.4,0.1v0.4c0.1,0,0.2-0.1,0.4-0.1V63.8"/>
	<path d="M105.4,62.3c-0.1,0-0.2,0.1-0.4,0.1v0.4c0.1,0,0.2-0.1,0.4-0.1V62.3"/>
	<path d="M105.8,68.3c-0.1,0.1-0.2,0.1-0.4,0.2v0.4c0.1-0.1,0.2-0.2,0.4-0.2V68.3"/>
	<path d="M105.8,66.7c-0.1,0-0.2,0.1-0.4,0.1v0.4c0.1-0.1,0.2-0.1,0.4-0.1V66.7"/>
	<path d="M105.8,65.2c-0.1,0-0.2,0.1-0.4,0.1v0.4c0.1,0,0.2-0.1,0.4-0.1V65.2"/>
	<path d="M105.8,63.7c-0.1,0-0.2,0.1-0.4,0.1v0.4c0.1,0,0.2-0.1,0.4-0.1V63.7"/>
	<path d="M105.8,62.2c-0.1,0-0.2,0-0.4,0.1v0.4c0.1,0,0.2-0.1,0.4-0.1V62.2"/>
	<path d="M131.8,69.5v0.7c0.2,0.5,0.4,1,0.4,1.5c0,0,0,0,0,0c0,0,0,0,0,0c0,0,0,0,0,0c0,0,0,0,0,0c0,0,0,0,0,0l0,0v-1.6
		C132.1,69.9,132,69.7,131.8,69.5"/>
	<path d="M131.8,67.5v0.5c0.1,0.1,0.2,0.2,0.4,0.3l0,0v-0.5l0,0C132.1,67.7,132,67.6,131.8,67.5"/>
	<path d="M131.8,65.8v0.4c0.1,0.1,0.2,0.1,0.4,0.2l0,0V66l0,0C132.1,65.9,132,65.8,131.8,65.8"/>
	<path d="M131.8,64.1v0.4c0.1,0.1,0.2,0.1,0.4,0.2l0,0v-0.4l0,0C132.1,64.2,132,64.2,131.8,64.1"/>
	<path d="M131.8,62.6V63c0.1,0,0.2,0.1,0.4,0.1l0,0v-0.4l0,0c0,0,0,0,0,0C132.1,62.7,132,62.6,131.8,62.6"/>
	<path d="M131.5,69.1v0.6c0.1,0.2,0.3,0.4,0.4,0.6v-0.7C131.7,69.4,131.6,69.2,131.5,69.1"/>
	<path d="M131.5,67.2v0.4c0.1,0.1,0.2,0.2,0.4,0.3v-0.5C131.7,67.4,131.6,67.3,131.5,67.2"/>
	<path d="M131.5,65.6V66c0.1,0.1,0.2,0.1,0.4,0.2v-0.4C131.7,65.7,131.6,65.6,131.5,65.6"/>
	<path d="M131.5,64v0.4c0.1,0,0.2,0.1,0.4,0.1v-0.4C131.7,64.1,131.6,64,131.5,64"/>
	<path d="M131.5,62.5v0.4c0.1,0,0.2,0.1,0.4,0.1v-0.4l0,0C131.7,62.5,131.6,62.5,131.5,62.5"/>
	<path d="M131.1,68.8v0.5c0.1,0.1,0.3,0.3,0.4,0.4v-0.6C131.4,69,131.2,68.9,131.1,68.8"/>
	<path d="M131.1,67v0.4c0.1,0.1,0.2,0.1,0.4,0.2v-0.4C131.4,67.2,131.2,67.1,131.1,67"/>
	<path d="M131.1,65.4v0.4c0.1,0,0.2,0.1,0.4,0.2v-0.4C131.4,65.5,131.2,65.5,131.1,65.4"/>
	<path d="M131.1,63.9v0.4c0.1,0,0.2,0.1,0.4,0.1V64C131.4,64,131.2,63.9,131.1,63.9"/>
	<path d="M131.1,62.4v0.4c0.1,0,0.2,0.1,0.4,0.1v-0.4l0,0C131.4,62.4,131.2,62.4,131.1,62.4"/>
	<path d="M130.7,68.5v0.4c0.1,0.1,0.3,0.2,0.4,0.3v-0.5C131,68.7,130.9,68.6,130.7,68.5"/>
	<path d="M130.7,66.9v0.4c0.1,0.1,0.2,0.1,0.4,0.2V67C131,67,130.9,66.9,130.7,66.9"/>
	<path d="M130.7,65.3v0.4c0.1,0,0.2,0.1,0.4,0.1v-0.4C131,65.4,130.9,65.3,130.7,65.3"/>
	<path d="M130.7,63.8v0.4c0.1,0,0.2,0.1,0.4,0.1v-0.4C131,63.8,130.9,63.8,130.7,63.8"/>
	<path d="M130.7,62.3v0.4c0.1,0,0.2,0.1,0.4,0.1v-0.4l0,0C131,62.3,130.9,62.3,130.7,62.3"/>
	<path d="M130.4,68.3v0.4c0.1,0.1,0.3,0.1,0.4,0.2v-0.4C130.6,68.4,130.5,68.4,130.4,68.3"/>
	<path d="M130.4,66.7v0.4c0.1,0,0.2,0.1,0.4,0.1v-0.4C130.6,66.8,130.5,66.8,130.4,66.7"/>
	<path d="M130.4,65.2v0.4c0.1,0,0.2,0.1,0.4,0.1v-0.4C130.6,65.3,130.5,65.2,130.4,65.2"/>
	<path d="M130.4,63.7v0.4c0.1,0,0.2,0.1,0.4,0.1v-0.4C130.6,63.8,130.5,63.7,130.4,63.7"/>
	<path d="M130.4,62.2v0.4c0.1,0,0.2,0,0.4,0.1v-0.4l0,0C130.6,62.3,130.5,62.2,130.4,62.2"/>
	<path d="M132.2,71.8L132.2,71.8L132.2,71.8L132.2,71.8C132.2,71.8,132.2,71.8,132.2,71.8C132.2,71.8,132.2,71.8,132.2,71.8
		C132.2,71.8,132.2,71.8,132.2,71.8C132.2,71.8,132.2,71.8,132.2,71.8C132.2,71.8,132.2,71.8,132.2,71.8c0,0.6-0.1,1.1-0.4,1.6V74
		c0.1-0.2,0.3-0.4,0.4-0.6V71.8L132.2,71.8"/>
	<path d="M132.2,80.9L132.2,80.9L132.2,80.9L132.2,80.9 M132.2,79.3L132.2,79.3v1.2l0,0V79.3 M132.2,77.6L132.2,77.6v1.3l0,0V77.6
		 M132.2,75.8L132.2,75.8v1.4l0,0V75.8 M132.2,71.8L132.2,71.8L132.2,71.8v1.6v1.9l0,0V71.8"/>
	<path d="M132.2,75.3L132.2,75.3c-0.1,0.1-0.2,0.2-0.4,0.3v0.5c0.1-0.1,0.2-0.2,0.4-0.3l0,0V75.3"/>
	<path d="M132.2,77.2L132.2,77.2c-0.1,0.1-0.2,0.2-0.4,0.2v0.4c0.1-0.1,0.2-0.1,0.4-0.2l0,0V77.2"/>
	<path d="M132.2,78.9L132.2,78.9c-0.1,0.1-0.2,0.1-0.4,0.2v0.4c0.1-0.1,0.2-0.1,0.4-0.2l0,0V78.9"/>
	<path d="M132.2,80.5L132.2,80.5c-0.1,0-0.2,0.1-0.4,0.1V81l0,0c0.1,0,0.2-0.1,0.3-0.1c0,0,0,0,0,0l0,0V80.5"/>
	<path d="M131.8,73.3c-0.1,0.2-0.2,0.4-0.4,0.6v0.6c0.1-0.1,0.3-0.3,0.4-0.4V73.3"/>
	<path d="M131.8,75.6c-0.1,0.1-0.2,0.2-0.4,0.3v0.4c0.1-0.1,0.2-0.2,0.4-0.2V75.6"/>
	<path d="M131.8,77.4c-0.1,0.1-0.2,0.1-0.4,0.2V78c0.1-0.1,0.2-0.1,0.4-0.2V77.4"/>
	<path d="M131.8,79c-0.1,0.1-0.2,0.1-0.4,0.1v0.4c0.1,0,0.2-0.1,0.4-0.1V79"/>
	<path d="M131.8,80.6c-0.1,0-0.2,0.1-0.4,0.1v0.4l0,0c0.1,0,0.2-0.1,0.4-0.1V80.6"/>
	<path d="M131.5,73.9c-0.1,0.1-0.2,0.3-0.4,0.4v0.5c0.1-0.1,0.3-0.2,0.4-0.3V73.9"/>
	<path d="M131.5,75.9c-0.1,0.1-0.2,0.2-0.4,0.2v0.4c0.1-0.1,0.2-0.1,0.4-0.2V75.9"/>
	<path d="M131.5,77.6c-0.1,0.1-0.2,0.1-0.4,0.2v0.4c0.1,0,0.2-0.1,0.4-0.1V77.6"/>
	<path d="M131.5,79.2c-0.1,0-0.2,0.1-0.4,0.1v0.4c0.1,0,0.2-0.1,0.4-0.1V79.2"/>
	<path d="M131.5,80.7c-0.1,0-0.2,0.1-0.4,0.1v0.4l0,0c0.1,0,0.2-0.1,0.4-0.1V80.7"/>
	<path d="M131.1,74.3c-0.1,0.1-0.2,0.2-0.4,0.3v0.4c0.1-0.1,0.3-0.2,0.4-0.3V74.3"/>
	<path d="M131.1,76.1c-0.1,0.1-0.2,0.1-0.4,0.2v0.4c0.1-0.1,0.2-0.1,0.4-0.2V76.1"/>
	<path d="M131.1,77.7c-0.1,0-0.2,0.1-0.4,0.1v0.4c0.1,0,0.2-0.1,0.4-0.1V77.7"/>
	<path d="M131.1,79.3c-0.1,0-0.2,0.1-0.4,0.1v0.4c0.1,0,0.2-0.1,0.4-0.1V79.3"/>
	<path d="M131.1,80.8c-0.1,0-0.2,0.1-0.4,0.1v0.4l0,0c0.1,0,0.2-0.1,0.4-0.1V80.8"/>
	<path d="M130.7,74.6c-0.1,0.1-0.2,0.2-0.4,0.2v0.4c0.1-0.1,0.2-0.1,0.4-0.2V74.6"/>
	<path d="M130.7,76.3c-0.1,0.1-0.2,0.1-0.4,0.1v0.4c0.1,0,0.2-0.1,0.4-0.1V76.3"/>
	<path d="M130.7,77.9c-0.1,0-0.2,0.1-0.4,0.1v0.4c0.1,0,0.2-0.1,0.4-0.1V77.9"/>
	<path d="M130.7,79.4c-0.1,0-0.2,0.1-0.4,0.1v0.4c0.1,0,0.2-0.1,0.4-0.1V79.4"/>
	<path d="M130.7,80.9c-0.1,0-0.2,0.1-0.4,0.1v0.4c0.1,0,0.2,0,0.4-0.1V80.9"/>
	<path d="M149.4,64.7l0.5,0.8v0.8l0.4,0.7v-0.8L149.4,64.7 M148.3,62.9v0.8l0.4,0.7v-0.8L148.3,62.9 M146.9,60.2V61l0.4,0.7v-0.8
		l0.8,1.5L146.9,60.2 M143.9,55v0.8l0.4,0.7v-0.8l1.1,2v0.8l0.4,0.7v-0.8l0.4,0.8L143.9,55"/>
	<path d="M149.8,66.3V67l0.4,0.7v-0.8L149.8,66.3 M148.3,63.6v0.8l0.4,0.7v-0.8L148.3,63.6 M146.9,61v0.8l0.4,0.7v-0.8L146.9,61
		 M145.4,58.4v0.8l0.4,0.7V59L145.4,58.4 M143.9,55.7v0.8l0.4,0.7v-0.8L143.9,55.7"/>
	<path d="M149.8,67v0.8l0.4,0.7v-0.8L149.8,67 M148.3,64.4v0.8l0.4,0.7v-0.8L148.3,64.4 M146.9,61.8v0.8l0.4,0.7v-0.8L146.9,61.8
		 M145.4,59.1v0.8l0.4,0.7v-0.8L145.4,59.1 M143.9,56.5v0.8l0.4,0.7v-0.8L143.9,56.5"/>
	<path d="M149.8,67.8v0.8l0.4,0.7v-0.8L149.8,67.8 M148.3,65.2v0.8l0.4,0.7v-0.8L148.3,65.2 M146.9,62.5v0.8l0.4,0.7v-0.8
		L146.9,62.5 M145.4,59.9v0.8l0.4,0.7v-0.8L145.4,59.9 M143.9,57.2V58l0.4,0.7v-0.8L143.9,57.2"/>
	<path d="M149.8,68.6v0.8l0.4,0.7v-0.8L149.8,68.6 M148.3,65.9v0.8l0.4,0.7v-0.8L148.3,65.9 M146.9,63.3V64l0.4,0.7v-0.8L146.9,63.3
		 M145.4,60.6v0.8l0.4,0.7v-0.8L145.4,60.6 M143.9,58v0.8l0.4,0.7v-0.8L143.9,58"/>
	<path d="M164.5,79.9v0.8l0.4,0.7v-0.8L164.5,79.9 M163,77.2V78l0.4,0.7v-0.8L163,77.2 M161.5,74.6v0.8l0.4,0.7v-0.8L161.5,74.6
		 M160.1,71.9v0.8l0.4,0.7v-0.8L160.1,71.9 M158.6,69.3v0.8l0.4,0.7V70L158.6,69.3"/>
	<path d="M164.5,79.1v0.8l0.4,0.7v-0.8L164.5,79.1 M163,76.5v0.8l0.4,0.7v-0.8L163,76.5 M161.5,73.8v0.8l0.4,0.7v-0.8L161.5,73.8
		 M160.1,71.2v0.8l0.4,0.7v-0.8L160.1,71.2 M158.6,68.5v0.8L159,70v-0.8L158.6,68.5"/>
	<path d="M164.5,78.3v0.8l0.4,0.7V79L164.5,78.3 M163,75.7v0.8l0.4,0.7v-0.8L163,75.7 M161.5,73.1v0.8l0.4,0.7v-0.8L161.5,73.1
		 M160.1,70.4v0.8l0.4,0.7v-0.8L160.1,70.4 M158.6,67.8v0.8l0.4,0.7v-0.8L158.6,67.8"/>
	<path d="M164.5,77.6v0.8l0.4,0.7v-0.8L164.5,77.6 M163,74.9v0.8l0.4,0.7v-0.8L163,74.9 M161.5,72.3v0.8l0.4,0.7V73L161.5,72.3
		 M160.1,69.7v0.8l0.4,0.7v-0.8L160.1,69.7 M158.6,67v0.8l0.4,0.7v-0.8L158.6,67"/>
	<path d="M164.5,76.8v0.8l0.4,0.7v-0.8L164.5,76.8 M163,74.2v0.8l0.4,0.7v-0.8L163,74.2 M161.5,71.5v0.8l0.4,0.7v-0.8L161.5,71.5
		 M160.1,68.9v0.8l0.4,0.7v-0.8L160.1,68.9 M158.6,66.3V67l0.4,0.7v-0.8L158.6,66.3"/>
	<polyline points="178.5,73.8 178.5,73.8 178.3,73.9 178.5,73.8 	"/>
	<path d="M178.5,73.8l-0.1,0c-0.1,0.1-0.2,0.3-0.4,0.4l0.3-0.2L178.5,73.8"/>
	<path d="M172.9,72.1l-0.2,0.1l-0.1,0.1c0,0.1,0,0.2,0.1,0.3l0,0c0,0,0,0.1,0,0.1l0.3-0.2C173,72.4,172.9,72.3,172.9,72.1"/>
	<path d="M173.5,73.6l-0.3,0.2c0.1,0.1,0.1,0.2,0.2,0.3l0.3-0.2C173.6,73.8,173.5,73.7,173.5,73.6"/>
	<path d="M174.6,74.6l-0.3,0.2c0,0,0,0,0,0c0,0,0.1,0.1,0.1,0.1c0,0,0.1,0,0.1,0.1c0,0,0,0,0,0l0.3-0.3
		C174.8,74.7,174.7,74.6,174.6,74.6"/>
	<polyline points="172.9,72.1 172.7,72.3 172.9,72.1 172.9,72.1 	"/>
	<path d="M177.9,74.2c-0.4,0.3-0.9,0.5-1.4,0.6l-0.5,0.4c0.1,0,0.2,0,0.3,0c0.1,0,0.2,0,0.3-0.1L177.9,74.2"/>
	<path d="M173.3,71.8l-0.4,0.3c0,0.1,0,0.3,0.1,0.4l0.3-0.3C173.3,72.1,173.3,72,173.3,71.8"/>
	<path d="M173.8,73.3l-0.3,0.2c0.1,0.1,0.1,0.2,0.2,0.3l0.3-0.2C173.9,73.5,173.8,73.4,173.8,73.3"/>
	<path d="M174.9,74.3l-0.3,0.3c0.1,0.1,0.2,0.1,0.4,0.2l0.4-0.3C175.2,74.4,175,74.4,174.9,74.3"/>
	<polyline points="173.3,71.8 172.9,72.1 172.9,72.1 173.3,71.8 173.3,71.8 	"/>
	<path d="M178.4,73.8l-0.5,0l-0.2,0.1c0,0-0.1,0.1-0.1,0.1l-1.1,0.9c0.5-0.1,1-0.3,1.4-0.6l0.1-0.1
		C178.2,74.1,178.3,73.9,178.4,73.8"/>
	<path d="M173.7,71.5l-0.4,0.3c0,0.1,0,0.3,0,0.4l0.3-0.3c0-0.1,0-0.1,0-0.2l0,0l0,0C173.6,71.7,173.7,71.6,173.7,71.5"/>
	<path d="M174,73.1l-0.3,0.2c0.1,0.1,0.1,0.2,0.2,0.3l0.3-0.2C174.2,73.3,174.1,73.2,174,73.1"/>
	<path d="M175.2,74l-0.3,0.3c0.1,0.1,0.3,0.1,0.4,0.1l0.4-0.3C175.5,74.1,175.4,74.1,175.2,74"/>
	<polyline points="173.7,71.5 173.3,71.8 173.3,71.8 173.7,71.5 173.7,71.5 	"/>
	<path d="M177.8,73.9L177.8,73.9C177.7,74,177.7,73.9,177.8,73.9"/>
	<path d="M174.1,71.2l-0.4,0.3c0,0.1,0,0.2,0,0.2c0,0.1,0,0.1,0,0.2l0.4-0.3C174,71.5,174,71.4,174.1,71.2"/>
	<path d="M174.3,72.9l-0.3,0.2c0.1,0.1,0.1,0.2,0.2,0.3l0.3-0.2C174.5,73.1,174.4,73,174.3,72.9"/>
	<path d="M175.6,73.8l-0.4,0.3c0.1,0.1,0.3,0.1,0.5,0.1l0.4-0.3H176C175.9,73.8,175.7,73.8,175.6,73.8"/>
	<polyline points="174.1,71.2 173.7,71.5 173.7,71.5 174.1,71.2 174.1,71.2 	"/>
	<polyline points="173.7,71.5 173.7,71.5 173.7,71.5 173.7,71.5 	"/>
	<path d="M175.1,70.5l-1,0.7c-0.1,0.2-0.1,0.3-0.1,0.5l0.4-0.3C174.5,71,174.7,70.7,175.1,70.5L175.1,70.5"/>
	<path d="M174.6,72.7l-0.3,0.2c0.1,0.1,0.1,0.2,0.2,0.3l0.3-0.2C174.8,72.9,174.7,72.8,174.6,72.7"/>
	<path d="M175.9,73.5l-0.3,0.3c0.1,0,0.3,0,0.4,0L175.9,73.5"/>
	<polyline points="175.1,70.5 174.1,71.2 174.1,71.2 175.1,70.5 	"/>
	<polyline points="174.1,71.2 174.1,71.2 174.1,71.2 174.1,71.2 	"/>
</g>
</svg>
