<svg width="100" height="100" viewBox="0 0 100 100" fill="none" xmlns="http://www.w3.org/2000/svg">
<path fill-rule="evenodd" clip-rule="evenodd" d="M40.8041 86.8623C61.1659 91.9388 81.7867 79.5498 86.8626 59.1927C91.9385 38.8344 79.5492 18.2125 59.1885 13.1371C38.8326 8.06181 18.2118 20.4521 13.1383 40.8115C8.06 61.1675 20.4505 81.787 40.8041 86.8623ZM67.8438 36.3871C68.7722 35.4958 68.8023 34.0206 67.911 33.0922C67.0197 32.1637 65.5445 32.1336 64.6161 33.0249L35.4866 60.9892C34.5582 61.8805 34.5281 63.3557 35.4194 64.2842C36.3107 65.2126 37.7859 65.2427 38.7143 64.3514L67.8438 36.3871ZM59.8214 54.5148C57.5691 54.5148 55.7433 56.3407 55.7433 58.593C55.7433 60.8452 57.5691 62.6711 59.8214 62.6711C62.0737 62.6711 63.8995 60.8452 63.8995 58.593C63.8995 56.3407 62.0737 54.5148 59.8214 54.5148ZM51.0826 58.593C51.0826 53.7666 54.9951 49.8541 59.8214 49.8541C64.6478 49.8541 68.5603 53.7666 68.5603 58.593C68.5603 63.4193 64.6478 67.3318 59.8214 67.3318C54.9951 67.3318 51.0826 63.4193 51.0826 58.593ZM37.1004 41.1145C37.1004 38.8622 38.9263 37.0364 41.1786 37.0364C43.4309 37.0364 45.2567 38.8622 45.2567 41.1145C45.2567 43.3668 43.4309 45.1926 41.1786 45.1926C38.9263 45.1926 37.1004 43.3668 37.1004 41.1145ZM41.1786 32.3757C36.3522 32.3757 32.4397 36.2882 32.4397 41.1145C32.4397 45.9408 36.3522 49.8533 41.1786 49.8533C46.0049 49.8533 49.9174 45.9408 49.9174 41.1145C49.9174 36.2882 46.0049 32.3757 41.1786 32.3757Z" fill="url(#paint0_linear)"/>
<path d="M80.7015 63.2083L80.7015 88.7449M80.7015 63.2083L71.8968 72.0481M80.7015 63.2083L89.5766 72.0481" stroke="#00A76A" stroke-width="8" stroke-linecap="round" stroke-linejoin="round"/>
<defs>
<linearGradient id="paint0_linear" x1="29.5" y1="16" x2="72.5" y2="77" gradientUnits="userSpaceOnUse">
<stop stop-color="white"/>
<stop offset="1" stop-color="#C4C4C4" stop-opacity="0"/>
</linearGradient>
</defs>
</svg>
