<?xml version="1.0" encoding="utf-8"?>
<!-- Generator: Adobe Illustrator 23.0.2, SVG Export Plug-In . SVG Version: 6.00 Build 0)  -->
<svg version="1.1" id="Capa_1" xmlns="http://www.w3.org/2000/svg" xmlns:xlink="http://www.w3.org/1999/xlink" x="0px" y="0px"
	 viewBox="0 0 260 140" style="enable-background:new 0 0 260 140;" xml:space="preserve">
<g>
	<path d="M1448.5,60.4h5.1l2.4,15h0.9l2.9-14.6h5.4l3,14.6h0.9l2.4-15h5.1l-3.7,19.4h-8.2l-2.2-11.9l-2.2,11.9h-8.2L1448.5,60.4z"/>
	<path d="M1481.1,78c-1.3-1.5-2-4-2-7.4c0-3.6,0.7-6.2,2.1-8c1.4-1.8,3.6-2.6,6.6-2.6c2.7,0,4.8,0.7,6.2,2.2
		c1.4,1.5,2.1,3.7,2.1,6.6l-0.4,3.6h-11.4c0.1,0.9,0.2,1.6,0.5,2.1c0.3,0.5,0.7,0.8,1.3,1c0.6,0.2,1.5,0.3,2.5,0.3
		c0.9,0,1.9,0,3.1-0.1c1.2-0.1,2.1-0.1,2.6-0.2l1.1-0.1l0.1,3.8c-2.9,0.7-5.6,1.1-7.9,1.1C1484.6,80.3,1482.4,79.6,1481.1,78z
		 M1491,68.4c0-1.6-0.2-2.6-0.7-3.2c-0.5-0.6-1.3-0.9-2.6-0.9c-1.2,0-2.1,0.3-2.6,0.9s-0.8,1.7-0.8,3.2L1491,68.4L1491,68.4z"/>
	<path d="M1499.8,60.4h5.2v1.1c1-0.6,1.9-1,2.6-1.2c0.8-0.2,1.6-0.3,2.5-0.3c2.4,0,4.1,0.8,5.1,2.3c1,1.5,1.5,3.9,1.5,7.1v10.5h-5.2
		V69.5c0-1.8-0.2-3.1-0.6-3.8c-0.4-0.7-1.2-1.1-2.4-1.1c-0.9,0-1.8,0.2-2.9,0.6l-0.5,0.2v14.5h-5.2V60.4z"/>
	<path d="M1520.1,74c0-2,0.5-3.5,1.6-4.4c1.1-0.9,2.8-1.4,5.2-1.6l4.2-0.3v-1.2c0-0.8-0.2-1.3-0.5-1.6c-0.3-0.3-0.9-0.5-1.8-0.5
		c-0.9,0-2,0-3.5,0.1s-2.8,0.1-3.8,0.2l-0.2-3.6c2.8-0.8,5.4-1.1,7.9-1.1c2.5,0,4.3,0.5,5.4,1.6c1.1,1,1.7,2.7,1.7,5v8.1
		c0.1,0.6,0.2,1.1,0.3,1.3c0.2,0.2,0.5,0.4,0.9,0.5l-0.2,3.9c-1.3,0-2.4-0.1-3.2-0.3c-0.8-0.2-1.6-0.5-2.3-1.1
		c-1.9,0.9-3.8,1.4-5.7,1.4C1522.1,80.3,1520.1,78.2,1520.1,74z M1530.5,75.6l0.6-0.2v-4.2l-3.5,0.3c-1.4,0.1-2.2,0.9-2.2,2.3
		c0,1.4,0.6,2.1,1.9,2.1C1528.2,76.1,1529.3,75.9,1530.5,75.6z"/>
	<path d="M1541.2,60.4h5.2v1.1c1-0.6,1.9-1,2.6-1.2s1.6-0.3,2.5-0.3c2.4,0,4.1,0.8,5.1,2.3c1,1.5,1.5,3.9,1.5,7.1v10.5h-5.2V69.5
		c0-1.8-0.2-3.1-0.6-3.8c-0.4-0.7-1.2-1.1-2.4-1.1c-0.8,0-1.8,0.2-2.9,0.6l-0.5,0.2v14.5h-5.2V60.4z"/>
	<path d="M1563.7,77.9c-1.3-1.6-1.9-4.2-1.9-7.8c0-3.6,0.7-6.2,1.9-7.8c1.3-1.6,3.4-2.4,6.3-2.4c0.8,0,1.6,0.1,2.5,0.2
		s2.1,0.3,3.7,0.7l-0.2,4.1c-2.2-0.2-3.7-0.3-4.6-0.3c-1.2,0-2.1,0.2-2.7,0.5c-0.6,0.3-1.1,0.9-1.3,1.7s-0.4,1.9-0.4,3.3
		c0,1.5,0.1,2.6,0.4,3.4c0.2,0.8,0.7,1.3,1.3,1.7c0.6,0.3,1.6,0.5,2.8,0.5l4.5-0.3l0.2,4.2c-2.8,0.5-4.9,0.8-6.5,0.8
		C1567,80.3,1564.9,79.5,1563.7,77.9z"/>
	<path d="M1581,78c-1.3-1.5-2-4-2-7.4c0-3.6,0.7-6.2,2.1-8c1.4-1.8,3.6-2.6,6.6-2.6c2.8,0,4.8,0.7,6.2,2.2s2.1,3.7,2.1,6.6l-0.4,3.6
		h-11.4c0.1,0.9,0.2,1.6,0.5,2.1c0.3,0.5,0.7,0.8,1.3,1c0.6,0.2,1.5,0.3,2.6,0.3c0.9,0,1.9,0,3.1-0.1s2.1-0.1,2.6-0.2l1.1-0.1
		l0.1,3.8c-2.9,0.7-5.6,1.1-7.8,1.1C1584.5,80.3,1582.3,79.6,1581,78z M1590.9,68.4c0-1.6-0.2-2.6-0.7-3.2s-1.3-0.9-2.5-0.9
		c-1.2,0-2.1,0.3-2.6,0.9c-0.5,0.6-0.8,1.7-0.8,3.2L1590.9,68.4L1590.9,68.4z"/>
</g>
<path d="M87.7,68.7c-0.6,0-1,0.2-1.4,0.7c-0.3,0.5-0.5,1.1-0.5,2c0,1.7,0.7,2.6,2,2.6c0.4,0,0.8-0.1,1.2-0.2
	c0.4-0.1,0.7-0.2,1.1-0.4v2.1c-0.8,0.3-1.6,0.5-2.6,0.5c-1.4,0-2.4-0.4-3.1-1.2c-0.7-0.8-1.1-1.9-1.1-3.4c0-0.9,0.2-1.8,0.5-2.5
	c0.4-0.7,0.9-1.3,1.5-1.6c0.7-0.4,1.4-0.6,2.3-0.6c1,0,1.9,0.2,2.8,0.6l-0.7,1.9c-0.3-0.2-0.7-0.3-1-0.4
	C88.5,68.7,88.1,68.7,87.7,68.7"/>
<path d="M97.8,73.1c0,0.6-0.1,1.1-0.4,1.5c-0.3,0.4-0.7,0.8-1.2,1c-0.5,0.2-1.2,0.4-1.9,0.4c-0.6,0-1.1,0-1.5-0.1
	c-0.4-0.1-0.8-0.2-1.3-0.4v-2.2c0.5,0.2,0.9,0.4,1.4,0.6c0.5,0.1,1,0.2,1.4,0.2c0.4,0,0.6-0.1,0.8-0.2c0.2-0.1,0.3-0.3,0.3-0.5
	c0-0.1,0-0.2-0.1-0.3c-0.1-0.1-0.2-0.2-0.3-0.3c-0.2-0.1-0.6-0.3-1.2-0.6c-0.6-0.3-1-0.5-1.3-0.8c-0.3-0.2-0.5-0.5-0.7-0.9
	c-0.1-0.3-0.2-0.7-0.2-1.2c0-0.8,0.3-1.5,0.9-1.9c0.6-0.5,1.4-0.7,2.5-0.7c0.9,0,1.9,0.2,2.9,0.6L97,69.2c-0.8-0.4-1.6-0.6-2.2-0.6
	c-0.3,0-0.5,0.1-0.7,0.2C94,68.9,94,69,94,69.2c0,0.2,0.1,0.3,0.3,0.5c0.2,0.1,0.7,0.4,1.5,0.8c0.8,0.3,1.3,0.7,1.6,1.1
	C97.6,72,97.8,72.5,97.8,73.1"/>
<path d="M105.1,73.1c0,0.6-0.1,1.1-0.4,1.5c-0.3,0.4-0.7,0.8-1.2,1c-0.5,0.2-1.2,0.4-1.9,0.4c-0.6,0-1.1,0-1.5-0.1
	c-0.4-0.1-0.8-0.2-1.3-0.4v-2.2c0.5,0.2,0.9,0.4,1.4,0.6c0.5,0.1,1,0.2,1.4,0.2c0.4,0,0.6-0.1,0.8-0.2c0.2-0.1,0.3-0.3,0.3-0.5
	c0-0.1,0-0.2-0.1-0.3c-0.1-0.1-0.2-0.2-0.3-0.3c-0.2-0.1-0.6-0.3-1.2-0.6c-0.6-0.3-1-0.5-1.3-0.8c-0.3-0.2-0.5-0.5-0.7-0.9
	c-0.1-0.3-0.2-0.7-0.2-1.2c0-0.8,0.3-1.5,0.9-1.9c0.6-0.5,1.4-0.7,2.5-0.7c0.9,0,1.9,0.2,2.9,0.6l-0.7,1.9c-0.8-0.4-1.6-0.6-2.2-0.6
	c-0.3,0-0.5,0.1-0.7,0.2c-0.1,0.1-0.2,0.2-0.2,0.4c0,0.2,0.1,0.3,0.3,0.5c0.2,0.1,0.7,0.4,1.5,0.8c0.8,0.3,1.3,0.7,1.6,1.1
	C104.9,72,105.1,72.5,105.1,73.1"/>
<path d="M117.4,71.1c0,1.5-0.4,2.7-1.2,3.5c-0.8,0.8-2,1.2-3.5,1.2h-2.9v-9h3.1c1.4,0,2.6,0.4,3.3,1.1
	C117,68.7,117.4,69.7,117.4,71.1 M114.9,71.2c0-0.8-0.2-1.4-0.5-1.8c-0.3-0.4-0.8-0.6-1.5-0.6h-0.7v5h0.5c0.7,0,1.3-0.2,1.6-0.6
	C114.7,72.7,114.9,72.1,114.9,71.2"/>
<polygon points="124.4,75.8 119,75.8 119,66.8 124.4,66.8 124.4,68.8 121.4,68.8 121.4,70.2 124.1,70.2 124.1,72.1 121.4,72.1 
	121.4,73.8 124.4,73.8 "/>
<path d="M131.8,73.1c0,0.6-0.1,1.1-0.4,1.5c-0.3,0.4-0.7,0.8-1.2,1c-0.5,0.2-1.2,0.4-1.9,0.4c-0.6,0-1.1,0-1.5-0.1
	c-0.4-0.1-0.8-0.2-1.3-0.4v-2.2c0.5,0.2,0.9,0.4,1.4,0.6c0.5,0.1,1,0.2,1.4,0.2c0.4,0,0.6-0.1,0.8-0.2c0.2-0.1,0.3-0.3,0.3-0.5
	c0-0.1,0-0.2-0.1-0.3c-0.1-0.1-0.2-0.2-0.3-0.3c-0.2-0.1-0.6-0.3-1.2-0.6c-0.6-0.3-1-0.5-1.3-0.8c-0.3-0.2-0.5-0.5-0.7-0.9
	c-0.1-0.3-0.2-0.7-0.2-1.2c0-0.8,0.3-1.5,0.9-1.9c0.6-0.5,1.4-0.7,2.5-0.7c0.9,0,1.9,0.2,2.9,0.6l-0.7,1.9c-0.8-0.4-1.6-0.6-2.2-0.6
	c-0.3,0-0.5,0.1-0.7,0.2c-0.1,0.1-0.2,0.2-0.2,0.4c0,0.2,0.1,0.3,0.3,0.5c0.2,0.1,0.7,0.4,1.5,0.8c0.8,0.3,1.3,0.7,1.6,1.1
	C131.7,72,131.8,72.5,131.8,73.1"/>
<rect x="133.2" y="66.8" width="2.4" height="9"/>
<path d="M141.2,70.5h3.9v4.9c-1.1,0.4-2.2,0.5-3.5,0.5c-1.4,0-2.5-0.4-3.2-1.2c-0.8-0.8-1.1-2-1.1-3.4c0-1.5,0.4-2.6,1.2-3.4
	c0.8-0.8,2-1.2,3.5-1.2c0.6,0,1.1,0.1,1.6,0.2c0.5,0.1,0.9,0.2,1.3,0.4l-0.8,1.9c-0.6-0.3-1.4-0.5-2.1-0.5c-0.7,0-1.3,0.2-1.6,0.7
	c-0.4,0.5-0.6,1.1-0.6,2c0,0.8,0.2,1.5,0.5,1.9c0.4,0.4,0.9,0.7,1.5,0.7c0.4,0,0.7,0,1-0.1v-1.4h-1.6V70.5z"/>
<path d="M155.5,75.8h-3.2l-3.3-6.3H149c0.1,1,0.1,1.8,0.1,2.3v4.1H147v-9h3.2l3.3,6.3h0c-0.1-0.9-0.1-1.6-0.1-2.2v-4.1h2.2V75.8z"/>
<path d="M168.3,75.8l-0.4-1.7h-2.9l-0.5,1.7h-2.7l2.9-9h3.2l3,9H168.3z M167.3,72.1l-0.4-1.5c-0.1-0.3-0.2-0.8-0.3-1.3
	c-0.1-0.5-0.2-0.9-0.3-1.1c0,0.2-0.1,0.6-0.2,1c-0.1,0.5-0.4,1.4-0.7,2.8H167.3z"/>
<path d="M181.7,75.8h-2.9l-0.9-3.9c0-0.2-0.1-0.5-0.2-1c-0.1-0.5-0.2-0.9-0.2-1.2c0,0.3-0.1,0.6-0.2,1c-0.1,0.4-0.1,0.8-0.2,1.1
	c-0.1,0.3-0.4,1.7-0.9,4h-2.9l-2.2-9h2.3l1,4.5c0.2,1,0.4,1.8,0.5,2.4c0.1-0.4,0.1-1,0.3-1.7c0.1-0.7,0.3-1.3,0.4-1.8l0.8-3.4h2.3
	l0.8,3.4c0.1,0.5,0.3,1.2,0.4,1.9c0.1,0.7,0.2,1.2,0.3,1.6c0.1-0.5,0.2-1.2,0.4-2.4l1-4.5h2.3L181.7,75.8z"/>
<path d="M190.6,75.8l-0.4-1.7h-2.9l-0.5,1.7h-2.7l2.9-9h3.2l3,9H190.6z M189.6,72.1l-0.4-1.5c-0.1-0.3-0.2-0.8-0.3-1.3
	c-0.1-0.5-0.2-0.9-0.3-1.1c0,0.2-0.1,0.6-0.2,1c-0.1,0.5-0.4,1.4-0.7,2.8H189.6z"/>
<path d="M196.6,72.5v3.3h-2.4v-9h3c2.4,0,3.7,0.9,3.7,2.7c0,1-0.5,1.9-1.5,2.4l2.6,3.9h-2.8l-1.9-3.3H196.6z M196.6,70.7h0.5
	c0.9,0,1.3-0.4,1.3-1.1c0-0.6-0.4-0.9-1.3-0.9h-0.5V70.7z"/>
<path d="M210.4,71.1c0,1.5-0.4,2.7-1.2,3.5c-0.8,0.8-2,1.2-3.5,1.2h-2.9v-9h3.1c1.4,0,2.6,0.4,3.4,1.1
	C210,68.7,210.4,69.7,210.4,71.1 M207.9,71.2c0-0.8-0.2-1.4-0.5-1.8c-0.3-0.4-0.8-0.6-1.5-0.6h-0.7v5h0.5c0.7,0,1.3-0.2,1.6-0.6
	C207.7,72.7,207.9,72.1,207.9,71.2"/>
<path d="M217.9,73.1c0,0.6-0.1,1.1-0.4,1.5c-0.3,0.4-0.7,0.8-1.2,1c-0.5,0.2-1.2,0.4-1.9,0.4c-0.6,0-1.1,0-1.5-0.1
	c-0.4-0.1-0.8-0.2-1.3-0.4v-2.2c0.5,0.2,0.9,0.4,1.4,0.6c0.5,0.1,1,0.2,1.4,0.2c0.4,0,0.6-0.1,0.8-0.2c0.2-0.1,0.3-0.3,0.3-0.5
	c0-0.1,0-0.2-0.1-0.3c-0.1-0.1-0.2-0.2-0.3-0.3c-0.2-0.1-0.6-0.3-1.2-0.6c-0.6-0.3-1-0.5-1.3-0.8c-0.3-0.2-0.5-0.5-0.7-0.9
	c-0.1-0.3-0.2-0.7-0.2-1.2c0-0.8,0.3-1.5,0.9-1.9c0.6-0.5,1.4-0.7,2.5-0.7c0.9,0,1.9,0.2,2.9,0.6l-0.7,1.9c-0.8-0.4-1.6-0.6-2.2-0.6
	c-0.3,0-0.5,0.1-0.7,0.2c-0.1,0.1-0.2,0.2-0.2,0.4c0,0.2,0.1,0.3,0.3,0.5c0.2,0.1,0.7,0.4,1.5,0.8c0.8,0.3,1.3,0.7,1.6,1.1
	C217.8,72,217.9,72.5,217.9,73.1"/>
<polygon points="62.2,75.6 62.2,75.6 51.2,64.7 62.2,53.7 51.2,53.7 40.2,64.7 45.7,70.2 51.2,75.6 56.7,81.1 "/>
<polygon points="69.6,70.2 64.1,64.7 58.6,59.2 53.2,64.7 64.1,75.6 64.1,75.7 64.1,75.7 53.1,86.7 64.1,86.7 69.6,81.2 75.1,75.7 
	"/>
</svg>
