<svg width="48" height="48" viewBox="0 0 48 48" fill="none" xmlns="http://www.w3.org/2000/svg">
<path fill-rule="evenodd" clip-rule="evenodd" d="M13.6557 0.64999C20.5179 -0.216663 27.462 -0.216663 34.3243 0.64999C41.1194 1.50877 46.4706 6.85768 47.3297 13.65C47.768 17.0827 47.9919 20.5394 48 24C47.9977 27.4535 47.7805 30.9035 47.3497 34.33C46.4906 41.1223 41.1395 46.4712 34.3443 47.33C30.9101 47.7681 27.452 47.9919 23.99 48C20.5351 47.9977 17.0836 47.7806 13.6557 47.35C6.86054 46.4912 1.5094 41.1423 0.650261 34.35C-0.216754 27.4906 -0.216754 20.5494 0.650261 13.69C1.49248 6.88211 6.84759 1.51277 13.6557 0.64999Z" fill="#FFAB00"/>
<path d="M14.09 16.4299H31.91C32.512 16.4299 33 16.9179 33 17.5199V17.5299C33 18.1319 32.512 18.6199 31.91 18.6199H14.09C13.488 18.6199 13 18.1319 13 17.5299V17.5199C13 16.9179 13.488 16.4299 14.09 16.4299Z" fill="url(#paint0_linear)"/>
<path d="M14.09 22.9099H31.91C32.512 22.9099 33 23.3979 33 23.9999V24.0099C33 24.6119 32.512 25.0999 31.91 25.0999H14.09C13.488 25.0999 13 24.6119 13 24.0099V23.9999C13 23.3979 13.488 22.9099 14.09 22.9099Z" fill="url(#paint1_linear)"/>
<path d="M14.09 29.3799H31.91C32.512 29.3799 33 29.8679 33 30.4699V30.4799C33 31.0819 32.512 31.5699 31.91 31.5699H14.09C13.488 31.5699 13 31.0819 13 30.4799V30.4699C13 29.8679 13.488 29.3799 14.09 29.3799Z" fill="url(#paint2_linear)"/>
<path d="M22.83 20C24.2107 20 25.33 18.8807 25.33 17.5C25.33 16.1193 24.2107 15 22.83 15C21.4493 15 20.33 16.1193 20.33 17.5C20.33 18.8807 21.4493 20 22.83 20Z" fill="white"/>
<path d="M31.83 27C33.2107 27 34.33 25.8807 34.33 24.5C34.33 23.1193 33.2107 22 31.83 22C30.4493 22 29.33 23.1193 29.33 24.5C29.33 25.8807 30.4493 27 31.83 27Z" fill="white"/>
<path d="M22.83 32.96C24.2107 32.96 25.33 31.8407 25.33 30.46C25.33 29.0792 24.2107 27.96 22.83 27.96C21.4493 27.96 20.33 29.0792 20.33 30.46C20.33 31.8407 21.4493 32.96 22.83 32.96Z" fill="white"/>
<defs>
<linearGradient id="paint0_linear" x1="16.3279" y1="17.5199" x2="34.1201" y2="17.5199" gradientUnits="userSpaceOnUse">
<stop stop-color="white"/>
<stop offset="1" stop-color="white" stop-opacity="0"/>
</linearGradient>
<linearGradient id="paint1_linear" x1="16.1702" y1="23.9999" x2="34.2766" y2="23.9999" gradientUnits="userSpaceOnUse">
<stop stop-color="white"/>
<stop offset="1" stop-color="white" stop-opacity="0"/>
</linearGradient>
<linearGradient id="paint2_linear" x1="16.9035" y1="30.4799" x2="34.3597" y2="30.4799" gradientUnits="userSpaceOnUse">
<stop stop-color="white"/>
<stop offset="1" stop-color="white" stop-opacity="0"/>
</linearGradient>
</defs>
</svg>
