<svg width="48" height="48" viewBox="0 0 48 48" fill="none" xmlns="http://www.w3.org/2000/svg">
<path fill-rule="evenodd" clip-rule="evenodd" d="M13.6557 0.64999C20.5179 -0.216663 27.462 -0.216663 34.3243 0.64999C41.1194 1.50877 46.4706 6.85768 47.3297 13.65C47.768 17.0827 47.9919 20.5394 48 24C47.9977 27.4535 47.7805 30.9035 47.3497 34.33C46.4906 41.1223 41.1395 46.4712 34.3443 47.33C30.9101 47.7681 27.452 47.9919 23.99 48C20.5351 47.9977 17.0836 47.7806 13.6557 47.35C6.86054 46.4912 1.5094 41.1423 0.650261 34.35C-0.216754 27.4906 -0.216754 20.5494 0.650261 13.69C1.49248 6.88211 6.84759 1.51277 13.6557 0.64999Z" fill="#6B5AED"/>
<path d="M23.21 24.6899C22.6656 24.754 22.1294 24.8746 21.61 25.0499C19.2001 25.8649 17.2979 27.7414 16.45 30.1399C16.2487 30.7199 16.1112 31.3201 16.04 31.9299C16.0498 32.0497 16.0498 32.1701 16.04 32.2899V32.4099C16.31 32.4099 16.58 32.4099 16.84 32.3199C17.6381 32.2006 18.4135 31.9612 19.14 31.6099C20.2506 31.0669 21.2273 30.2848 22 29.3199C22.7479 28.3826 23.2835 27.2943 23.57 26.1299C23.6863 25.6571 23.7633 25.1754 23.8 24.6899C23.8 24.6399 23.8 24.6399 23.74 24.6399L23.21 24.6899Z" fill="white"/>
<path d="M16.38 18.01C16.7381 19.1963 17.3642 20.2844 18.21 21.19C18.8419 21.8679 19.5905 22.4267 20.42 22.84C21.4338 23.3821 22.5525 23.6993 23.7 23.77H23.76C23.76 23.44 23.7 23.11 23.64 22.77C23.2759 20.796 22.2104 19.0202 20.64 17.77C19.9272 17.2008 19.1222 16.7578 18.26 16.46C17.6899 16.2483 17.0951 16.1105 16.49 16.05L16.11 16C16 16 16 16 16 16.11C16.0098 16.183 16.0098 16.257 16 16.33C16.0677 16.9017 16.1951 17.4648 16.38 18.01Z" fill="white"/>
<path d="M25.46 23.73C26.2572 23.6014 27.0318 23.3589 27.76 23.01C28.8173 22.4943 29.749 21.7537 30.49 20.84C31.627 19.4805 32.2935 17.7896 32.39 16.02H32.28L31.91 16.07C31.3766 16.1251 30.8504 16.2357 30.34 16.4C29.2817 16.7409 28.3048 17.2957 27.47 18.03C26.0266 19.2976 25.0657 21.0251 24.75 22.92C24.71 23.1934 24.68 23.4634 24.66 23.73C24.66 23.73 24.66 23.79 24.72 23.79L25.46 23.73Z" fill="white"/>
<path d="M31.6 29.3101C31.0517 28.1352 30.2326 27.1071 29.21 26.3101C27.9217 25.2975 26.3556 24.701 24.72 24.6001C24.72 24.6001 24.65 24.6001 24.66 24.6501C24.66 24.9101 24.71 25.1601 24.75 25.4101C24.8671 26.2042 25.1031 26.9762 25.45 27.7001C26.3786 29.643 28.0291 31.1464 30.05 31.8901C30.7844 32.1539 31.5516 32.3154 32.33 32.3701C32.38 32.3701 32.39 32.3701 32.38 32.3101C32.38 32.0601 32.38 31.8101 32.3 31.5601C32.1746 30.7807 31.9389 30.0231 31.6 29.3101Z" fill="white"/>
</svg>
