<svg width="32" height="33" viewBox="0 0 32 33" fill="none" xmlns="http://www.w3.org/2000/svg">
<mask id="mask0" mask-type="alpha" maskUnits="userSpaceOnUse" x="0" y="4" width="28" height="29">
<path fill-rule="evenodd" clip-rule="evenodd" d="M14 32.2832C21.732 32.2832 28 26.0152 28 18.2832C28 10.5512 21.732 4.2832 14 4.2832C6.26801 4.2832 0 10.5512 0 18.2832C0 26.0152 6.26801 32.2832 14 32.2832Z" fill="#EC9555"/>
</mask>
<g mask="url(#mask0)">
<path fill-rule="evenodd" clip-rule="evenodd" d="M30 15.5008C28.4479 16.6047 26.5497 17.2539 24.5 17.2539C19.2533 17.2539 15 13.0006 15 7.75391C15 5.70416 15.6492 3.80604 16.7531 2.25391H-2V34.2539H30V15.5008Z" fill="#183EAD"/>
<path fill-rule="evenodd" clip-rule="evenodd" d="M15.0004 7.66198C15.0001 7.69259 15 7.72323 15 7.75391C15 7.96245 15.0067 8.16942 15.02 8.37461L14.7685 8.5603L15.0906 9.5785C15.1323 9.71024 14.9822 9.81945 14.8697 9.73897L14.0009 9.1179L13.1321 9.73897C13.0196 9.81935 12.8695 9.71033 12.9112 9.5785L13.2333 8.5603L12.3741 7.92586C12.2629 7.84367 12.3202 7.66725 12.4585 7.6662L13.5264 7.6579L13.8644 6.64476C13.908 6.5136 14.0937 6.5136 14.1374 6.64476L14.4753 7.6579L15.0004 7.66198Z" fill="#FCCB74"/>
<path d="M14.1383 26.8982L14.4763 27.9114L15.5442 27.9197C15.6825 27.9207 15.7398 28.0971 15.6286 28.1793L14.7694 28.8137L15.0915 29.8319C15.1332 29.9637 14.9832 30.0729 14.8706 29.9924L14.0018 29.3713L13.133 29.9924C13.0206 30.0728 12.8704 29.9638 12.9122 29.8319L13.2342 28.8137L12.3751 28.1793C12.2639 28.0971 12.3212 27.9207 12.4595 27.9197L13.5274 27.9114L13.8653 26.8982C13.9089 26.767 14.0946 26.767 14.1383 26.8982Z" fill="#FCCB74"/>
<path fill-rule="evenodd" clip-rule="evenodd" d="M23.8382 17.2314C24.0323 17.2448 24.2279 17.2523 24.425 17.2538L24.6023 17.7855L25.6703 17.7938C25.8086 17.7949 25.8659 17.9713 25.7547 18.0535L24.8955 18.6879L25.2176 19.7062C25.2593 19.8379 25.1092 19.9471 24.9967 19.8666L24.1279 19.2456L23.2591 19.8666C23.1466 19.947 22.9964 19.838 23.0382 19.7062L23.3603 18.6879L22.5011 18.0535C22.3899 17.9713 22.4471 17.7949 22.5855 17.7938L23.6534 17.7855L23.8382 17.2314Z" fill="#FCCB74"/>
<path d="M4.01049 16.7721L4.34843 17.7853L5.41638 17.7936C5.55471 17.7946 5.61199 17.9711 5.50078 18.0533L4.6416 18.6877L4.9637 19.7059C5.00541 19.8377 4.85534 19.9469 4.74279 19.8664L3.87397 19.2453L3.00515 19.8664C2.8927 19.9468 2.74253 19.8378 2.78425 19.7059L3.10634 18.6877L2.24717 18.0533C2.13595 17.9711 2.19323 17.7946 2.33156 17.7936L3.39951 17.7853L3.73746 16.7721C3.78118 16.6411 3.96686 16.6411 4.01049 16.7721Z" fill="#FCCB74"/>
<path d="M5.53095 11.4836L5.86889 12.4968L6.93682 12.5051C7.07515 12.5061 7.13242 12.6825 7.02121 12.7647L6.16205 13.3992L6.48414 14.4174C6.52586 14.5491 6.37579 14.6583 6.26324 14.5778L5.39444 13.9568L4.52564 14.5778C4.41319 14.6582 4.26303 14.5492 4.30474 14.4174L4.62683 13.3992L3.76767 12.7647C3.65646 12.6825 3.71374 12.5061 3.85206 12.5051L4.92 12.4968L5.25793 11.4836C5.30165 11.3525 5.48714 11.3525 5.53095 11.4836Z" fill="#FCCB74"/>
<path d="M23.071 21.61L23.409 22.6232L24.4769 22.6315C24.6152 22.6325 24.6725 22.8089 24.5613 22.8911L23.7021 23.5256L24.0242 24.5438C24.0659 24.6757 23.9159 24.7848 23.8033 24.7043L22.9345 24.0832L22.0657 24.7043C21.9532 24.7847 21.8031 24.6756 21.8448 24.5438L22.1669 23.5256L21.3077 22.8911C21.1965 22.8089 21.2538 22.6325 21.3921 22.6315L22.4601 22.6232L22.798 21.61C22.8417 21.479 23.0273 21.479 23.071 21.61Z" fill="#FCCB74"/>
<path d="M19.366 7.77702L19.704 8.79018L20.772 8.79848C20.9103 8.79953 20.9676 8.97595 20.8563 9.05814L19.9972 9.6926L20.3193 10.7108C20.361 10.8426 20.2109 10.9518 20.0984 10.8713L19.2295 10.2502L18.3606 10.8713C18.2482 10.9517 18.098 10.8427 18.1397 10.7108L18.4618 9.6926L17.6026 9.05814C17.4914 8.97595 17.5487 8.79953 17.687 8.79848L18.755 8.79018L19.0929 7.77702C19.1366 7.64594 19.3221 7.64594 19.366 7.77702Z" fill="#FCCB74"/>
<path d="M9.23697 25.3177L9.5749 26.3308L10.6428 26.3391C10.7811 26.3401 10.8384 26.5166 10.7272 26.5987L9.86806 27.2332L10.1901 28.2514C10.2319 28.3831 10.0818 28.4923 9.96925 28.4118L9.10047 27.7908L8.23168 28.4118C8.11923 28.4922 7.96907 28.3832 8.01079 28.2514L8.33287 27.2332L7.47373 26.5987C7.36252 26.5166 7.41979 26.3401 7.55811 26.3391L8.62603 26.3309L8.96396 25.3178C9.00768 25.1864 9.19335 25.1864 9.23697 25.3177Z" fill="#FCCB74"/>
<path d="M22.798 11.4836L22.46 12.4968L21.3921 12.5051C21.2538 12.5061 21.1965 12.6825 21.3077 12.7647L22.1669 13.3992L21.8448 14.4174C21.8031 14.5491 21.9531 14.6583 22.0657 14.5778L22.9345 13.9568L23.8033 14.5778C23.9157 14.6582 24.0659 14.5492 24.0242 14.4174L23.7021 13.3992L24.5613 12.7647C24.6725 12.6825 24.6152 12.5061 24.4769 12.5051L23.4089 12.4968L23.071 11.4836C23.0273 11.3525 22.8417 11.3525 22.798 11.4836Z" fill="#FCCB74"/>
<path d="M5.25795 21.61L4.92001 22.6232L3.85206 22.6315C3.71374 22.6325 3.65646 22.8089 3.76767 22.8911L4.62684 23.5256L4.30475 24.5438C4.26303 24.6757 4.4131 24.7848 4.52565 24.7043L5.39447 24.0832L6.26328 24.7043C6.37573 24.7847 6.5259 24.6756 6.48418 24.5438L6.16209 23.5256L7.02126 22.8911C7.13247 22.8089 7.07519 22.6325 6.93687 22.6315L5.86892 22.6232L5.53098 21.61C5.48716 21.479 5.30167 21.479 5.25795 21.61Z" fill="#FCCB74"/>
<path d="M8.96402 7.77702L8.62608 8.79018L7.55812 8.79848C7.41979 8.79953 7.36251 8.97595 7.47373 9.05814L8.33291 9.6926L8.01081 10.7108C7.96909 10.8426 8.11916 10.9518 8.23172 10.8713L9.10053 10.2502L9.96935 10.8713C10.0818 10.9517 10.232 10.8427 10.1903 10.7108L9.86816 9.6926L10.7273 9.05814C10.8386 8.97595 10.7813 8.79953 10.6429 8.79848L9.57499 8.79018L9.23705 7.77702C9.19323 7.64594 9.00774 7.64594 8.96402 7.77702Z" fill="#FCCB74"/>
<path d="M19.0929 25.3177L18.7549 26.3308L17.687 26.3391C17.5487 26.3401 17.4914 26.5166 17.6026 26.5987L18.4618 27.2332L18.1397 28.2514C18.098 28.3831 18.248 28.4923 18.3606 28.4118L19.2294 27.7908L20.0982 28.4118C20.2106 28.4922 20.3608 28.3832 20.3191 28.2514L19.997 27.2332L20.8561 26.5987C20.9673 26.5166 20.91 26.3401 20.7717 26.3391L19.7038 26.3309L19.3659 25.3178C19.3221 25.1864 19.1366 25.1864 19.0929 25.3177Z" fill="#FCCB74"/>
</g>
<path fill-rule="evenodd" clip-rule="evenodd" d="M24.5 15.2539C28.6421 15.2539 32 11.896 32 7.75391C32 3.61177 28.6421 0.253906 24.5 0.253906C20.3579 0.253906 17 3.61177 17 7.75391C17 11.896 20.3579 15.2539 24.5 15.2539Z" fill="#373D43"/>
<path d="M27.1055 11.7538L26.9872 11.1824C26.9478 11.0445 26.8296 10.9656 26.6917 11.005C26.4946 11.0445 26.1793 11.1036 25.805 11.1036C24.5241 11.1036 23.4995 10.3154 23.0857 9.1922H25.6473C25.7458 9.1922 25.8444 9.11338 25.8641 8.99515L25.9626 8.52223C26.002 8.36459 25.8838 8.24636 25.7458 8.24636H22.8295C22.7901 7.91138 22.7901 7.5961 22.8098 7.30053H26.0217C26.1202 7.30053 26.2188 7.22171 26.2385 7.10348L26.337 6.63056C26.3764 6.49263 26.2582 6.35469 26.1202 6.35469H23.0266C23.4404 5.1921 24.4453 4.42361 25.7852 4.42361C26.0611 4.42361 26.3567 4.46302 26.534 4.48273C26.6523 4.50243 26.7705 4.44332 26.8099 4.32509L26.9675 3.73394C26.9872 3.59601 26.9084 3.45807 26.7705 3.43837C26.5537 3.39896 26.1991 3.33984 25.805 3.33984C23.8345 3.33984 22.2581 4.62066 21.7457 6.33499H21.1349C20.997 6.33499 20.8984 6.45322 20.8984 6.57145V7.04436C20.8984 7.1823 20.997 7.28082 21.1349 7.28082H21.5881C21.5487 7.5961 21.5684 7.9902 21.5881 8.22666H21.1349C20.997 8.22666 20.8984 8.34489 20.8984 8.46311V8.93603C20.8984 9.07397 20.997 9.17249 21.1349 9.17249H21.7655C22.2778 10.9262 23.7951 12.1676 25.805 12.1676C26.2779 12.1676 26.6917 12.0888 26.9281 12.0297C27.0661 12.01 27.1449 11.8721 27.1055 11.7538Z" fill="white"/>
</svg>
