<?xml version="1.0" encoding="UTF-8"?>
<svg width="20px" height="14px" viewBox="0 0 20 14" version="1.1" xmlns="http://www.w3.org/2000/svg" xmlns:xlink="http://www.w3.org/1999/xlink">
    <!-- Generator: Sketch 53.1 (72631) - https://sketchapp.com -->
    <title>flag-en</title>
    <desc>Created with Sketch.</desc>
    <defs>
        <path d="M1.42214286,0 C0.642142857,0 0,0.6237 0,1.3937 L0,1.3937 L0,12.6063 C0,13.3707 0.636428571,14 1.42214286,14 L1.42214286,14 L18.5771429,14 C19.3571429,14 20,13.3763 20,12.6063 L20,12.6063 L20,1.3937 C20,0.6286 19.3628571,0 18.5771429,0 L18.5771429,0 L1.42214286,0 Z" id="path-1"></path>
        <path d="M7.61857143,0 L7.61857143,4.3008 L1.15214286,0.0252 C0.5,0.1498 0,0.7154 0,1.3937 L0,1.3937 L0,1.5162 L4.76714286,4.6669 L0,4.6669 L0,9.3338 L4.76714286,9.3338 L0,12.4845 L0,12.6063 C0,13.2804 0.495714286,13.8502 1.15214286,13.9748 L1.15214286,13.9748 L7.61857143,9.6999 L7.61857143,14 L12.3807143,14 L12.3807143,9.6999 L18.8471429,13.9748 C19.5007143,13.8502 20,13.2853 20,12.6063 L20,12.6063 L20,12.4845 L15.2328571,9.3338 L20,9.3338 L20,4.6669 L15.2328571,4.6669 L20,1.5162 L20,1.3937 C20,0.7189 19.5042857,0.1505 18.8478571,0.0252 L18.8478571,0.0252 L12.3807143,4.3008 L12.3807143,0 L7.61857143,0 Z" id="path-3"></path>
        <path d="M1.42214286,0 C0.642142857,0 0,0.6237 0,1.3937 L0,1.3937 L0,12.6063 C0,13.3707 0.636428571,14 1.42214286,14 L1.42214286,14 L18.5771429,14 C19.3571429,14 20,13.3763 20,12.6063 L20,12.6063 L20,1.3937 C20,0.6286 19.3628571,0 18.5771429,0 L18.5771429,0" id="path-5"></path>
        <path d="M1.42214286,0 C0.642142857,0 0,0.6237 0,1.3937 L0,1.3937 L0,12.6063 C0,13.3707 0.636428571,14 1.42214286,14 L1.42214286,14 L18.5771429,14 C19.3571429,14 20,13.3763 20,12.6063 L20,12.6063 L20,1.3937 C20,0.6286 19.3628571,0 18.5771429,0 L18.5771429,0" id="path-7"></path>
        <path d="M1.42214286,0 C0.642142857,0 0,0.6237 0,1.3937 L0,1.3937 L0,12.6063 C0,13.3707 0.636428571,14 1.42214286,14 L1.42214286,14 L18.5771429,14 C19.3571429,14 20,13.3763 20,12.6063 L20,12.6063 L20,1.3937 C20,0.6286 19.3628571,0 18.5771429,0 L18.5771429,0" id="path-9"></path>
        <path d="M1.42214286,0 C0.642142857,0 0,0.6237 0,1.3937 L0,1.3937 L0,12.6063 C0,13.3707 0.636428571,14 1.42214286,14 L1.42214286,14 L18.5771429,14 C19.3571429,14 20,13.3763 20,12.6063 L20,12.6063 L20,1.3937 C20,0.6286 19.3628571,0 18.5771429,0 L18.5771429,0" id="path-11"></path>
        <polygon id="path-13" points="8.57142857 0 8.57142857 5.6 0 5.6 0 8.4 8.57142857 8.4 8.57142857 14 11.4278571 14 11.4278571 8.4 20 8.4 20 5.6 11.4278571 5.6 11.4278571 0"></polygon>
    </defs>
    <g id="flag-en" stroke="none" stroke-width="1" fill="none" fill-rule="evenodd">
        <rect fill="#FFFFFF" x="0" y="0" width="20" height="14"></rect>
        <g id="Group-24">
            <g id="Group-4">
                <mask id="mask-2" fill="white">
                    <use xlink:href="#path-1"></use>
                </mask>
                <g id="Clip-2"></g>
                <polygon id="Fill-1" fill="#FEFEFE" mask="url(#mask-2)" points="-3.57142857 17.5 23.5714286 17.5 23.5714286 -3.5 -3.57142857 -3.5"></polygon>
                <polygon id="Fill-3" fill="#283794" mask="url(#mask-2)" points="-3.57142857 17.5 23.5714286 17.5 23.5714286 -3.5 -3.57142857 -3.5"></polygon>
            </g>
            <g id="Group-7">
                <mask id="mask-4" fill="white">
                    <use xlink:href="#path-3"></use>
                </mask>
                <g id="Clip-6"></g>
                <polygon id="Fill-5" fill="#FEFEFE" mask="url(#mask-4)" points="-5.55285714 18.8419 25.5521429 18.8419 25.5521429 -4.8412 -5.55285714 -4.8412"></polygon>
            </g>
            <g id="Group-20">
                <g id="Group-10">
                    <mask id="mask-6" fill="white">
                        <use xlink:href="#path-5"></use>
                    </mask>
                    <g id="Clip-9"></g>
                    <path d="M13.3345,4.66599 C13.2573571,4.66599 13.1809286,4.62889 13.1352143,4.56099 C13.0630714,4.45319 13.0937857,4.30829 13.2030714,4.23759 L22.2502143,-1.59481 C22.3602143,-1.66551 22.5080714,-1.63541 22.5795,-1.52831 C22.6523571,-1.42051 22.6216429,-1.27561 22.5116429,-1.20491 L13.4652143,4.62749 C13.4245,4.65339 13.3787857,4.66599 13.3345,4.66599" id="Fill-8" fill="#DA1E36" mask="url(#mask-6)"></path>
                </g>
                <g id="Group-13">
                    <mask id="mask-8" fill="white">
                        <use xlink:href="#path-7"></use>
                    </mask>
                    <g id="Clip-12"></g>
                    <path d="M22.4042857,15.17866 C22.3585714,15.17866 22.3121429,15.16536 22.2714286,15.13876 L14.1614286,9.78166 C14.0528571,9.70956 14.0235714,9.56466 14.0971429,9.45756 C14.1707143,9.35116 14.3185714,9.32176 14.4278571,9.39456 L22.5378571,14.75166 C22.6464286,14.82376 22.6757143,14.96866 22.6021429,15.07576 C22.5557143,15.14226 22.4807143,15.17866 22.4042857,15.17866" id="Fill-11" fill="#DA1E36" mask="url(#mask-8)"></path>
                </g>
                <g id="Group-16">
                    <mask id="mask-10" fill="white">
                        <use xlink:href="#path-9"></use>
                    </mask>
                    <g id="Clip-15"></g>
                    <path d="M5.71764286,4.65094 C5.67192857,4.65094 5.62621429,4.63764 5.58478571,4.61104 L-2.8745,-0.97636 C-2.98307143,-1.04846 -3.01235714,-1.19336 -2.93878571,-1.29976 C-2.86521429,-1.40616 -2.71807143,-1.43486 -2.60807143,-1.36276 L5.85121429,4.22394 C5.95978571,4.29604 5.98907143,4.44094 5.9155,4.54804 C5.86907143,4.61454 5.79407143,4.65094 5.71764286,4.65094" id="Fill-14" fill="#DA1E36" mask="url(#mask-10)"></path>
                </g>
                <g id="Group-19">
                    <mask id="mask-12" fill="white">
                        <use xlink:href="#path-11"></use>
                    </mask>
                    <g id="Clip-18"></g>
                    <path d="M-2.74078571,15.85094 C-2.81792857,15.85094 -2.89364286,15.81384 -2.93935714,15.74664 C-3.01221429,15.63884 -2.98221429,15.49394 -2.87292857,15.42324 L6.50421429,9.32904 C6.61421429,9.25764 6.76207143,9.28774 6.83421429,9.39484 C6.90635714,9.50194 6.87707143,9.64684 6.76707143,9.71824 L-2.60935714,15.81174 C-2.65007143,15.83834 -2.69578571,15.85094 -2.74078571,15.85094" id="Fill-17" fill="#DA1E36" mask="url(#mask-12)"></path>
                </g>
            </g>
            <g id="Group-23">
                <mask id="mask-14" fill="white">
                    <use xlink:href="#path-13"></use>
                </mask>
                <g id="Clip-22"></g>
                <polygon id="Fill-21" fill="#E5283F" mask="url(#mask-14)" points="-3.57142857 17.5 23.5714286 17.5 23.5714286 -3.5 -3.57142857 -3.5"></polygon>
            </g>
        </g>
    </g>
</svg>