<?xml version="1.0" encoding="utf-8"?>
<!-- Generator: Adobe Illustrator 23.0.2, SVG Export Plug-In . SVG Version: 6.00 Build 0)  -->
<svg version="1.1" id="Capa_1" xmlns="http://www.w3.org/2000/svg" xmlns:xlink="http://www.w3.org/1999/xlink" x="0px" y="0px"
	 viewBox="0 0 260 140" style="enable-background:new 0 0 260 140;" xml:space="preserve">
<g>
	<path d="M1448.5,60.4h5.1l2.4,15h0.9l2.9-14.6h5.4l3,14.6h0.9l2.4-15h5.1l-3.7,19.4h-8.2l-2.2-11.9l-2.2,11.9h-8.2L1448.5,60.4z"/>
	<path d="M1481.1,78c-1.3-1.5-2-4-2-7.4c0-3.6,0.7-6.2,2.1-8c1.4-1.8,3.6-2.6,6.6-2.6c2.7,0,4.8,0.7,6.2,2.2
		c1.4,1.5,2.1,3.7,2.1,6.6l-0.4,3.6h-11.4c0.1,0.9,0.2,1.6,0.5,2.1c0.3,0.5,0.7,0.8,1.3,1c0.6,0.2,1.5,0.3,2.5,0.3
		c0.9,0,1.9,0,3.1-0.1c1.2-0.1,2.1-0.1,2.6-0.2l1.1-0.1l0.1,3.8c-2.9,0.7-5.6,1.1-7.9,1.1C1484.6,80.3,1482.4,79.6,1481.1,78z
		 M1491,68.4c0-1.6-0.2-2.6-0.7-3.2c-0.5-0.6-1.3-0.9-2.6-0.9c-1.2,0-2.1,0.3-2.6,0.9s-0.8,1.7-0.8,3.2L1491,68.4L1491,68.4z"/>
	<path d="M1499.8,60.4h5.2v1.1c1-0.6,1.9-1,2.6-1.2c0.8-0.2,1.6-0.3,2.5-0.3c2.4,0,4.1,0.8,5.1,2.3c1,1.5,1.5,3.9,1.5,7.1v10.5h-5.2
		V69.5c0-1.8-0.2-3.1-0.6-3.8c-0.4-0.7-1.2-1.1-2.4-1.1c-0.9,0-1.8,0.2-2.9,0.6l-0.5,0.2v14.5h-5.2V60.4z"/>
	<path d="M1520.1,74c0-2,0.5-3.5,1.6-4.4c1.1-0.9,2.8-1.4,5.2-1.6l4.2-0.3v-1.2c0-0.8-0.2-1.3-0.5-1.6c-0.3-0.3-0.9-0.5-1.8-0.5
		c-0.9,0-2,0-3.5,0.1s-2.8,0.1-3.8,0.2l-0.2-3.6c2.8-0.8,5.4-1.1,7.9-1.1c2.5,0,4.3,0.5,5.4,1.6c1.1,1,1.7,2.7,1.7,5v8.1
		c0.1,0.6,0.2,1.1,0.3,1.3c0.2,0.2,0.5,0.4,0.9,0.5l-0.2,3.9c-1.3,0-2.4-0.1-3.2-0.3c-0.8-0.2-1.6-0.5-2.3-1.1
		c-1.9,0.9-3.8,1.4-5.7,1.4C1522.1,80.3,1520.1,78.2,1520.1,74z M1530.5,75.6l0.6-0.2v-4.2l-3.5,0.3c-1.4,0.1-2.2,0.9-2.2,2.3
		c0,1.4,0.6,2.1,1.9,2.1C1528.2,76.1,1529.3,75.9,1530.5,75.6z"/>
	<path d="M1541.2,60.4h5.2v1.1c1-0.6,1.9-1,2.6-1.2s1.6-0.3,2.5-0.3c2.4,0,4.1,0.8,5.1,2.3c1,1.5,1.5,3.9,1.5,7.1v10.5h-5.2V69.5
		c0-1.8-0.2-3.1-0.6-3.8c-0.4-0.7-1.2-1.1-2.4-1.1c-0.8,0-1.8,0.2-2.9,0.6l-0.5,0.2v14.5h-5.2V60.4z"/>
	<path d="M1563.7,77.9c-1.3-1.6-1.9-4.2-1.9-7.8c0-3.6,0.7-6.2,1.9-7.8c1.3-1.6,3.4-2.4,6.3-2.4c0.8,0,1.6,0.1,2.5,0.2
		s2.1,0.3,3.7,0.7l-0.2,4.1c-2.2-0.2-3.7-0.3-4.6-0.3c-1.2,0-2.1,0.2-2.7,0.5c-0.6,0.3-1.1,0.9-1.3,1.7s-0.4,1.9-0.4,3.3
		c0,1.5,0.1,2.6,0.4,3.4c0.2,0.8,0.7,1.3,1.3,1.7c0.6,0.3,1.6,0.5,2.8,0.5l4.5-0.3l0.2,4.2c-2.8,0.5-4.9,0.8-6.5,0.8
		C1567,80.3,1564.9,79.5,1563.7,77.9z"/>
	<path d="M1581,78c-1.3-1.5-2-4-2-7.4c0-3.6,0.7-6.2,2.1-8c1.4-1.8,3.6-2.6,6.6-2.6c2.8,0,4.8,0.7,6.2,2.2s2.1,3.7,2.1,6.6l-0.4,3.6
		h-11.4c0.1,0.9,0.2,1.6,0.5,2.1c0.3,0.5,0.7,0.8,1.3,1c0.6,0.2,1.5,0.3,2.6,0.3c0.9,0,1.9,0,3.1-0.1s2.1-0.1,2.6-0.2l1.1-0.1
		l0.1,3.8c-2.9,0.7-5.6,1.1-7.8,1.1C1584.5,80.3,1582.3,79.6,1581,78z M1590.9,68.4c0-1.6-0.2-2.6-0.7-3.2s-1.3-0.9-2.5-0.9
		c-1.2,0-2.1,0.3-2.6,0.9c-0.5,0.6-0.8,1.7-0.8,3.2L1590.9,68.4L1590.9,68.4z"/>
</g>
<g>
	<path d="M174.7,58.3c0.5,0,1,0.1,1.4,0.4c0.9,0.5,1.5,1.5,1.5,2.6v0v8.4h8.1c1.6,0,2.9,1.3,2.9,2.9c0,1.6-1.3,2.9-2.9,2.9h-8.1v7.9
		c0,1.6-1.3,2.9-2.9,2.9c-0.3,0-22.5,0-22.5,0c-1.6,0-2.9-1.3-2.9-2.9v-11h0c0.1-1.6,1.4-2.8,2.9-2.8h19.6v-5.4h-22.6l-10.7,19.9
		c-0.2,0.9-0.7,1.7-1.6,2.1c-0.4,0.2-0.8,0.3-1.3,0.3c-1,0-2-0.5-2.5-1.5c-0.1-0.2-0.2-0.3-0.3-0.5l-8.5-16.6l-8.6,16.3
		c-0.4,0.9-0.9,1.6-1.8,2.1c-0.4,0.2-0.8,0.3-1.3,0.3c-1,0-2-0.5-2.5-1.5c-0.1-0.2-0.2-0.3-0.3-0.5L99.4,64.2H82.2v5.4h14
		c1.6,0,2.9,1.3,2.9,2.9c0,1.6-1.3,2.9-2.9,2.9h-14v8.1c0,1.6-1.3,2.9-2.9,2.9c-1.6,0-2.9-1.3-2.9-2.9v-8.1h-8.1
		c-1.6,0-2.9-1.3-2.9-2.9c0-1.6,1.3-2.9,2.9-2.9h8.1v-8.4v0c0-1.1,0.6-2.1,1.5-2.6c0.4-0.2,0.9-0.4,1.4-0.4h21.9
		c0.5,0,0.9,0.1,1.3,0.3c0.6,0.3,1.1,0.8,1.5,1.4l8.7,17l8.7-16.3c0.4-0.9,0.7-1.7,1.6-2.1c0.4-0.2,0.8-0.3,1.3-0.3
		c0.7,0,1.4,0.3,2,0.8c0.5,0.4,0.8,0.7,1.2,1.4l8.2,16.5l9.2-17.1c0.2-0.4,0.6-0.8,0.9-1c0.5-0.4,1.2-0.7,1.9-0.7H174.7 M154.9,80.4
		h16.8v-5h-16.8V80.4 M174.7,52.3h-27.1c-2,0-3.9,0.7-5.5,1.9c-1.1,0.8-2,1.7-2.6,2.9l0,0.1l0,0.1l-3.8,7c0,0-4.4-8.5-5.6-9.6
		c-1.6-1.4-3.7-2.2-5.9-2.2c-1.3,0-2.7,0.3-3.9,0.9c-2.3,1.1-3.6,3.2-4.7,5.6l-2.8,5.3l-3.4-6.8c-0.9-1.8-2.4-3.3-4.3-4.2
		c-1.2-0.6-2.6-0.9-3.9-0.9H79.2c-1.5,0-3,0.4-4.3,1.1c-2.9,1.6-4.7,4.6-4.7,7.9v2.3h-2.1c-4.9,0-9,4-9,9c0,4.9,4,9,9,9h2.1v2.1
		c0,4.9,4,9,9,9c4.9,0,9-4,9-9v-2.1h8c1.7,0,3.3-0.5,4.7-1.3l3.5,6.9c0.2,0.4,0.4,0.8,0.6,1.1c1.6,2.7,4.5,4.3,7.7,4.3
		c1.3,0,2.7-0.3,3.9-0.9c2.2-1.1,4.1-2.8,5.1-5.1l2.5-5.7l3.2,6.2c0.2,0.4,0.4,0.8,0.6,1.1c1.6,2.7,4.5,4.3,7.7,4.3
		c1.3,0,2.7-0.3,3.9-0.9c2-1,3.6-2.7,4.5-4.8c1.3,3.3,4.6,5.6,8.3,5.6l22.5,0c4.9,0,9-3.9,9-8.8v-2.1h2.1c4.9,0,9-4,9-9
		c0-4.9-4-9-9-9h-2.1v-2.3c0-3.3-1.8-6.3-4.7-7.9C177.6,52.6,176.2,52.3,174.7,52.3L174.7,52.3z"/>
</g>
</svg>
