<?xml version="1.0" encoding="utf-8"?>
<!-- Generator: Adobe Illustrator 23.0.2, SVG Export Plug-In . SVG Version: 6.00 Build 0)  -->
<svg version="1.1" id="Capa_1" xmlns="http://www.w3.org/2000/svg" xmlns:xlink="http://www.w3.org/1999/xlink" x="0px" y="0px"
	 viewBox="0 0 260 140" style="enable-background:new 0 0 260 140;" xml:space="preserve">
<g>
	<path d="M1448.5,60.4h5.1l2.4,15h0.9l2.9-14.6h5.4l3,14.6h0.9l2.4-15h5.1l-3.7,19.4h-8.2l-2.2-11.9l-2.2,11.9h-8.2L1448.5,60.4z"/>
	<path d="M1481.1,78c-1.3-1.5-2-4-2-7.4c0-3.6,0.7-6.2,2.1-8c1.4-1.8,3.6-2.6,6.6-2.6c2.7,0,4.8,0.7,6.2,2.2
		c1.4,1.5,2.1,3.7,2.1,6.6l-0.4,3.6h-11.4c0.1,0.9,0.2,1.6,0.5,2.1c0.3,0.5,0.7,0.8,1.3,1c0.6,0.2,1.5,0.3,2.5,0.3
		c0.9,0,1.9,0,3.1-0.1c1.2-0.1,2.1-0.1,2.6-0.2l1.1-0.1l0.1,3.8c-2.9,0.7-5.6,1.1-7.9,1.1C1484.6,80.3,1482.4,79.6,1481.1,78z
		 M1491,68.4c0-1.6-0.2-2.6-0.7-3.2c-0.5-0.6-1.3-0.9-2.6-0.9c-1.2,0-2.1,0.3-2.6,0.9s-0.8,1.7-0.8,3.2L1491,68.4L1491,68.4z"/>
	<path d="M1499.8,60.4h5.2v1.1c1-0.6,1.9-1,2.6-1.2c0.8-0.2,1.6-0.3,2.5-0.3c2.4,0,4.1,0.8,5.1,2.3c1,1.5,1.5,3.9,1.5,7.1v10.5h-5.2
		V69.5c0-1.8-0.2-3.1-0.6-3.8c-0.4-0.7-1.2-1.1-2.4-1.1c-0.9,0-1.8,0.2-2.9,0.6l-0.5,0.2v14.5h-5.2V60.4z"/>
	<path d="M1520.1,74c0-2,0.5-3.5,1.6-4.4c1.1-0.9,2.8-1.4,5.2-1.6l4.2-0.3v-1.2c0-0.8-0.2-1.3-0.5-1.6c-0.3-0.3-0.9-0.5-1.8-0.5
		c-0.9,0-2,0-3.5,0.1s-2.8,0.1-3.8,0.2l-0.2-3.6c2.8-0.8,5.4-1.1,7.9-1.1c2.5,0,4.3,0.5,5.4,1.6c1.1,1,1.7,2.7,1.7,5v8.1
		c0.1,0.6,0.2,1.1,0.3,1.3c0.2,0.2,0.5,0.4,0.9,0.5l-0.2,3.9c-1.3,0-2.4-0.1-3.2-0.3c-0.8-0.2-1.6-0.5-2.3-1.1
		c-1.9,0.9-3.8,1.4-5.7,1.4C1522.1,80.3,1520.1,78.2,1520.1,74z M1530.5,75.6l0.6-0.2v-4.2l-3.5,0.3c-1.4,0.1-2.2,0.9-2.2,2.3
		c0,1.4,0.6,2.1,1.9,2.1C1528.2,76.1,1529.3,75.9,1530.5,75.6z"/>
	<path d="M1541.2,60.4h5.2v1.1c1-0.6,1.9-1,2.6-1.2s1.6-0.3,2.5-0.3c2.4,0,4.1,0.8,5.1,2.3c1,1.5,1.5,3.9,1.5,7.1v10.5h-5.2V69.5
		c0-1.8-0.2-3.1-0.6-3.8c-0.4-0.7-1.2-1.1-2.4-1.1c-0.8,0-1.8,0.2-2.9,0.6l-0.5,0.2v14.5h-5.2V60.4z"/>
	<path d="M1563.7,77.9c-1.3-1.6-1.9-4.2-1.9-7.8c0-3.6,0.7-6.2,1.9-7.8c1.3-1.6,3.4-2.4,6.3-2.4c0.8,0,1.6,0.1,2.5,0.2
		s2.1,0.3,3.7,0.7l-0.2,4.1c-2.2-0.2-3.7-0.3-4.6-0.3c-1.2,0-2.1,0.2-2.7,0.5c-0.6,0.3-1.1,0.9-1.3,1.7s-0.4,1.9-0.4,3.3
		c0,1.5,0.1,2.6,0.4,3.4c0.2,0.8,0.7,1.3,1.3,1.7c0.6,0.3,1.6,0.5,2.8,0.5l4.5-0.3l0.2,4.2c-2.8,0.5-4.9,0.8-6.5,0.8
		C1567,80.3,1564.9,79.5,1563.7,77.9z"/>
	<path d="M1581,78c-1.3-1.5-2-4-2-7.4c0-3.6,0.7-6.2,2.1-8c1.4-1.8,3.6-2.6,6.6-2.6c2.8,0,4.8,0.7,6.2,2.2s2.1,3.7,2.1,6.6l-0.4,3.6
		h-11.4c0.1,0.9,0.2,1.6,0.5,2.1c0.3,0.5,0.7,0.8,1.3,1c0.6,0.2,1.5,0.3,2.6,0.3c0.9,0,1.9,0,3.1-0.1s2.1-0.1,2.6-0.2l1.1-0.1
		l0.1,3.8c-2.9,0.7-5.6,1.1-7.8,1.1C1584.5,80.3,1582.3,79.6,1581,78z M1590.9,68.4c0-1.6-0.2-2.6-0.7-3.2s-1.3-0.9-2.5-0.9
		c-1.2,0-2.1,0.3-2.6,0.9c-0.5,0.6-0.8,1.7-0.8,3.2L1590.9,68.4L1590.9,68.4z"/>
</g>
<g>
	<g>
		<path d="M128,54.2h-2.2V52h5v6.3c-1.6,0.7-3.3,1.1-5.6,1.1c-2,0-3.9-0.7-3.9-3.6v-4.8c0-2.9,1.1-4.2,4.3-4.2
			c1.4,0,3.1,0.2,4.8,0.5l-0.5,2.2c-1.9-0.3-3.1-0.4-4-0.4c-1.7,0-1.9,0.6-1.9,2.1v4.6c0,1.2,0.5,1.4,1.7,1.4c0.6,0,1.6-0.2,2.2-0.3
			V54.2z"/>
		<path d="M133.5,59.3V47h8.4l-0.4,2.3h-5.3v2.4h5.2l-0.4,2.3h-4.9V57h5.6v2.3H133.5z"/>
		<path d="M151.1,59.3l-2.3-4.9h-1.6v4.9h-2.8V47h4.7c2.5,0,4.4,0.4,4.4,3.6v0.5c0,1.5-0.6,2.5-2,3l2.7,5.2H151.1z M150.8,50.4
			c0-0.8-0.4-1.1-1.5-1.1h-2.1v3h2.4c0.9,0,1.2-0.4,1.2-1.1V50.4z"/>
		<path d="M166.6,59.3v-8.1l-3,6.2h-1.8l-3-6.2v8.1h-2.7V47h3.4l3.2,6.8l3.2-6.8h3.4v12.2H166.6z"/>
		<path d="M179.8,59.3L179,57h-4.1l-0.7,2.2h-3.1l4.3-12.2h3.1l4.3,12.2H179.8z M177,49.7l-1.5,5.1h3.1L177,49.7z"/>
		<path d="M191.8,59.3l-4.5-7.7v7.7h-2.7V47h2.7l4.6,7.6V47h2.7v12.2H191.8z"/>
	</g>
	<g>
		<path d="M121.6,76.7V62.2h5.4c4,0,5.8,1.1,5.8,5v4.6c0,3.3-1,5-5.4,5H121.6z M129.6,67.3c0-1.6-0.1-2.5-2.2-2.5h-2.5v9.3h2.3
			c2,0,2.3-0.5,2.3-1.9V67.3z"/>
		<path d="M135.7,76.7V62.2h10.1l-0.4,2.7H139v2.9h6.2l-0.4,2.7H139V74h6.7v2.7H135.7z"/>
		<path d="M159.3,72.6c0,2.6-1.8,4.3-5.6,4.3c-2.2,0-4.3-0.4-5.5-0.7l0.9-2.6c0.9,0.2,2.8,0.7,4.6,0.7c1.6,0,2.3-0.7,2.3-1.7v-0.3
			c0-1.2-0.6-1.5-1.9-1.5h-1.8c-2.7,0-4-1.5-4-4v-0.4c0.1-2.8,1.7-4.3,4.6-4.3h0.5c1.9,0,4.7,0.3,6.1,0.5l-1,2.6
			c-1.5-0.2-3.7-0.4-4.8-0.4H153c-1.1,0-1.4,0.6-1.4,1.4v0.4c0,0.7,0.3,1.2,1.3,1.2h2.1c2.7,0,4.4,1.1,4.4,4.1V72.6z"/>
		<path d="M162.1,76.7V62.2h3.3v14.6H162.1z"/>
		<path d="M176.5,70.7h-2.6V68h6v7.5c-1.9,0.9-3.9,1.3-6.7,1.3c-2.4,0-4.7-0.8-4.7-4.3V67c0-3.4,1.4-5,5.2-5c1.6,0,3.7,0.2,5.8,0.6
			l-0.6,2.6c-2.3-0.3-3.7-0.5-4.8-0.5c-2,0-2.2,0.8-2.2,2.5v5.5c0,1.4,0.5,1.7,2,1.7c0.7,0,1.9-0.2,2.7-0.4V70.7z"/>
		<path d="M191.3,76.7l-5.3-9.2v9.2h-3.2V62.2h3.2l5.4,9v-9h3.2v14.6H191.3z"/>
	</g>
	<g>
		<path d="M130.4,94.1l-0.8-2.6h-4.8l-0.8,2.6h-3.6l5.1-14.4h3.7l5,14.4H130.4z M127.1,82.9l-1.8,6h3.6L127.1,82.9z"/>
		<path d="M146.6,94.1l-2.6-9.9l-2.6,9.9h-4.3l-3.2-14.4h3.6l1.9,10.9l2.8-10.4h3.7l2.8,10.4l1.9-10.9h3.5l-3.2,14.4H146.6z"/>
		<path d="M164.2,94.1l-0.8-2.6h-4.8l-0.8,2.6h-3.6l5.1-14.4h3.7l5,14.4H164.2z M161,82.9l-1.8,6h3.6L161,82.9z"/>
		<path d="M177.7,94.1l-2.6-5.8h-1.9v5.8h-3.3V79.7h5.5c2.9,0,5.2,0.5,5.2,4.2v0.6c0,1.8-0.8,2.9-2.4,3.5l3.1,6.1H177.7z
			 M177.4,83.6c0-0.9-0.4-1.3-1.7-1.3h-2.5v3.5h2.8c1,0,1.4-0.4,1.4-1.3V83.6z"/>
		<path d="M183.8,94.1V79.7h5.4c3.9,0,5.7,1.1,5.7,4.9v4.5c0,3.2-1,4.9-5.4,4.9H183.8z M191.6,84.8c0-1.6-0.1-2.4-2.1-2.4h-2.4v9.1
			h2.3c1.9,0,2.3-0.5,2.3-1.9V84.8z"/>
	</g>
	<path d="M86.4,106.4c-15.6,0-28.4-12.6-28.4-28.1c0-6.8,2.5-13.3,6.9-18.4c4.4-5.1,10.5-8.4,17.2-9.4l0.1,0v-6.7l-0.1,0
		c-5.2-1.8-8.7-6.6-8.8-12.1h7.9c0.1,2.7,2.3,4.9,5.1,4.9c2.8,0,5-2.2,5.1-4.9h7.9c0,5.5-3.6,10.3-8.8,12.1l-0.1,0v6.7l0.1,0
		c6.6,1,12.7,4.3,17.2,9.4c4.5,5.1,6.9,11.7,6.9,18.4C114.8,93.8,102.1,106.4,86.4,106.4z M66.2,82.5c2,9.5,10.5,16.3,20.2,16.3
		c11.4,0,20.7-9.2,20.7-20.5c0-11.3-9.3-20.5-20.7-20.5c-9.7,0-18.3,6.9-20.2,16.3l0,0.1h8l0-0.1c1.8-5.2,6.7-8.7,12.2-8.7l0,7.9
		c-2.8,0.1-5,2.3-5,5c0,2.7,2.2,5,5,5v7.9c-5.5,0-10.4-3.5-12.2-8.7l0-0.1h-8L66.2,82.5z"/>
</g>
</svg>
