<svg width="165" height="61" fill="none" xmlns="http://www.w3.org/2000/svg">
  <defs>
    <style type="text/css">
     @import url('https://fonts.googleapis.com/css2?family=Inter:wght@100;200;300;400;500;600;700;800;900');
    </style>
  </defs>
  <svg x="0" y="0" width="160">
      <svg width="21" height="21" class="rating-star" x="25" viewBox="0 0 21 21" fill="none" xmlns="http://www.w3.org/2000/svg">
  <path fill-rule="evenodd" clip-rule="evenodd" d="M11.1744 3.62005C10.8538 2.72199 9.57775 2.73944 9.28191 3.64594L8.11755 7.21369C7.98329 7.62508 7.59965 7.90344 7.1669 7.90344H3.19885C2.27097 7.90344 1.8434 9.0574 2.54726 9.662L6.05289 12.6733C6.35516 12.9329 6.47443 13.3473 6.35648 13.7279L5.12932 17.6878C4.84561 18.6033 5.8878 19.3549 6.66691 18.7967L9.81334 16.5424C10.1737 16.2842 10.661 16.2941 11.0106 16.5667L14.0593 18.9435C14.8266 19.5417 15.9097 18.8031 15.6328 17.8703L14.3927 13.6919C14.278 13.3057 14.4063 12.8884 14.7181 12.6333L18.3315 9.67744C19.0589 9.08237 18.6381 7.90344 17.6983 7.90344H13.408C12.9853 7.90344 12.6083 7.63767 12.4662 7.23958L11.1744 3.62005Z" fill="#FFE380"/>
  <mask id="mask0" mask-type="alpha" maskUnits="userSpaceOnUse" x="2" y="2" width="17" height="18">
    <path fill-rule="evenodd" clip-rule="evenodd" d="M11.1744 3.62005C10.8538 2.72199 9.57775 2.73944 9.28191 3.64594L8.11755 7.21369C7.98329 7.62508 7.59965 7.90344 7.1669 7.90344H3.19885C2.27097 7.90344 1.8434 9.0574 2.54725 9.662L6.05289 12.6733C6.35516 12.9329 6.47443 13.3473 6.35648 13.7279L5.12932 17.6878C4.84561 18.6033 5.8878 19.3549 6.66691 18.7967L9.81334 16.5424C10.1737 16.2842 10.661 16.2941 11.0106 16.5667L14.0593 18.9435C14.8266 19.5417 15.9097 18.8031 15.6328 17.8703L14.3927 13.6919C14.278 13.3057 14.4063 12.8884 14.7181 12.6333L18.3315 9.67744C19.0589 9.08236 18.6381 7.90344 17.6983 7.90344H13.408C12.9853 7.90344 12.6083 7.63767 12.4662 7.23958L11.1744 3.62005Z" fill="white"/>
  </mask>
  <g mask="url(#mask0)">
    <rect x="21" y="1.86279" width="21" height="21" rx="1" fill="#D5D8E3"/>
  </g>
</svg>

      <svg width="21" height="21" class="rating-star" x="46" viewBox="0 0 21 21" fill="none" xmlns="http://www.w3.org/2000/svg">
  <path fill-rule="evenodd" clip-rule="evenodd" d="M11.1744 3.62005C10.8538 2.72199 9.57775 2.73944 9.28191 3.64594L8.11755 7.21369C7.98329 7.62508 7.59965 7.90344 7.1669 7.90344H3.19885C2.27097 7.90344 1.8434 9.0574 2.54726 9.662L6.05289 12.6733C6.35516 12.9329 6.47443 13.3473 6.35648 13.7279L5.12932 17.6878C4.84561 18.6033 5.8878 19.3549 6.66691 18.7967L9.81334 16.5424C10.1737 16.2842 10.661 16.2941 11.0106 16.5667L14.0593 18.9435C14.8266 19.5417 15.9097 18.8031 15.6328 17.8703L14.3927 13.6919C14.278 13.3057 14.4063 12.8884 14.7181 12.6333L18.3315 9.67744C19.0589 9.08237 18.6381 7.90344 17.6983 7.90344H13.408C12.9853 7.90344 12.6083 7.63767 12.4662 7.23958L11.1744 3.62005Z" fill="#FFE380"/>
  <mask id="mask0" mask-type="alpha" maskUnits="userSpaceOnUse" x="2" y="2" width="17" height="18">
    <path fill-rule="evenodd" clip-rule="evenodd" d="M11.1744 3.62005C10.8538 2.72199 9.57775 2.73944 9.28191 3.64594L8.11755 7.21369C7.98329 7.62508 7.59965 7.90344 7.1669 7.90344H3.19885C2.27097 7.90344 1.8434 9.0574 2.54725 9.662L6.05289 12.6733C6.35516 12.9329 6.47443 13.3473 6.35648 13.7279L5.12932 17.6878C4.84561 18.6033 5.8878 19.3549 6.66691 18.7967L9.81334 16.5424C10.1737 16.2842 10.661 16.2941 11.0106 16.5667L14.0593 18.9435C14.8266 19.5417 15.9097 18.8031 15.6328 17.8703L14.3927 13.6919C14.278 13.3057 14.4063 12.8884 14.7181 12.6333L18.3315 9.67744C19.0589 9.08236 18.6381 7.90344 17.6983 7.90344H13.408C12.9853 7.90344 12.6083 7.63767 12.4662 7.23958L11.1744 3.62005Z" fill="white"/>
  </mask>
  <g mask="url(#mask0)">
    <rect x="21" y="1.86279" width="21" height="21" rx="1" fill="#D5D8E3"/>
  </g>
</svg>

      <svg width="21" height="21" class="rating-star" x="67" viewBox="0 0 21 21" fill="none" xmlns="http://www.w3.org/2000/svg">
  <path fill-rule="evenodd" clip-rule="evenodd" d="M11.1744 3.62005C10.8538 2.72199 9.57775 2.73944 9.28191 3.64594L8.11755 7.21369C7.98329 7.62508 7.59965 7.90344 7.1669 7.90344H3.19885C2.27097 7.90344 1.8434 9.0574 2.54726 9.662L6.05289 12.6733C6.35516 12.9329 6.47443 13.3473 6.35648 13.7279L5.12932 17.6878C4.84561 18.6033 5.8878 19.3549 6.66691 18.7967L9.81334 16.5424C10.1737 16.2842 10.661 16.2941 11.0106 16.5667L14.0593 18.9435C14.8266 19.5417 15.9097 18.8031 15.6328 17.8703L14.3927 13.6919C14.278 13.3057 14.4063 12.8884 14.7181 12.6333L18.3315 9.67744C19.0589 9.08237 18.6381 7.90344 17.6983 7.90344H13.408C12.9853 7.90344 12.6083 7.63767 12.4662 7.23958L11.1744 3.62005Z" fill="#FFE380"/>
  <mask id="mask0" mask-type="alpha" maskUnits="userSpaceOnUse" x="2" y="2" width="17" height="18">
    <path fill-rule="evenodd" clip-rule="evenodd" d="M11.1744 3.62005C10.8538 2.72199 9.57775 2.73944 9.28191 3.64594L8.11755 7.21369C7.98329 7.62508 7.59965 7.90344 7.1669 7.90344H3.19885C2.27097 7.90344 1.8434 9.0574 2.54725 9.662L6.05289 12.6733C6.35516 12.9329 6.47443 13.3473 6.35648 13.7279L5.12932 17.6878C4.84561 18.6033 5.8878 19.3549 6.66691 18.7967L9.81334 16.5424C10.1737 16.2842 10.661 16.2941 11.0106 16.5667L14.0593 18.9435C14.8266 19.5417 15.9097 18.8031 15.6328 17.8703L14.3927 13.6919C14.278 13.3057 14.4063 12.8884 14.7181 12.6333L18.3315 9.67744C19.0589 9.08236 18.6381 7.90344 17.6983 7.90344H13.408C12.9853 7.90344 12.6083 7.63767 12.4662 7.23958L11.1744 3.62005Z" fill="white"/>
  </mask>
  <g mask="url(#mask0)">
    <rect x="21" y="1.86279" width="21" height="21" rx="1" fill="#D5D8E3"/>
  </g>
</svg>

      <svg width="21" height="21" class="rating-star" x="88" viewBox="0 0 21 21" fill="none" xmlns="http://www.w3.org/2000/svg">
  <path fill-rule="evenodd" clip-rule="evenodd" d="M11.1744 3.62005C10.8538 2.72199 9.57775 2.73944 9.28191 3.64594L8.11755 7.21369C7.98329 7.62508 7.59965 7.90344 7.1669 7.90344H3.19885C2.27097 7.90344 1.8434 9.0574 2.54726 9.662L6.05289 12.6733C6.35516 12.9329 6.47443 13.3473 6.35648 13.7279L5.12932 17.6878C4.84561 18.6033 5.8878 19.3549 6.66691 18.7967L9.81334 16.5424C10.1737 16.2842 10.661 16.2941 11.0106 16.5667L14.0593 18.9435C14.8266 19.5417 15.9097 18.8031 15.6328 17.8703L14.3927 13.6919C14.278 13.3057 14.4063 12.8884 14.7181 12.6333L18.3315 9.67744C19.0589 9.08237 18.6381 7.90344 17.6983 7.90344H13.408C12.9853 7.90344 12.6083 7.63767 12.4662 7.23958L11.1744 3.62005Z" fill="#FFE380"/>
  <mask id="mask0" mask-type="alpha" maskUnits="userSpaceOnUse" x="2" y="2" width="17" height="18">
    <path fill-rule="evenodd" clip-rule="evenodd" d="M11.1744 3.62005C10.8538 2.72199 9.57775 2.73944 9.28191 3.64594L8.11755 7.21369C7.98329 7.62508 7.59965 7.90344 7.1669 7.90344H3.19885C2.27097 7.90344 1.8434 9.0574 2.54725 9.662L6.05289 12.6733C6.35516 12.9329 6.47443 13.3473 6.35648 13.7279L5.12932 17.6878C4.84561 18.6033 5.8878 19.3549 6.66691 18.7967L9.81334 16.5424C10.1737 16.2842 10.661 16.2941 11.0106 16.5667L14.0593 18.9435C14.8266 19.5417 15.9097 18.8031 15.6328 17.8703L14.3927 13.6919C14.278 13.3057 14.4063 12.8884 14.7181 12.6333L18.3315 9.67744C19.0589 9.08236 18.6381 7.90344 17.6983 7.90344H13.408C12.9853 7.90344 12.6083 7.63767 12.4662 7.23958L11.1744 3.62005Z" fill="white"/>
  </mask>
  <g mask="url(#mask0)">
    <rect x="21" y="1.86279" width="21" height="21" rx="1" fill="#D5D8E3"/>
  </g>
</svg>

      <svg width="21" height="21" class="rating-star" x="109" viewBox="0 0 21 21" fill="none" xmlns="http://www.w3.org/2000/svg">
  <path fill-rule="evenodd" clip-rule="evenodd" d="M11.1744 3.62005C10.8538 2.72199 9.57775 2.73944 9.28191 3.64594L8.11755 7.21369C7.98329 7.62508 7.59965 7.90344 7.1669 7.90344H3.19885C2.27097 7.90344 1.8434 9.0574 2.54726 9.662L6.05289 12.6733C6.35516 12.9329 6.47443 13.3473 6.35648 13.7279L5.12932 17.6878C4.84561 18.6033 5.8878 19.3549 6.66691 18.7967L9.81334 16.5424C10.1737 16.2842 10.661 16.2941 11.0106 16.5667L14.0593 18.9435C14.8266 19.5417 15.9097 18.8031 15.6328 17.8703L14.3927 13.6919C14.278 13.3057 14.4063 12.8884 14.7181 12.6333L18.3315 9.67744C19.0589 9.08237 18.6381 7.90344 17.6983 7.90344H13.408C12.9853 7.90344 12.6083 7.63767 12.4662 7.23958L11.1744 3.62005Z" fill="#FFE380"/>
  <mask id="mask0" mask-type="alpha" maskUnits="userSpaceOnUse" x="2" y="2" width="17" height="18">
    <path fill-rule="evenodd" clip-rule="evenodd" d="M11.1744 3.62005C10.8538 2.72199 9.57775 2.73944 9.28191 3.64594L8.11755 7.21369C7.98329 7.62508 7.59965 7.90344 7.1669 7.90344H3.19885C2.27097 7.90344 1.8434 9.0574 2.54725 9.662L6.05289 12.6733C6.35516 12.9329 6.47443 13.3473 6.35648 13.7279L5.12932 17.6878C4.84561 18.6033 5.8878 19.3549 6.66691 18.7967L9.81334 16.5424C10.1737 16.2842 10.661 16.2941 11.0106 16.5667L14.0593 18.9435C14.8266 19.5417 15.9097 18.8031 15.6328 17.8703L14.3927 13.6919C14.278 13.3057 14.4063 12.8884 14.7181 12.6333L18.3315 9.67744C19.0589 9.08236 18.6381 7.90344 17.6983 7.90344H13.408C12.9853 7.90344 12.6083 7.63767 12.4662 7.23958L11.1744 3.62005Z" fill="white"/>
  </mask>
  <g mask="url(#mask0)">
    <rect x="16.799999999999997" y="1.86279" width="21" height="21" rx="1" fill="#D5D8E3"/>
  </g>
</svg>


    <svg class="rating-ios-icon" width="17" height="21" y="24" viewBox="0 0 17 21" fill="none" xmlns="http://www.w3.org/2000/svg">
  <path d="M11.3815 3.39544C10.6836 4.23513 9.56681 4.89742 8.45006 4.80281C8.31046 3.66745 8.85721 2.46114 9.49701 1.71606C10.195 0.85272 11.4164 0.237736 12.4052 0.19043C12.5216 1.37309 12.0679 2.5321 11.3815 3.39544ZM12.3936 5.02751C10.7766 4.9329 9.39232 5.96181 8.62455 5.96181C7.84515 5.96181 6.67023 5.07482 5.39061 5.09847C3.72711 5.12212 2.17994 6.08008 1.33074 7.60571C-0.414187 10.657 0.877061 15.1747 2.56383 17.6583C3.38976 18.8883 4.37855 20.2365 5.68143 20.1892C6.91452 20.1419 7.4031 19.3732 8.89211 19.3732C10.3927 19.3732 10.8232 20.1892 12.126 20.1656C13.4755 20.1419 14.3247 18.9356 15.1506 17.7056C16.0928 16.3101 16.4767 14.95 16.5 14.8791C16.4767 14.8554 13.8942 13.8502 13.871 10.8225C13.8477 8.29165 15.9067 7.08534 15.9998 7.01438C14.8365 5.26404 13.0218 5.07482 12.3936 5.02751Z" fill="#D5D8E3"/>
</svg>


<text x="82" y="40" text-anchor="middle" font-family="Inter" font-size="14" font-weight="300" fill="black">
  4.8 on Apple store
</text>

  </svg>
</svg>
