<?xml version="1.0" standalone="no"?>
<!DOCTYPE svg PUBLIC "-//W3C//DTD SVG 20010904//EN"
 "http://www.w3.org/TR/2001/REC-SVG-20010904/DTD/svg10.dtd">
<svg version="1.0" xmlns="http://www.w3.org/2000/svg"
 width="256.000000pt" height="256.000000pt" viewBox="0 0 256.000000 256.000000"
 preserveAspectRatio="xMidYMid meet">
<metadata>
Created by potrace 1.11, written by Peter Selinger 2001-2013
</metadata>
<g transform="translate(0.000000,256.000000) scale(0.100000,-0.100000)"
fill="#000000" stroke="none">
<path d="M1246 2543 c-4 -5 -11 -8 -14 -8 -4 0 -18 -8 -32 -17 -54 -34 -152
-88 -160 -88 -5 0 -14 -8 -19 -17 -6 -10 -11 -14 -11 -10 0 5 -13 -1 -29 -12
-16 -12 -33 -21 -39 -21 -5 0 -19 -9 -32 -20 -13 -11 -29 -20 -36 -20 -7 0
-19 -6 -26 -12 -7 -7 -33 -24 -58 -37 -25 -14 -48 -29 -52 -35 -4 -6 -8 -7 -8
-3 0 4 -17 -4 -37 -18 -21 -14 -43 -25 -50 -25 -7 0 -13 -3 -13 -8 0 -4 -21
-18 -48 -31 -26 -14 -62 -35 -79 -48 -18 -13 -33 -21 -33 -17 0 3 -7 0 -16 -7
-22 -18 -53 -36 -86 -50 -16 -6 -28 -15 -28 -21 0 -5 -4 -7 -9 -3 -5 3 -12 1
-15 -3 -3 -5 -35 -26 -71 -47 -36 -21 -65 -41 -66 -44 0 -3 -3 -15 -5 -26 -8
-32 -7 -1197 0 -1231 5 -24 20 -40 57 -63 28 -17 53 -31 56 -31 3 0 17 -8 31
-19 27 -18 103 -62 154 -88 15 -8 30 -18 33 -24 4 -5 16 -9 27 -9 12 0 18 -3
15 -7 -4 -3 17 -18 46 -32 28 -14 54 -28 57 -31 9 -10 151 -90 161 -90 5 0 9
-3 9 -7 0 -5 23 -19 50 -32 28 -14 50 -28 50 -32 0 -4 11 -10 24 -13 14 -3 31
-12 38 -19 7 -6 34 -23 61 -36 26 -13 47 -28 47 -33 0 -5 4 -7 9 -3 5 3 15 0
23 -7 7 -7 27 -20 43 -28 17 -8 42 -22 57 -32 32 -22 76 -23 104 -3 12 8 24
12 26 9 3 -2 11 2 18 11 7 8 19 15 26 15 8 0 14 5 14 10 0 6 4 10 9 10 7 0
180 97 276 155 11 7 22 12 25 11 3 0 19 9 35 20 17 12 86 54 155 94 69 40 139
80 155 90 43 25 153 89 200 116 22 13 55 31 73 40 18 9 30 19 27 22 -3 3 2 13
10 22 14 15 15 93 13 638 l-3 622 -33 30 c-18 16 -40 30 -48 30 -8 0 -14 5
-14 12 0 6 -3 9 -6 5 -4 -3 -21 4 -38 16 -17 13 -44 30 -61 37 -16 8 -32 17
-35 20 -3 3 -14 10 -25 16 -88 47 -111 60 -115 65 -5 5 -103 60 -147 83 -13 6
-23 15 -23 19 0 5 -4 5 -10 2 -5 -3 -10 -1 -10 4 0 6 -4 11 -9 11 -8 0 -255
140 -276 157 -11 9 -74 43 -140 77 -22 11 -42 23 -45 26 -18 24 -88 39 -104
23z m30 -309 c-3 -7 -1 -16 5 -19 5 -4 6 -12 2 -18 -11 -17 -11 -60 0 -74 6
-8 6 -13 0 -13 -5 0 -9 -11 -9 -25 0 -14 4 -25 9 -25 4 0 5 -6 0 -12 -11 -18
-11 -31 0 -45 6 -8 6 -13 0 -13 -5 0 -9 -11 -9 -25 0 -14 4 -25 9 -25 4 0 5
-6 0 -12 -11 -18 -11 -31 0 -45 6 -8 6 -13 0 -13 -5 0 -9 -11 -9 -25 0 -14 4
-25 9 -25 5 0 5 -6 -1 -12 -6 -7 -10 -17 -10 -23 0 -5 4 -16 10 -22 6 -7 6
-13 1 -13 -5 0 -9 -11 -9 -25 0 -14 4 -25 9 -25 5 0 5 -6 -1 -12 -6 -7 -10
-17 -10 -23 0 -5 4 -16 10 -22 6 -7 6 -13 1 -13 -5 0 -9 -11 -9 -25 0 -14 4
-25 9 -25 4 0 5 -6 0 -12 -11 -18 -11 -31 0 -45 6 -8 6 -13 0 -13 -5 0 -9 -11
-9 -25 0 -14 4 -25 9 -25 4 0 5 -6 0 -12 -11 -18 -11 -31 -1 -45 5 -6 5 -14
-1 -17 -11 -7 -9 -24 8 -55 11 -19 18 -22 44 -17 17 4 33 10 37 15 3 4 30 21
60 38 120 66 205 117 212 127 4 6 8 8 8 4 0 -4 21 6 47 22 26 17 53 30 60 30
7 0 13 3 13 8 0 4 28 23 63 42 34 19 71 40 82 47 11 7 27 15 35 19 8 4 31 17
50 29 19 12 57 34 83 49 l49 26 -2 -32 c-1 -18 -1 -37 0 -43 1 -5 2 -14 1 -18
-2 -12 -3 -210 0 -222 5 -28 3 -41 -6 -47 -6 -5 -5 -8 3 -8 8 0 10 -5 5 -12
-8 -14 -6 -115 3 -129 3 -5 -1 -9 -8 -10 -10 0 -10 -2 0 -6 6 -2 9 -10 6 -15
-6 -9 -9 -163 -3 -178 1 -3 1 -9 0 -13 -5 -29 -2 -217 3 -226 4 -6 2 -11 -4
-11 -6 0 -9 -4 -6 -9 3 -5 -9 -16 -27 -25 -17 -9 -45 -24 -62 -34 -16 -10 -77
-44 -135 -77 -58 -33 -111 -65 -118 -72 -6 -6 -22 -15 -35 -19 -12 -3 -29 -12
-37 -19 -8 -7 -37 -25 -65 -40 -58 -31 -79 -43 -236 -136 -64 -38 -122 -69
-129 -69 -6 0 -39 16 -71 35 -33 19 -64 35 -70 35 -5 0 -9 5 -9 10 0 6 -4 10
-9 10 -9 0 -222 119 -231 129 -3 3 -31 20 -62 36 -32 17 -58 34 -58 38 0 5 -4
6 -9 3 -5 -4 -11 -3 -13 1 -1 5 -21 17 -42 28 -22 11 -45 25 -51 30 -6 6 -29
19 -50 31 -117 62 -174 99 -177 113 -3 13 -2 890 1 957 1 12 14 27 34 37 17 9
39 21 47 26 56 36 243 141 251 141 5 0 9 5 9 10 0 6 4 10 9 10 5 0 63 32 130
70 66 39 125 70 131 70 5 0 10 4 10 8 0 5 23 19 50 32 28 13 50 27 50 31 0 4
15 13 34 19 19 6 40 17 46 25 7 8 16 12 21 9 5 -3 9 0 9 6 0 6 5 8 11 5 6 -4
8 -13 5 -21z"/>
</g>
</svg>
