<?xml version="1.0" encoding="utf-8"?>
<!-- Generator: Adobe Illustrator 23.0.2, SVG Export Plug-In . SVG Version: 6.00 Build 0)  -->
<svg version="1.1" id="Capa_1" xmlns="http://www.w3.org/2000/svg" xmlns:xlink="http://www.w3.org/1999/xlink" x="0px" y="0px"
	 viewBox="0 0 260 140" style="enable-background:new 0 0 260 140;" xml:space="preserve">
<g>
	<path d="M1448.5,60.4h5.1l2.4,15h0.9l2.9-14.6h5.4l3,14.6h0.9l2.4-15h5.1l-3.7,19.4h-8.2l-2.2-11.9l-2.2,11.9h-8.2L1448.5,60.4z"/>
	<path d="M1481.1,78c-1.3-1.5-2-4-2-7.4c0-3.6,0.7-6.2,2.1-8c1.4-1.8,3.6-2.6,6.6-2.6c2.7,0,4.8,0.7,6.2,2.2
		c1.4,1.5,2.1,3.7,2.1,6.6l-0.4,3.6h-11.4c0.1,0.9,0.2,1.6,0.5,2.1c0.3,0.5,0.7,0.8,1.3,1c0.6,0.2,1.5,0.3,2.5,0.3
		c0.9,0,1.9,0,3.1-0.1c1.2-0.1,2.1-0.1,2.6-0.2l1.1-0.1l0.1,3.8c-2.9,0.7-5.6,1.1-7.9,1.1C1484.6,80.3,1482.4,79.6,1481.1,78z
		 M1491,68.4c0-1.6-0.2-2.6-0.7-3.2c-0.5-0.6-1.3-0.9-2.6-0.9c-1.2,0-2.1,0.3-2.6,0.9s-0.8,1.7-0.8,3.2L1491,68.4L1491,68.4z"/>
	<path d="M1499.8,60.4h5.2v1.1c1-0.6,1.9-1,2.6-1.2c0.8-0.2,1.6-0.3,2.5-0.3c2.4,0,4.1,0.8,5.1,2.3c1,1.5,1.5,3.9,1.5,7.1v10.5h-5.2
		V69.5c0-1.8-0.2-3.1-0.6-3.8c-0.4-0.7-1.2-1.1-2.4-1.1c-0.9,0-1.8,0.2-2.9,0.6l-0.5,0.2v14.5h-5.2V60.4z"/>
	<path d="M1520.1,74c0-2,0.5-3.5,1.6-4.4c1.1-0.9,2.8-1.4,5.2-1.6l4.2-0.3v-1.2c0-0.8-0.2-1.3-0.5-1.6c-0.3-0.3-0.9-0.5-1.8-0.5
		c-0.9,0-2,0-3.5,0.1s-2.8,0.1-3.8,0.2l-0.2-3.6c2.8-0.8,5.4-1.1,7.9-1.1c2.5,0,4.3,0.5,5.4,1.6c1.1,1,1.7,2.7,1.7,5v8.1
		c0.1,0.6,0.2,1.1,0.3,1.3c0.2,0.2,0.5,0.4,0.9,0.5l-0.2,3.9c-1.3,0-2.4-0.1-3.2-0.3c-0.8-0.2-1.6-0.5-2.3-1.1
		c-1.9,0.9-3.8,1.4-5.7,1.4C1522.1,80.3,1520.1,78.2,1520.1,74z M1530.5,75.6l0.6-0.2v-4.2l-3.5,0.3c-1.4,0.1-2.2,0.9-2.2,2.3
		c0,1.4,0.6,2.1,1.9,2.1C1528.2,76.1,1529.3,75.9,1530.5,75.6z"/>
	<path d="M1541.2,60.4h5.2v1.1c1-0.6,1.9-1,2.6-1.2s1.6-0.3,2.5-0.3c2.4,0,4.1,0.8,5.1,2.3c1,1.5,1.5,3.9,1.5,7.1v10.5h-5.2V69.5
		c0-1.8-0.2-3.1-0.6-3.8c-0.4-0.7-1.2-1.1-2.4-1.1c-0.8,0-1.8,0.2-2.9,0.6l-0.5,0.2v14.5h-5.2V60.4z"/>
	<path d="M1563.7,77.9c-1.3-1.6-1.9-4.2-1.9-7.8c0-3.6,0.7-6.2,1.9-7.8c1.3-1.6,3.4-2.4,6.3-2.4c0.8,0,1.6,0.1,2.5,0.2
		s2.1,0.3,3.7,0.7l-0.2,4.1c-2.2-0.2-3.7-0.3-4.6-0.3c-1.2,0-2.1,0.2-2.7,0.5c-0.6,0.3-1.1,0.9-1.3,1.7s-0.4,1.9-0.4,3.3
		c0,1.5,0.1,2.6,0.4,3.4c0.2,0.8,0.7,1.3,1.3,1.7c0.6,0.3,1.6,0.5,2.8,0.5l4.5-0.3l0.2,4.2c-2.8,0.5-4.9,0.8-6.5,0.8
		C1567,80.3,1564.9,79.5,1563.7,77.9z"/>
	<path d="M1581,78c-1.3-1.5-2-4-2-7.4c0-3.6,0.7-6.2,2.1-8c1.4-1.8,3.6-2.6,6.6-2.6c2.8,0,4.8,0.7,6.2,2.2s2.1,3.7,2.1,6.6l-0.4,3.6
		h-11.4c0.1,0.9,0.2,1.6,0.5,2.1c0.3,0.5,0.7,0.8,1.3,1c0.6,0.2,1.5,0.3,2.6,0.3c0.9,0,1.9,0,3.1-0.1s2.1-0.1,2.6-0.2l1.1-0.1
		l0.1,3.8c-2.9,0.7-5.6,1.1-7.8,1.1C1584.5,80.3,1582.3,79.6,1581,78z M1590.9,68.4c0-1.6-0.2-2.6-0.7-3.2s-1.3-0.9-2.5-0.9
		c-1.2,0-2.1,0.3-2.6,0.9c-0.5,0.6-0.8,1.7-0.8,3.2L1590.9,68.4L1590.9,68.4z"/>
</g>
<path d="M160.8,47.9c-0.1-0.4-0.3-0.7-0.5-1c-0.2-0.3-0.5-0.5-0.8-0.7c-0.3-0.2-0.7-0.2-1.2-0.2c-0.4,0-0.8,0.1-1.2,0.3
	c-0.3,0.2-0.6,0.4-0.8,0.7c-0.2,0.3-0.4,0.7-0.5,1c-0.1,0.4-0.1,0.8-0.1,1.2c0,1,0.2,1.8,0.7,2.4c0.5,0.6,1.1,0.9,2,0.9
	c0.5,0,0.9-0.1,1.2-0.3c0.3-0.2,0.6-0.4,0.8-0.7c0.2-0.3,0.4-0.7,0.5-1c0.1-0.4,0.1-0.8,0.1-1.2C160.9,48.8,160.9,48.3,160.8,47.9
	 M155.7,52.2c-0.7-0.7-1-1.7-1-3c0-1.2,0.3-2.2,0.9-2.9c0.6-0.8,1.5-1.2,2.7-1.2c1.2,0,2.1,0.4,2.7,1.2c0.6,0.8,0.9,1.7,0.9,2.9
	c0,1.2-0.3,2.2-1,3c-0.7,0.7-1.5,1.1-2.6,1.1C157.3,53.3,156.4,52.9,155.7,52.2"/>
<path d="M134.7,65.4h2.5c0.5,0,1-0.1,1.3-0.3c0.3-0.2,0.5-0.6,0.5-1.1c0-0.5-0.2-0.9-0.5-1.2c-0.3-0.2-0.7-0.4-1.2-0.4h-2.6V65.4z
	 M134.7,60.9h2.4c0.4,0,0.8-0.1,1-0.3c0.3-0.2,0.4-0.5,0.4-1c0-0.5-0.1-0.8-0.4-1c-0.3-0.2-0.7-0.3-1.2-0.3h-2.2V60.9z M132.3,56.5
	h5c1.1,0,1.9,0.2,2.5,0.6c0.6,0.4,0.9,1.1,0.9,2c0,1-0.5,1.8-1.5,2.2c0.6,0.2,1.1,0.5,1.5,1c0.3,0.5,0.5,1.1,0.5,1.7
	c0,0.5-0.1,1-0.3,1.4c-0.2,0.4-0.5,0.7-0.8,1c-0.4,0.3-0.8,0.4-1.2,0.6c-0.5,0.1-0.9,0.2-1.4,0.2h-5.2V56.5z"/>
<path d="M149.6,67.2h-2v-1.1h0c-0.3,0.4-0.6,0.7-1,1c-0.4,0.2-0.9,0.3-1.3,0.3c-0.5,0-1-0.1-1.4-0.2c-0.4-0.1-0.7-0.4-0.9-0.6
	c-0.2-0.3-0.4-0.6-0.4-1c-0.1-0.4-0.1-0.8-0.1-1.3v-4.8h2.1v4.4c0,0.7,0.1,1.1,0.3,1.4c0.2,0.3,0.6,0.5,1,0.5c0.6,0,1-0.2,1.3-0.5
	c0.3-0.3,0.4-0.9,0.4-1.7v-4.1h2.1V67.2z"/>
<path d="M156.1,62.5c-0.1-0.6-0.3-1-0.6-1.2c-0.3-0.3-0.6-0.4-1.1-0.4c-0.3,0-0.6,0.1-0.8,0.2c-0.2,0.1-0.4,0.2-0.6,0.4
	c-0.1,0.2-0.2,0.3-0.3,0.5c-0.1,0.2-0.1,0.4-0.1,0.5H156.1z M152.7,63.9c0,0.7,0.2,1.2,0.5,1.5c0.3,0.3,0.8,0.5,1.4,0.5
	c0.4,0,0.8-0.1,1.1-0.3c0.3-0.2,0.5-0.4,0.6-0.7h1.9c-0.3,0.9-0.7,1.5-1.4,2c-0.6,0.4-1.4,0.6-2.3,0.6c-0.6,0-1.1-0.1-1.6-0.3
	c-0.5-0.2-0.9-0.5-1.3-0.8c-0.3-0.4-0.6-0.8-0.8-1.3c-0.2-0.5-0.3-1.1-0.3-1.6c0-0.6,0.1-1.1,0.3-1.6c0.2-0.5,0.5-0.9,0.8-1.3
	c0.3-0.4,0.8-0.7,1.3-0.9c0.5-0.2,1-0.3,1.6-0.3c0.6,0,1.1,0.1,1.6,0.3c0.5,0.2,0.9,0.5,1.2,0.9c0.3,0.4,0.6,0.8,0.7,1.3
	c0.2,0.5,0.2,1.1,0.2,1.6c0,0,0,0.1,0,0.2v0.2H152.7z"/>
<path d="M159.2,59.5h2v1.1h0c0.3-0.4,0.6-0.7,1-1c0.4-0.2,0.9-0.3,1.3-0.3c0.6,0,1,0.1,1.4,0.2c0.4,0.2,0.7,0.4,0.9,0.6
	c0.2,0.3,0.4,0.6,0.5,1c0.1,0.4,0.1,0.8,0.1,1.3v4.8h-2.1v-4.4c0-0.7-0.1-1.1-0.3-1.4c-0.2-0.3-0.6-0.5-1-0.5c-0.6,0-1,0.2-1.3,0.5
	c-0.3,0.3-0.4,0.9-0.4,1.7v4.1h-2.1V59.5z"/>
<path d="M134.7,79.4h2.1c0.4,0,0.7-0.1,1-0.2c0.3-0.1,0.6-0.3,0.8-0.6c0.3-0.3,0.5-0.6,0.6-1c0.1-0.4,0.2-0.9,0.2-1.5
	c0-1.2-0.2-2-0.7-2.6c-0.5-0.6-1.3-0.9-2.4-0.9h-1.7V79.4z M132.3,70.7h4.6c1.5,0,2.6,0.5,3.5,1.4c0.9,0.9,1.3,2.2,1.3,3.9
	c0,0.8-0.1,1.5-0.3,2.2c-0.2,0.7-0.5,1.2-0.9,1.7c-0.4,0.5-0.9,0.9-1.5,1.1c-0.6,0.3-1.3,0.4-2.1,0.4h-4.6V70.7z"/>
<path d="M132.9,49.9c0.1,0.9,0.4,1.6,0.9,2c0.5,0.4,1.3,0.6,2.2,0.6c0.9,0,1.6-0.2,2.1-0.6c0.5-0.4,0.7-1,0.7-1.6
	c0-0.4-0.1-0.7-0.2-0.9c-0.2-0.3-0.4-0.5-0.6-0.6c-0.3-0.2-0.6-0.3-0.9-0.4c-0.3-0.1-0.7-0.2-1.2-0.3c-0.6-0.1-1.1-0.3-1.4-0.4
	c-0.4-0.1-0.7-0.3-1.1-0.5c-0.3-0.2-0.6-0.5-0.8-0.9c-0.2-0.4-0.3-0.8-0.3-1.3c0-0.8,0.3-1.5,1-2c0.6-0.6,1.5-0.8,2.7-0.8
	c1.2,0,2.1,0.3,2.7,0.9c0.6,0.6,0.9,1.4,0.9,2.3h-1c0-0.8-0.3-1.4-0.8-1.8c-0.5-0.4-1.1-0.6-1.9-0.6c-0.9,0-1.5,0.2-2,0.6
	c-0.5,0.4-0.7,0.9-0.7,1.5c0,0.1,0,0.2,0,0.3c0,0.3,0.2,0.5,0.3,0.7c0.2,0.2,0.4,0.4,0.7,0.5c0.3,0.1,0.5,0.2,0.8,0.3
	c0.3,0.1,0.7,0.2,1.1,0.3c0.6,0.1,1.1,0.3,1.5,0.4c0.4,0.1,0.7,0.3,1.1,0.5c0.3,0.2,0.6,0.5,0.8,0.9c0.2,0.4,0.3,0.8,0.3,1.4
	c0,1-0.3,1.8-1,2.3c-0.7,0.6-1.7,0.8-2.9,0.8c-1.2,0-2.1-0.3-2.8-0.9c-0.7-0.6-1.1-1.5-1.1-2.6H132.9z"/>
<path d="M146.8,48.7c0-0.8-0.2-1.4-0.6-2c-0.4-0.5-1-0.8-1.8-0.8c-0.8,0-1.3,0.3-1.8,0.8c-0.4,0.5-0.7,1.2-0.8,2H146.8z M141.8,49.4
	c0,0.9,0.2,1.6,0.7,2.2c0.5,0.6,1.1,0.9,1.9,0.9c0.6,0,1.1-0.2,1.5-0.5c0.4-0.3,0.7-0.8,0.8-1.3h1c-0.2,0.8-0.6,1.4-1.2,1.9
	c-0.5,0.5-1.3,0.7-2.2,0.7c-0.6,0-1.1-0.1-1.6-0.3c-0.5-0.2-0.8-0.5-1.1-0.9c-0.3-0.4-0.5-0.8-0.7-1.3c-0.1-0.5-0.2-1-0.2-1.6
	c0-0.6,0.1-1.1,0.2-1.6c0.2-0.5,0.4-0.9,0.7-1.3c0.3-0.4,0.7-0.7,1.1-0.9c0.4-0.2,0.9-0.3,1.5-0.3c1.1,0,1.9,0.4,2.5,1.1
	c0.6,0.7,0.9,1.8,0.9,3.2H141.8z"/>
<rect x="149.3" y="42.3" width="0.9" height="10.8"/>
<rect x="152.4" y="42.3" width="0.9" height="10.8"/>
<path d="M142.9,73.6h2.1v7.8h-2.1V73.6z M145.1,72.4h-2.1v-1.8h2.1V72.4z"/>
<path d="M148.1,78.9c0,0.4,0.2,0.8,0.5,1c0.3,0.2,0.7,0.3,1.2,0.3c0.4,0,0.7-0.1,1-0.2c0.3-0.2,0.4-0.4,0.4-0.8
	c0-0.3-0.2-0.5-0.5-0.7c-0.4-0.2-1-0.3-1.9-0.5c-0.4-0.1-0.7-0.2-1-0.3c-0.3-0.1-0.5-0.2-0.8-0.4c-0.2-0.2-0.4-0.4-0.6-0.6
	c-0.1-0.2-0.2-0.5-0.2-0.8c0-0.5,0.1-0.9,0.3-1.2c0.2-0.3,0.4-0.6,0.8-0.8c0.3-0.2,0.7-0.3,1.1-0.4c0.4-0.1,0.8-0.1,1.3-0.1
	c0.4,0,0.9,0,1.3,0.1c0.4,0.1,0.7,0.2,1.1,0.4c0.3,0.2,0.6,0.4,0.8,0.8c0.2,0.3,0.3,0.7,0.4,1.2h-2c0-0.4-0.2-0.7-0.4-0.8
	c-0.3-0.2-0.6-0.2-1-0.2c-0.3,0-0.6,0-0.8,0.1c-0.2,0.1-0.3,0.3-0.3,0.6c0,0.3,0.1,0.5,0.4,0.6c0.3,0.1,0.8,0.3,1.4,0.4
	c0.3,0.1,0.5,0.1,0.6,0.1c0.4,0.1,0.7,0.2,1,0.3c0.3,0.1,0.5,0.2,0.8,0.4c0.2,0.2,0.4,0.4,0.5,0.6c0.1,0.2,0.2,0.5,0.2,0.9
	c0,0.5-0.1,0.9-0.3,1.3c-0.2,0.4-0.5,0.6-0.8,0.8c-0.3,0.2-0.7,0.4-1.1,0.5c-0.4,0.1-0.9,0.1-1.3,0.1c-0.5,0-0.9,0-1.3-0.1
	c-0.4-0.1-0.8-0.2-1.1-0.5c-0.3-0.2-0.6-0.5-0.8-0.9c-0.2-0.4-0.3-0.8-0.3-1.3H148.1z"/>
<path d="M159.4,76.7c-0.1-0.6-0.3-1-0.5-1.2c-0.3-0.3-0.6-0.4-1.1-0.4c-0.3,0-0.6,0.1-0.8,0.2c-0.2,0.1-0.4,0.2-0.5,0.4
	c-0.1,0.2-0.2,0.3-0.3,0.5c-0.1,0.2-0.1,0.4-0.1,0.5H159.4z M155.9,78c0,0.7,0.2,1.2,0.5,1.5c0.3,0.3,0.8,0.5,1.4,0.5
	c0.4,0,0.8-0.1,1.1-0.3c0.3-0.2,0.5-0.4,0.6-0.7h1.9c-0.3,0.9-0.7,1.5-1.4,2c-0.6,0.4-1.4,0.6-2.3,0.6c-0.6,0-1.1-0.1-1.6-0.3
	c-0.5-0.2-0.9-0.5-1.3-0.8c-0.3-0.4-0.6-0.8-0.8-1.3c-0.2-0.5-0.3-1.1-0.3-1.6c0-0.6,0.1-1.1,0.3-1.6c0.2-0.5,0.5-0.9,0.8-1.3
	c0.4-0.4,0.8-0.7,1.3-0.9c0.5-0.2,1-0.3,1.6-0.3c0.6,0,1.2,0.1,1.6,0.3c0.5,0.2,0.9,0.5,1.2,0.9c0.3,0.4,0.6,0.8,0.7,1.3
	c0.2,0.5,0.2,1,0.2,1.6c0,0,0,0.1,0,0.2V78H155.9z"/>
<path d="M168.8,70.7L168.8,70.7c-0.1,0.3-0.2,0.5-0.2,0.6c-0.1,0.2-0.2,0.3-0.2,0.5c-0.1,0.2-0.3,0.3-0.5,0.4
	c-0.2,0.1-0.4,0.2-0.7,0.2c-0.3,0-0.7-0.1-1.2-0.2l0,0h0c-0.5-0.2-0.8-0.3-1-0.3c-0.2,0-0.3,0.1-0.4,0.2c-0.1,0.1-0.2,0.3-0.2,0.5
	h-0.9c0.1-0.3,0.1-0.5,0.2-0.7c0.1-0.2,0.2-0.4,0.3-0.6c0.1-0.2,0.3-0.3,0.5-0.4c0.2-0.1,0.5-0.2,0.8-0.2c0.2,0,0.5,0.1,0.9,0.2
	l0.1,0c0.4,0.2,0.8,0.3,1,0.3c0.4,0,0.6-0.2,0.6-0.5H168.8z M162.4,73.6h2v1.1h0c0.3-0.4,0.6-0.7,1-1c0.4-0.2,0.9-0.3,1.3-0.3
	c0.5,0,1,0.1,1.4,0.2c0.4,0.1,0.7,0.4,0.9,0.6c0.2,0.3,0.4,0.6,0.5,1c0.1,0.4,0.1,0.8,0.1,1.3v4.8h-2.1V77c0-0.6-0.1-1.1-0.3-1.4
	c-0.2-0.3-0.6-0.5-1-0.5c-0.6,0-1,0.2-1.3,0.5c-0.3,0.3-0.4,0.9-0.4,1.7v4.1h-2.1V73.6z"/>
<path d="M173,78.4c0.1,0.3,0.2,0.6,0.3,0.8c0.1,0.2,0.3,0.4,0.6,0.6c0.2,0.1,0.5,0.2,0.9,0.2c0.3,0,0.6-0.1,0.9-0.2
	c0.2-0.1,0.4-0.3,0.6-0.6c0.1-0.2,0.2-0.5,0.3-0.8c0.1-0.3,0.1-0.6,0.1-0.9c0-0.3,0-0.6-0.1-0.9c-0.1-0.3-0.2-0.6-0.3-0.8
	c-0.1-0.2-0.3-0.4-0.6-0.6c-0.2-0.1-0.5-0.2-0.9-0.2c-0.3,0-0.6,0.1-0.9,0.2c-0.2,0.1-0.4,0.3-0.6,0.6c-0.1,0.2-0.2,0.5-0.3,0.8
	c-0.1,0.3-0.1,0.6-0.1,0.9C172.9,77.8,172.9,78.1,173,78.4 M171.9,74.5c0.7-0.7,1.7-1.1,2.9-1.1c1.2,0,2.2,0.4,2.9,1.1
	c0.7,0.7,1.1,1.7,1.1,3c0,1.2-0.4,2.2-1.1,3c-0.7,0.7-1.7,1.1-2.9,1.1c-1.2,0-2.2-0.4-2.9-1.1c-0.7-0.7-1.1-1.7-1.1-3
	C170.8,76.3,171.1,75.3,171.9,74.5"/>
<path d="M137.5,91.4c-0.3,0.1-0.7,0.2-1,0.3c-0.3,0.1-0.8,0.1-1.3,0.1c-0.7,0-1.3,0.2-1.6,0.5c-0.4,0.3-0.6,0.7-0.6,1.2
	c0,0.5,0.2,0.8,0.5,1c0.3,0.2,0.7,0.4,1.2,0.4c0.4,0,0.7,0,1.1-0.1c0.3-0.1,0.6-0.2,0.9-0.4c0.3-0.2,0.5-0.4,0.6-0.7
	c0.2-0.3,0.2-0.6,0.2-1V91.4z M135.9,91c0.2,0,0.4-0.1,0.6-0.1c0.2,0,0.4-0.1,0.5-0.2c0.1-0.1,0.2-0.2,0.3-0.3
	c0-0.1,0.1-0.3,0.1-0.5c0-0.5-0.2-0.9-0.5-1.2c-0.3-0.3-0.8-0.4-1.5-0.4c-0.7,0-1.2,0.1-1.6,0.4c-0.4,0.3-0.6,0.7-0.7,1.4h-0.9
	c0.1-0.9,0.4-1.5,1-1.9c0.6-0.4,1.3-0.6,2.2-0.6c0.9,0,1.5,0.2,2.1,0.6c0.5,0.4,0.8,1,0.8,1.8v4.2c0,0.5,0.1,0.7,0.4,0.7
	c0.1,0,0.3,0,0.5-0.1v0.7c-0.1,0-0.2,0.1-0.4,0.1c-0.1,0-0.2,0-0.3,0c-0.1,0-0.3,0-0.4,0c-0.3,0-0.5-0.2-0.6-0.4
	c-0.1-0.2-0.2-0.5-0.2-0.8c-0.4,0.4-0.8,0.7-1.3,1c-0.5,0.2-1,0.3-1.6,0.3c-0.7,0-1.3-0.2-1.8-0.6c-0.5-0.4-0.8-0.9-0.8-1.7
	c0-1.3,0.9-2.1,2.7-2.3L135.9,91z"/>
<path d="M141.3,95.5h-0.9v-7.8h0.9v1.5h0c0.2-0.6,0.6-1,0.9-1.3c0.4-0.3,0.9-0.4,1.6-0.4v1c-0.5,0-0.9,0.1-1.2,0.2
	c-0.3,0.2-0.6,0.4-0.8,0.7c-0.2,0.3-0.3,0.6-0.4,1c-0.1,0.4-0.1,0.8-0.1,1.3V95.5z"/>
<path d="M150.3,89.3c-0.5-0.6-1.1-0.9-1.9-0.9c-0.8,0-1.4,0.3-1.9,0.8c-0.5,0.5-0.7,1.3-0.8,2.2c0,1.1,0.2,1.9,0.7,2.6
	c0.5,0.6,1.1,1,2,1c0.4,0,0.8-0.1,1.1-0.3c0.3-0.2,0.6-0.4,0.8-0.7c0.2-0.3,0.4-0.6,0.5-1c0.1-0.4,0.2-0.8,0.2-1.3
	C151,90.7,150.8,89.9,150.3,89.3 M151,87.7h0.9v7c0,0.6-0.1,1.1-0.2,1.5c-0.1,0.5-0.3,0.9-0.6,1.2c-0.3,0.4-0.6,0.6-1.1,0.9
	c-0.5,0.2-1.1,0.3-1.8,0.3c-0.5,0-1-0.1-1.4-0.2c-0.4-0.1-0.7-0.3-1-0.5c-0.3-0.2-0.5-0.5-0.6-0.7c-0.1-0.3-0.2-0.5-0.2-0.8h1
	c0.1,0.5,0.4,0.9,0.8,1.1c0.4,0.2,0.9,0.3,1.5,0.3c0.6,0,1-0.1,1.4-0.3c0.4-0.2,0.6-0.4,0.8-0.8c0.2-0.3,0.3-0.7,0.4-1.1
	c0.1-0.4,0.1-0.9,0.1-1.4c-0.3,0.5-0.7,0.8-1.2,1.1c-0.5,0.3-1,0.4-1.6,0.4c-0.6,0-1.1-0.1-1.5-0.3c-0.4-0.2-0.8-0.5-1.1-0.9
	c-0.3-0.4-0.5-0.8-0.6-1.3c-0.1-0.5-0.2-1-0.2-1.6c0-0.6,0.1-1.1,0.2-1.6c0.1-0.5,0.3-0.9,0.6-1.3c0.3-0.4,0.6-0.7,1.1-0.9
	c0.4-0.2,1-0.3,1.6-0.3c0.5,0,1,0.1,1.6,0.4c0.5,0.3,0.9,0.7,1.1,1.2h0V87.7z"/>
<path d="M159.5,91.1c0-0.8-0.2-1.4-0.6-2c-0.4-0.5-1-0.8-1.8-0.8c-0.8,0-1.4,0.3-1.8,0.8c-0.4,0.5-0.7,1.2-0.8,2H159.5z M154.4,91.8
	c0,0.9,0.2,1.6,0.7,2.2c0.5,0.6,1.1,0.9,1.9,0.9c0.6,0,1.1-0.2,1.5-0.5c0.4-0.3,0.7-0.8,0.8-1.3h1c-0.3,0.8-0.6,1.4-1.2,1.9
	c-0.5,0.5-1.3,0.7-2.2,0.7c-0.6,0-1.1-0.1-1.6-0.3c-0.5-0.2-0.8-0.5-1.1-0.9c-0.3-0.4-0.5-0.8-0.7-1.3c-0.1-0.5-0.2-1-0.2-1.6
	c0-0.6,0.1-1.1,0.2-1.6c0.2-0.5,0.4-0.9,0.7-1.3c0.3-0.4,0.7-0.7,1.1-0.9c0.4-0.2,0.9-0.3,1.5-0.3c1.1,0,1.9,0.4,2.5,1.1
	c0.6,0.7,0.9,1.8,0.9,3.2H154.4z"/>
<path d="M162.8,95.5h-0.9v-7.8h0.9v1.1c0.4-0.4,0.8-0.8,1.2-1c0.4-0.2,0.8-0.3,1.3-0.3c0.5,0,1,0.1,1.4,0.3c0.4,0.2,0.7,0.5,1,0.8
	c0.2,0.3,0.3,0.5,0.3,0.8c0,0.3,0.1,0.6,0.1,1v5.1h-0.9v-5.1c0-0.7-0.2-1.2-0.5-1.6c-0.3-0.3-0.8-0.5-1.5-0.5c-0.5,0-1,0.1-1.4,0.4
	c-0.4,0.3-0.7,0.7-0.8,1.1c-0.1,0.2-0.1,0.4-0.2,0.7c0,0.2,0,0.5,0,0.8V95.5z"/>
<path d="M172.6,95.5c0,0-0.1,0-0.2,0c-0.4,0.1-0.6,0.1-0.9,0.1c-0.5,0-0.8-0.1-1-0.4c-0.2-0.2-0.3-0.6-0.3-1.2v-5.7h-1.1v-0.7h1.1
	v-2.2h0.9v2.2h1.5v0.7h-1.5v5.3c0,0.4,0,0.7,0.1,0.9c0.1,0.1,0.3,0.2,0.7,0.2c0.2,0,0.5,0,0.7-0.1V95.5z"/>
<path d="M173.9,95.5h0.9v-7.8h-0.9V95.5z M173.8,86h1v-1.3h-1V86z"/>
<path d="M177.6,95.5h-0.9v-7.8h0.9v1.1c0.4-0.4,0.8-0.8,1.2-1c0.4-0.2,0.8-0.3,1.3-0.3c0.5,0,1,0.1,1.4,0.3c0.4,0.2,0.7,0.5,1,0.8
	c0.2,0.3,0.3,0.5,0.3,0.8c0,0.3,0.1,0.6,0.1,1v5.1H182v-5.1c0-0.7-0.2-1.2-0.5-1.6c-0.3-0.3-0.8-0.5-1.5-0.5c-0.5,0-1,0.1-1.4,0.4
	c-0.4,0.3-0.7,0.7-0.8,1.1c-0.1,0.2-0.1,0.4-0.2,0.7c0,0.2,0,0.5,0,0.8V95.5z"/>
<path d="M190.3,90.3c-0.1-0.4-0.3-0.7-0.5-1c-0.2-0.3-0.5-0.5-0.8-0.7c-0.3-0.2-0.7-0.2-1.2-0.2c-0.5,0-0.8,0.1-1.2,0.3
	c-0.3,0.2-0.6,0.4-0.8,0.7c-0.2,0.3-0.4,0.7-0.5,1c-0.1,0.4-0.2,0.8-0.2,1.2c0,1,0.2,1.8,0.7,2.4c0.5,0.6,1.1,0.9,2,0.9
	c0.5,0,0.9-0.1,1.2-0.3c0.3-0.2,0.6-0.4,0.8-0.7c0.2-0.3,0.4-0.7,0.5-1.1c0.1-0.4,0.1-0.8,0.1-1.2C190.5,91.1,190.4,90.7,190.3,90.3
	 M185.3,94.6c-0.7-0.7-1-1.7-1-3c0-1.2,0.3-2.2,0.9-2.9c0.6-0.8,1.5-1.2,2.7-1.2c1.2,0,2.1,0.4,2.7,1.1c0.6,0.8,0.9,1.7,0.9,2.9
	c0,1.2-0.3,2.2-1,3c-0.7,0.7-1.5,1.1-2.6,1.1C186.8,95.7,185.9,95.3,185.3,94.6"/>
<path d="M108.4,66.4h-2v8.1h2.5c1.6,0,3.2-1,3.2-3.9C112.1,68.1,111.2,66.4,108.4,66.4 M114.9,70.4c0-4.3-2.5-6.4-5.8-6.4h-5.5v12.8
	h5.5C113,76.9,114.9,74.1,114.9,70.4 M101.6,73.2c0-1.6-0.8-2.8-2.4-3.3c1.1-0.5,1.7-1.4,1.7-2.7c0-2.4-1.7-3.2-4.1-3.2h-6v12.8h6.2
	C99.4,76.9,101.6,75.8,101.6,73.2 M89,73.4c0-2.5-2.1-3.2-4.1-3.7c-2.1-0.5-4.1-0.7-4.1-2.3c0-1.7,1.4-2.2,2.9-2.2
	c1.8,0,3,0.8,3.2,2.6h1.6c-0.1-2.8-2.1-4.1-4.7-4.1c-2.3,0-4.7,1.2-4.7,3.8c0,2.4,2.1,3,4.1,3.4c2.1,0.5,4.1,0.8,4.1,2.5
	c0,1.9-1.7,2.3-3.3,2.3c-1.9,0-3.7-0.9-3.7-3.1h-1.6c0,3.1,2.4,4.5,5.3,4.5C86.3,77.2,89,76.1,89,73.4 M126.3,52.5v35.1l-30.4,17.5
	L65.5,87.5V52.5l30.4-17.5L126.3,52.5z M96.8,71.2h-3.1v3.5h3c1.1,0,2.1-0.4,2.1-1.7C98.8,71.7,98,71.2,96.8,71.2 M96.5,69.3h-2.9
	v-3h2.6c1,0,1.9,0.3,1.9,1.5C98.3,68.8,97.5,69.3,96.5,69.3"/>
</svg>
