<?xml version="1.0" encoding="utf-8"?>
<!-- Generator: Adobe Illustrator 23.0.2, SVG Export Plug-In . SVG Version: 6.00 Build 0)  -->
<svg version="1.1" id="Capa_1" xmlns="http://www.w3.org/2000/svg" xmlns:xlink="http://www.w3.org/1999/xlink" x="0px" y="0px"
	 viewBox="0 0 260 140" style="enable-background:new 0 0 260 140;" xml:space="preserve">
<g>
	<path d="M1448.5,60.4h5.1l2.4,15h0.9l2.9-14.6h5.4l3,14.6h0.9l2.4-15h5.1l-3.7,19.4h-8.2l-2.2-11.9l-2.2,11.9h-8.2L1448.5,60.4z"/>
	<path d="M1481.1,78c-1.3-1.5-2-4-2-7.4c0-3.6,0.7-6.2,2.1-8c1.4-1.8,3.6-2.6,6.6-2.6c2.7,0,4.8,0.7,6.2,2.2
		c1.4,1.5,2.1,3.7,2.1,6.6l-0.4,3.6h-11.4c0.1,0.9,0.2,1.6,0.5,2.1c0.3,0.5,0.7,0.8,1.3,1c0.6,0.2,1.5,0.3,2.5,0.3
		c0.9,0,1.9,0,3.1-0.1c1.2-0.1,2.1-0.1,2.6-0.2l1.1-0.1l0.1,3.8c-2.9,0.7-5.6,1.1-7.9,1.1C1484.6,80.3,1482.4,79.6,1481.1,78z
		 M1491,68.4c0-1.6-0.2-2.6-0.7-3.2c-0.5-0.6-1.3-0.9-2.6-0.9c-1.2,0-2.1,0.3-2.6,0.9s-0.8,1.7-0.8,3.2L1491,68.4L1491,68.4z"/>
	<path d="M1499.8,60.4h5.2v1.1c1-0.6,1.9-1,2.6-1.2c0.8-0.2,1.6-0.3,2.5-0.3c2.4,0,4.1,0.8,5.1,2.3c1,1.5,1.5,3.9,1.5,7.1v10.5h-5.2
		V69.5c0-1.8-0.2-3.1-0.6-3.8c-0.4-0.7-1.2-1.1-2.4-1.1c-0.9,0-1.8,0.2-2.9,0.6l-0.5,0.2v14.5h-5.2V60.4z"/>
	<path d="M1520.1,74c0-2,0.5-3.5,1.6-4.4c1.1-0.9,2.8-1.4,5.2-1.6l4.2-0.3v-1.2c0-0.8-0.2-1.3-0.5-1.6c-0.3-0.3-0.9-0.5-1.8-0.5
		c-0.9,0-2,0-3.5,0.1s-2.8,0.1-3.8,0.2l-0.2-3.6c2.8-0.8,5.4-1.1,7.9-1.1c2.5,0,4.3,0.5,5.4,1.6c1.1,1,1.7,2.7,1.7,5v8.1
		c0.1,0.6,0.2,1.1,0.3,1.3c0.2,0.2,0.5,0.4,0.9,0.5l-0.2,3.9c-1.3,0-2.4-0.1-3.2-0.3c-0.8-0.2-1.6-0.5-2.3-1.1
		c-1.9,0.9-3.8,1.4-5.7,1.4C1522.1,80.3,1520.1,78.2,1520.1,74z M1530.5,75.6l0.6-0.2v-4.2l-3.5,0.3c-1.4,0.1-2.2,0.9-2.2,2.3
		c0,1.4,0.6,2.1,1.9,2.1C1528.2,76.1,1529.3,75.9,1530.5,75.6z"/>
	<path d="M1541.2,60.4h5.2v1.1c1-0.6,1.9-1,2.6-1.2s1.6-0.3,2.5-0.3c2.4,0,4.1,0.8,5.1,2.3c1,1.5,1.5,3.9,1.5,7.1v10.5h-5.2V69.5
		c0-1.8-0.2-3.1-0.6-3.8c-0.4-0.7-1.2-1.1-2.4-1.1c-0.8,0-1.8,0.2-2.9,0.6l-0.5,0.2v14.5h-5.2V60.4z"/>
	<path d="M1563.7,77.9c-1.3-1.6-1.9-4.2-1.9-7.8c0-3.6,0.7-6.2,1.9-7.8c1.3-1.6,3.4-2.4,6.3-2.4c0.8,0,1.6,0.1,2.5,0.2
		s2.1,0.3,3.7,0.7l-0.2,4.1c-2.2-0.2-3.7-0.3-4.6-0.3c-1.2,0-2.1,0.2-2.7,0.5c-0.6,0.3-1.1,0.9-1.3,1.7s-0.4,1.9-0.4,3.3
		c0,1.5,0.1,2.6,0.4,3.4c0.2,0.8,0.7,1.3,1.3,1.7c0.6,0.3,1.6,0.5,2.8,0.5l4.5-0.3l0.2,4.2c-2.8,0.5-4.9,0.8-6.5,0.8
		C1567,80.3,1564.9,79.5,1563.7,77.9z"/>
	<path d="M1581,78c-1.3-1.5-2-4-2-7.4c0-3.6,0.7-6.2,2.1-8c1.4-1.8,3.6-2.6,6.6-2.6c2.8,0,4.8,0.7,6.2,2.2s2.1,3.7,2.1,6.6l-0.4,3.6
		h-11.4c0.1,0.9,0.2,1.6,0.5,2.1c0.3,0.5,0.7,0.8,1.3,1c0.6,0.2,1.5,0.3,2.6,0.3c0.9,0,1.9,0,3.1-0.1s2.1-0.1,2.6-0.2l1.1-0.1
		l0.1,3.8c-2.9,0.7-5.6,1.1-7.8,1.1C1584.5,80.3,1582.3,79.6,1581,78z M1590.9,68.4c0-1.6-0.2-2.6-0.7-3.2s-1.3-0.9-2.5-0.9
		c-1.2,0-2.1,0.3-2.6,0.9c-0.5,0.6-0.8,1.7-0.8,3.2L1590.9,68.4L1590.9,68.4z"/>
</g>
<g>
	<path d="M152.4,86.5c-4.9-0.9-6.3-4.1-6.2-8.6c0.1-7.7-0.1-15.5-0.1-23.2c0-0.1,0.1-0.3,0.1-0.5c1.3,0,2.7,0,4.1,0
		c0,0.6,0,1.1,0,1.6c0,7.1,0,14.3,0,21.4c0,0.9,0.1,1.8,0.2,2.8c0.2,1.6,1.3,2.4,2.9,2.4c1.7-0.1,2.7-0.9,2.8-2.6
		c0.1-4.4,0.2-8.7,0.2-13.1c0-4.1,0-8.3,0-12.5c1.3,0,2.4,0,3.7,0c0,0.5,0.1,0.9,0.1,1.3c0,7.9,0,15.8,0,23.6c0,4.4-1.6,6.2-5.9,7.1
		c-0.2,0-0.3,0.2-0.5,0.2C153.4,86.5,152.9,86.5,152.4,86.5z"/>
	<path d="M73.6,53.5c0.2,0.1,0.4,0.3,0.6,0.3c4.4,0.5,5.5,4.5,5.4,7.6c0,0.3-0.5,0.8-0.8,0.9c-0.5,0.2-1.2,0.1-1.7,0.1
		c-1.2,0.1-1.7-0.3-1.8-1.6c-0.1-1.8-1-2.7-2.3-2.9c-2-0.2-3.4,1.3-3.1,3.6c0.2,1.4,0.8,2.9,1.7,4.1c1.4,1.9,3.1,3.6,4.8,5.3
		c3.1,3.1,3.9,6.8,3,11c-0.5,2.4-2.5,4.2-5,4.5c-0.4,0-0.7,0.2-1.1,0.3c-0.8,0-1.6,0-2.3,0c-0.2-0.1-0.4-0.2-0.6-0.3
		c-2.8-0.5-4.6-2.6-4.9-5.3c0-0.5-0.2-0.9-0.3-1.4c0-0.9,0-1.8,0-2.6c1.3,0,2.6,0,4,0c0.1,1,0.1,1.9,0.4,2.7
		c0.4,0.9,0.9,2.1,1.7,2.4c0.9,0.3,2.5,0,3-0.6c0.7-0.9,0.8-2.3,0.7-3.5c-0.1-2-1.6-3.5-2.9-4.9c-2.9-3.1-6.3-5.8-6.9-10.4
		c0-0.7,0-1.4,0-2c0.1-0.4,0.3-0.7,0.3-1.1c0.5-3.3,2.1-4.9,5.3-5.7c0.2,0,0.3-0.2,0.5-0.3C72,53.5,72.8,53.5,73.6,53.5z"/>
	<path d="M128,86.1c-1.2,0-2.6,0-4.1,0c-0.2-3-0.4-5.9-0.7-8.8c-0.1-0.7-0.1-1.4-0.2-2c-0.4-1.9-2.4-3.2-4.1-2.4
		c-0.5,0.2-0.9,1.2-0.9,1.9c-0.1,3.2-0.1,6.4-0.1,9.6c0,0.5,0,1.1,0,1.7c-1.5,0-3,0-4.5,0c0-0.4-0.1-0.7-0.1-1c0-9.7,0-19.4,0-29
		c0-2.1,0-2.2,2.2-2.2c2.4,0,4.9,0,7.3,0.3c3.1,0.3,4.9,2.5,5,5.6c0,1.6,0,3.1,0,4.7c0.1,2-0.5,3.7-1.9,5.1
		c-0.3,0.3-0.4,1.1-0.2,1.3c1.8,1.7,2.2,3.8,2.3,6.1C128.1,80,128,83,128,86.1z M117.9,63.6c0,1.3-0.1,2.5,0,3.8
		c0,0.4,0.3,1,0.6,1.1c2,0.9,4.5-0.4,4.7-2.7c0.2-1.5,0.1-3,0-4.5c-0.2-2.6-0.9-3.1-3.5-3.3c-1.4-0.1-1.9,0.5-1.9,1.7
		C117.9,61,117.9,62.3,117.9,63.6z"/>
	<path d="M111.5,86.1c-1.6,0-3,0-4.5,0c-0.3-1.5-0.6-3-0.8-4.6c-0.1-0.9-0.5-1.4-1.5-1.3c-1.3,0.1-2.6,0-3.9,0c-1,0-1.4,0.4-1.5,1.3
		c-0.2,1.5-0.4,3-0.7,4.5c-1.3,0-2.5,0-4,0c0.3-1.9,0.5-3.7,0.7-5.6c1.3-8.5,2.7-16.9,4-25.4c0.1-0.9,0.5-1.3,1.4-1.2
		c1.5,0,2.9,0,4.4,0c0.9,0,1.3,0.3,1.5,1.2c1.4,9,2.9,18,4.4,27C111.1,83.3,111.3,84.6,111.5,86.1z M102.9,60.5c-0.1,0-0.3,0-0.4,0
		c-0.1,0.4-0.3,0.9-0.3,1.3c-0.6,3.8-1.2,7.5-1.7,11.3c-0.4,3.1-0.3,3.3,3,3c1.8-0.1,1.9-0.3,1.6-2c-0.5-3.1-0.9-6.2-1.4-9.3
		C103.5,63.4,103.2,62,102.9,60.5z"/>
	<path d="M167.9,73.9c0,4.1,0,8.1,0,12.2c-1.5,0-2.8,0-4.2,0c0-10.7,0-21.3,0-32.2c3.4,0.2,6.7,0.1,9.9,0.6c2.1,0.4,3.6,2.2,3.8,4.5
		c0.3,2.7,0.3,5.4,0.2,8.2c-0.1,4.1-2.3,6.1-6.4,6.4C170.3,73.7,169.2,73.8,167.9,73.9z M167.9,58.3c0,3.5,0,7,0,10.5
		c0,0.2,0.1,0.5,0.3,0.6c1.4,1.2,5-0.2,5.2-2c0.2-1.7,0.3-3.5,0.2-5.2c-0.3-4.2-0.8-4.6-5-4.2C168.4,58.2,168.3,58.2,167.9,58.3z"/>
	<path d="M144.4,58.2c-1.3,0-2.5,0-3.7,0c-0.8,0-1.2,0.2-1.3,1.2c0,1.8-0.2,3.6-0.2,5.4c-0.1,6.6-0.1,13.1-0.1,19.7
		c0,0.6-0.1,1.1-0.1,1.7c-1.4,0-2.7,0-4.4,0c0-9.3,0-18.6,0-27.9c-1.8,0-3.3,0-4.8,0c0-1.4,0-2.7,0-4.1c4.8,0,9.7,0,14.6,0
		C144.4,55.4,144.4,56.6,144.4,58.2z"/>
	<path d="M90.1,86.1c-1.4,0-2.6,0-3.9,0c-0.1-1.8-0.2-3.5-0.2-5.3c-0.1-6.5-0.1-13-0.1-19.5c0-3.2,0-3.2-3.1-3.2c-0.6,0-1.3,0-2,0
		c0-1.4,0-2.8,0-4.2c4.9,0,9.8,0,14.8,0c0,1.3,0,2.6,0,4.2c-1.2,0-2.5,0-3.7,0c-0.8,0-1.2,0.3-1.2,1.1c0,0.8-0.1,1.5-0.2,2.3
		c-0.1,7.7-0.2,15.4-0.3,23C90.2,85.1,90.2,85.5,90.1,86.1z"/>
	<path d="M185.5,72.7c-1.2,1.1-2.1,2-3.1,2.8c-0.3,0.3-0.9,0.3-1.3,0.4c0.2-0.4,0.2-0.9,0.5-1.2c0.8-0.9,1.8-1.8,2.6-2.7
		c0.4-0.4,0.6-0.9,1-1.5c-1.6-0.2-2.9-0.4-4.2-0.6c0-0.2,0-0.3,0-0.5c0.4-0.1,0.9-0.3,1.3-0.3c2.9,0,5.8,0,8.7,0
		c0.9,0,1.4,0.3,1.3,1.2c-0.1,1.3-0.1,2.6-0.3,3.9c-0.2,1.2-1.2,1.7-2.4,1.7c-1.2,0-2.4,0.1-3-1.2C186.2,74.1,185.9,73.6,185.5,72.7
		z M189.2,70.3c-2,0-2.2,0.1-2.2,1.8c0,1.7,0.7,2.7,2,2.7c1.2,0,2.1-1,2.1-2.6C191.1,70.3,191.1,70.3,189.2,70.3z"/>
	<path d="M181,54.2c0.4-0.1,0.8-0.3,1.3-0.3c2.9,0,5.8,0,8.7,0c1,0,1.5,0.3,1.4,1.3c-0.1,1.2-0.1,2.4-0.3,3.6
		c-0.3,1.5-1.2,2.1-2.8,2.2c-2.1,0.1-3.2-0.5-3.6-1.9c-0.1-0.4-0.2-0.7-0.3-1.1c-0.6-2.7-0.6-2.7-3.4-3.1c-0.3,0-0.7-0.2-1-0.2
		C181,54.5,181,54.3,181,54.2z M188.9,55.1c-2.2,0-2.5,0.2-2.5,2c0,1.6,0.9,2.7,2.2,2.7c1.4,0,2.6-1.2,2.6-2.5
		C191.2,55.3,191,55.1,188.9,55.1z"/>
	<path d="M192.2,78.4c-0.5,0-0.9,0.1-1.4,0.1c-2.1,0.1-4.2,0.2-6.2,0.3c-1.7,0.1-2.6,1.3-2.6,3.6c0,1.8,0.5,2.4,2.4,2.5
		c2.1,0.1,4.2,0.2,6.2,0.3c0.5,0,1,0.2,1.4,0.3c0,0.2,0,0.3,0,0.5c-0.4,0.1-0.8,0.2-1.3,0.2c-1.9,0-3.9-0.1-5.8,0
		c-3.7,0.3-4.6-2.5-4.1-5.4c0.3-1.7,1.7-3,3.4-3.1c2.1-0.2,4.3-0.3,6.4-0.3c0.5,0,1.1,0.3,1.6,0.4C192.3,77.9,192.3,78.2,192.2,78.4
		z"/>
	<path d="M191.6,67.4c-0.1-0.6-0.2-1.2-0.3-1.8c-0.1-0.6-0.2-1.2-0.4-2.2c-1.2,0.2-2.6-0.1-3.4,0.6c-0.7,0.6-0.5,2.1-0.7,3.2
		c-0.2,0-0.3,0-0.5,0c-0.2-1.1-0.5-2.3-0.8-3.7c-0.7,0-1.4,0-2.2,0c-1-0.1-1.4,0.4-1.4,1.4c0,1-0.2,1.9-0.3,2.9c-0.2,0-0.4,0-0.6,0
		c0-1.6,0-3.3,0-4.9c0-0.2,0.6-0.5,0.9-0.5c3-0.1,6-0.2,9-0.2c0.4,0,1,0.5,1.1,0.7c0.1,1.5,0.1,3,0.1,4.6
		C192,67.4,191.8,67.4,191.6,67.4z"/>
	<path d="M194.2,83.6c-0.3-1-0.6-2-1-3.3c1.6,0.8,1.9,1.8,1.5,3.2C194.5,83.5,194.4,83.5,194.2,83.6z"/>
</g>
</svg>
